G04 #@! TF.FileFunction,Legend,Top*
%FSLAX46Y46*%
G04 Gerber Fmt 4.6, Leading zero omitted, Abs format (unit mm)*
G04 Created by KiCad (PCBNEW 4.0.1-stable) date 4/8/2017 12:25:21 PM*
%MOMM*%
G01*
G04 APERTURE LIST*
%ADD10C,0.150000*%
%ADD11C,0.200000*%
%ADD12C,0.203200*%
%ADD13C,0.152400*%
%ADD14C,0.300000*%
%ADD15C,0.304800*%
%ADD16C,0.254000*%
G04 APERTURE END LIST*
D10*
D11*
X165735000Y-74295000D02*
X164465000Y-75565000D01*
X125095000Y-117475000D02*
X123825000Y-118745000D01*
X125095000Y-117475000D02*
X125095000Y-118110000D01*
X124460000Y-117475000D02*
X125095000Y-117475000D01*
X125095000Y-117475000D02*
X124460000Y-117475000D01*
X155575000Y-69532500D02*
X155575000Y-70167500D01*
X157162500Y-69532500D02*
X155575000Y-69532500D01*
X157162500Y-69532500D02*
X156845000Y-69215000D01*
X157162500Y-69532500D02*
X156845000Y-69850000D01*
X152717500Y-71120000D02*
X153035000Y-70802500D01*
X152717500Y-71120000D02*
X153035000Y-71437500D01*
X152717500Y-71120000D02*
X153670000Y-71120000D01*
D12*
X154569584Y-70385819D02*
X154478869Y-71111533D01*
X154417185Y-71256676D01*
X154318003Y-71353438D01*
X154181327Y-71401819D01*
X154094242Y-71401819D01*
X155354565Y-70724486D02*
X155269899Y-71401819D01*
X154962679Y-70724486D02*
X154896156Y-71256676D01*
X154927603Y-71353438D01*
X155008642Y-71401819D01*
X155139270Y-71401819D01*
X155232403Y-71353438D01*
X155281994Y-71305057D01*
X155705327Y-71401819D02*
X155789993Y-70724486D01*
X155777898Y-70821248D02*
X155827489Y-70772867D01*
X155920622Y-70724486D01*
X156051250Y-70724486D01*
X156132289Y-70772867D01*
X156163736Y-70869629D01*
X156097213Y-71401819D01*
X156163736Y-70869629D02*
X156219375Y-70772867D01*
X156312508Y-70724486D01*
X156443136Y-70724486D01*
X156524175Y-70772867D01*
X156555622Y-70869629D01*
X156489099Y-71401819D01*
X157009193Y-70724486D02*
X156882193Y-71740486D01*
X157003146Y-70772867D02*
X157096279Y-70724486D01*
X157270450Y-70724486D01*
X157351489Y-70772867D01*
X157388984Y-70821248D01*
X157420432Y-70918010D01*
X157384146Y-71208295D01*
X157328508Y-71305057D01*
X157278917Y-71353438D01*
X157185784Y-71401819D01*
X157011613Y-71401819D01*
X156930574Y-71353438D01*
X158106231Y-71353438D02*
X158013098Y-71401819D01*
X157838927Y-71401819D01*
X157757888Y-71353438D01*
X157726441Y-71256676D01*
X157774821Y-70869629D01*
X157830460Y-70772867D01*
X157923593Y-70724486D01*
X158097764Y-70724486D01*
X158178803Y-70772867D01*
X158210250Y-70869629D01*
X158198155Y-70966390D01*
X157750631Y-71063152D01*
X158535612Y-71401819D02*
X158620278Y-70724486D01*
X158596088Y-70918010D02*
X158651726Y-70821248D01*
X158701317Y-70772867D01*
X158794450Y-70724486D01*
X158881535Y-70724486D01*
X159064173Y-71353438D02*
X159145212Y-71401819D01*
X159319384Y-71401819D01*
X159412516Y-71353438D01*
X159468155Y-71256676D01*
X159474202Y-71208295D01*
X159442754Y-71111533D01*
X159361717Y-71063152D01*
X159231088Y-71063152D01*
X159150050Y-71014771D01*
X159118602Y-70918010D01*
X159124649Y-70869629D01*
X159180288Y-70772867D01*
X159273421Y-70724486D01*
X159404050Y-70724486D01*
X159485088Y-70772867D01*
X152654908Y-72350086D02*
X152744413Y-73027419D01*
X152979060Y-72543610D01*
X153092756Y-73027419D01*
X153351593Y-72350086D01*
X154401460Y-71963038D02*
X153454403Y-73269324D01*
X154703842Y-73027419D02*
X154622803Y-72979038D01*
X154585308Y-72930657D01*
X154553860Y-72833895D01*
X154590146Y-72543610D01*
X154645784Y-72446848D01*
X154695375Y-72398467D01*
X154788508Y-72350086D01*
X154919136Y-72350086D01*
X155000175Y-72398467D01*
X155037670Y-72446848D01*
X155069118Y-72543610D01*
X155032832Y-72833895D01*
X154977194Y-72930657D01*
X154927603Y-72979038D01*
X154834470Y-73027419D01*
X154703842Y-73027419D01*
X156097213Y-73027419D02*
X156224213Y-72011419D01*
X156441928Y-72011419D01*
X156566508Y-72059800D01*
X156641499Y-72156562D01*
X156672947Y-72253324D01*
X156692299Y-72446848D01*
X156674156Y-72591990D01*
X156606423Y-72785514D01*
X156550785Y-72882276D01*
X156451603Y-72979038D01*
X156314928Y-73027419D01*
X156097213Y-73027419D01*
X156974117Y-72979038D02*
X157098699Y-73027419D01*
X157316413Y-73027419D01*
X157409546Y-72979038D01*
X157459137Y-72930657D01*
X157514775Y-72833895D01*
X157526870Y-72737133D01*
X157495423Y-72640371D01*
X157457927Y-72591990D01*
X157376889Y-72543610D01*
X157208765Y-72495229D01*
X157127727Y-72446848D01*
X157090232Y-72398467D01*
X157058784Y-72301705D01*
X157070879Y-72204943D01*
X157126517Y-72108181D01*
X157176108Y-72059800D01*
X157269242Y-72011419D01*
X157486956Y-72011419D01*
X157611537Y-72059800D01*
X158361442Y-73027419D02*
X157838927Y-73027419D01*
X158100185Y-73027419D02*
X158227185Y-72011419D01*
X158121956Y-72156562D01*
X158022775Y-72253324D01*
X157929641Y-72301705D01*
X158824688Y-72108181D02*
X158874279Y-72059800D01*
X158967413Y-72011419D01*
X159185127Y-72011419D01*
X159266165Y-72059800D01*
X159303660Y-72108181D01*
X159335108Y-72204943D01*
X159323013Y-72301705D01*
X159261327Y-72446848D01*
X158666242Y-73027419D01*
X159232299Y-73027419D01*
X160103156Y-73027419D02*
X159580641Y-73027419D01*
X159841899Y-73027419D02*
X159968899Y-72011419D01*
X159863670Y-72156562D01*
X159764489Y-72253324D01*
X159671355Y-72301705D01*
X160796213Y-72011419D02*
X160883298Y-72011419D01*
X160964336Y-72059800D01*
X161001831Y-72108181D01*
X161033279Y-72204943D01*
X161052632Y-72398467D01*
X161022394Y-72640371D01*
X160954660Y-72833895D01*
X160899022Y-72930657D01*
X160849431Y-72979038D01*
X160756298Y-73027419D01*
X160669213Y-73027419D01*
X160588174Y-72979038D01*
X160550679Y-72930657D01*
X160519231Y-72833895D01*
X160499879Y-72640371D01*
X160530117Y-72398467D01*
X160597850Y-72204943D01*
X160653488Y-72108181D01*
X160703079Y-72059800D01*
X160796213Y-72011419D01*
D11*
X160020000Y-68897500D02*
X160020000Y-69532500D01*
X159067500Y-69850000D02*
X159702500Y-69850000D01*
X157797500Y-69850000D02*
X158432500Y-69850000D01*
X157480000Y-68897500D02*
X157480000Y-69532500D01*
X152400000Y-69532500D02*
X152400000Y-68897500D01*
X152400000Y-70802500D02*
X152400000Y-70167500D01*
X152400000Y-72072500D02*
X152400000Y-71437500D01*
X152400000Y-73342500D02*
X152400000Y-72707500D01*
D12*
X145371155Y-76672319D02*
X145498155Y-75656319D01*
X145893670Y-76672319D01*
X146020670Y-75656319D01*
X146325470Y-75656319D02*
X146503270Y-76672319D01*
X146935070Y-75656319D01*
X147635384Y-76672319D02*
X147391060Y-76188510D01*
X147112869Y-76672319D02*
X147239869Y-75656319D01*
X147588212Y-75656319D01*
X147669250Y-75704700D01*
X147706745Y-75753081D01*
X147738193Y-75849843D01*
X147720050Y-75994986D01*
X147664412Y-76091748D01*
X147614821Y-76140129D01*
X147521688Y-76188510D01*
X147173345Y-76188510D01*
X148020011Y-76382033D02*
X148455440Y-76382033D01*
X147896641Y-76672319D02*
X148328441Y-75656319D01*
X148506241Y-76672319D01*
X148811040Y-76672319D02*
X148938040Y-75656319D01*
X149152125Y-76382033D01*
X149547640Y-75656319D01*
X149420640Y-76672319D01*
X145568307Y-77765729D02*
X145692889Y-77814110D01*
X145730384Y-77862490D01*
X145761832Y-77959252D01*
X145743689Y-78104395D01*
X145688051Y-78201157D01*
X145638460Y-78249538D01*
X145545327Y-78297919D01*
X145196984Y-78297919D01*
X145323984Y-77281919D01*
X145628784Y-77281919D01*
X145709822Y-77330300D01*
X145747317Y-77378681D01*
X145778765Y-77475443D01*
X145766670Y-77572205D01*
X145711032Y-77668967D01*
X145661441Y-77717348D01*
X145568307Y-77765729D01*
X145263507Y-77765729D01*
X146503270Y-78297919D02*
X146569793Y-77765729D01*
X146538346Y-77668967D01*
X146457307Y-77620586D01*
X146283136Y-77620586D01*
X146190003Y-77668967D01*
X146509317Y-78249538D02*
X146416184Y-78297919D01*
X146198470Y-78297919D01*
X146117431Y-78249538D01*
X146085984Y-78152776D01*
X146098079Y-78056014D01*
X146153717Y-77959252D01*
X146246851Y-77910871D01*
X146464565Y-77910871D01*
X146557698Y-77862490D01*
X146892736Y-77620586D02*
X147241079Y-77620586D01*
X147065698Y-77281919D02*
X146956841Y-78152776D01*
X146988288Y-78249538D01*
X147069327Y-78297919D01*
X147156413Y-78297919D01*
X147415250Y-77620586D02*
X147763593Y-77620586D01*
X147588212Y-77281919D02*
X147479355Y-78152776D01*
X147510802Y-78249538D01*
X147591841Y-78297919D01*
X147678927Y-78297919D01*
X148338116Y-78249538D02*
X148244983Y-78297919D01*
X148070812Y-78297919D01*
X147989773Y-78249538D01*
X147958326Y-78152776D01*
X148006706Y-77765729D01*
X148062345Y-77668967D01*
X148155478Y-77620586D01*
X148329649Y-77620586D01*
X148410688Y-77668967D01*
X148442135Y-77765729D01*
X148430040Y-77862490D01*
X147982516Y-77959252D01*
X148767497Y-78297919D02*
X148852163Y-77620586D01*
X148827973Y-77814110D02*
X148883611Y-77717348D01*
X148933202Y-77668967D01*
X149026335Y-77620586D01*
X149113420Y-77620586D01*
X149331135Y-77620586D02*
X149464183Y-78297919D01*
X149766563Y-77620586D02*
X149464183Y-78297919D01*
X149346858Y-78539824D01*
X149297268Y-78588205D01*
X149204135Y-78636586D01*
D13*
X104076500Y-116150572D02*
X104040214Y-116223143D01*
X104040214Y-116332000D01*
X104076500Y-116440857D01*
X104149071Y-116513429D01*
X104221643Y-116549714D01*
X104366786Y-116586000D01*
X104475643Y-116586000D01*
X104620786Y-116549714D01*
X104693357Y-116513429D01*
X104765929Y-116440857D01*
X104802214Y-116332000D01*
X104802214Y-116259429D01*
X104765929Y-116150572D01*
X104729643Y-116114286D01*
X104475643Y-116114286D01*
X104475643Y-116259429D01*
X104802214Y-115787714D02*
X104040214Y-115787714D01*
X104802214Y-115352286D01*
X104040214Y-115352286D01*
X104802214Y-114989428D02*
X104040214Y-114989428D01*
X104040214Y-114808000D01*
X104076500Y-114699143D01*
X104149071Y-114626571D01*
X104221643Y-114590286D01*
X104366786Y-114554000D01*
X104475643Y-114554000D01*
X104620786Y-114590286D01*
X104693357Y-114626571D01*
X104765929Y-114699143D01*
X104802214Y-114808000D01*
X104802214Y-114989428D01*
X104765929Y-111270142D02*
X104802214Y-111161285D01*
X104802214Y-110979856D01*
X104765929Y-110907285D01*
X104729643Y-110870999D01*
X104657071Y-110834714D01*
X104584500Y-110834714D01*
X104511929Y-110870999D01*
X104475643Y-110907285D01*
X104439357Y-110979856D01*
X104403071Y-111124999D01*
X104366786Y-111197571D01*
X104330500Y-111233856D01*
X104257929Y-111270142D01*
X104185357Y-111270142D01*
X104112786Y-111233856D01*
X104076500Y-111197571D01*
X104040214Y-111124999D01*
X104040214Y-110943571D01*
X104076500Y-110834714D01*
X104802214Y-110508142D02*
X104040214Y-110508142D01*
X104802214Y-110145285D02*
X104040214Y-110145285D01*
X104040214Y-109963857D01*
X104076500Y-109855000D01*
X104149071Y-109782428D01*
X104221643Y-109746143D01*
X104366786Y-109709857D01*
X104475643Y-109709857D01*
X104620786Y-109746143D01*
X104693357Y-109782428D01*
X104765929Y-109855000D01*
X104802214Y-109963857D01*
X104802214Y-110145285D01*
X104765929Y-114027857D02*
X104802214Y-113919000D01*
X104802214Y-113737571D01*
X104765929Y-113665000D01*
X104729643Y-113628714D01*
X104657071Y-113592429D01*
X104584500Y-113592429D01*
X104511929Y-113628714D01*
X104475643Y-113665000D01*
X104439357Y-113737571D01*
X104403071Y-113882714D01*
X104366786Y-113955286D01*
X104330500Y-113991571D01*
X104257929Y-114027857D01*
X104185357Y-114027857D01*
X104112786Y-113991571D01*
X104076500Y-113955286D01*
X104040214Y-113882714D01*
X104040214Y-113701286D01*
X104076500Y-113592429D01*
X104040214Y-113120715D02*
X104040214Y-112975572D01*
X104076500Y-112903000D01*
X104149071Y-112830429D01*
X104294214Y-112794143D01*
X104548214Y-112794143D01*
X104693357Y-112830429D01*
X104765929Y-112903000D01*
X104802214Y-112975572D01*
X104802214Y-113120715D01*
X104765929Y-113193286D01*
X104693357Y-113265857D01*
X104548214Y-113302143D01*
X104294214Y-113302143D01*
X104149071Y-113265857D01*
X104076500Y-113193286D01*
X104040214Y-113120715D01*
X104802214Y-112467571D02*
X104040214Y-112467571D01*
X104040214Y-112286143D01*
X104076500Y-112177286D01*
X104149071Y-112104714D01*
X104221643Y-112068429D01*
X104366786Y-112032143D01*
X104475643Y-112032143D01*
X104620786Y-112068429D01*
X104693357Y-112104714D01*
X104765929Y-112177286D01*
X104802214Y-112286143D01*
X104802214Y-112467571D01*
D12*
X113784440Y-129682119D02*
X113911440Y-128666119D01*
X114306955Y-129682119D01*
X114433955Y-128666119D01*
X114742383Y-129682119D02*
X114869383Y-128666119D01*
X115083468Y-129391833D01*
X115478983Y-128666119D01*
X115351983Y-129682119D01*
X116088584Y-128666119D02*
X116262755Y-128666119D01*
X116343793Y-128714500D01*
X116418784Y-128811262D01*
X116438135Y-129004786D01*
X116395802Y-129343452D01*
X116328070Y-129536976D01*
X116228888Y-129633738D01*
X116135755Y-129682119D01*
X115961584Y-129682119D01*
X115880545Y-129633738D01*
X115805555Y-129536976D01*
X115786202Y-129343452D01*
X115828535Y-129004786D01*
X115896269Y-128811262D01*
X115995450Y-128714500D01*
X116088584Y-128666119D01*
X116707859Y-129633738D02*
X116832441Y-129682119D01*
X117050155Y-129682119D01*
X117143288Y-129633738D01*
X117192879Y-129585357D01*
X117248517Y-129488595D01*
X117260612Y-129391833D01*
X117229165Y-129295071D01*
X117191669Y-129246690D01*
X117110631Y-129198310D01*
X116942507Y-129149929D01*
X116861469Y-129101548D01*
X116823974Y-129053167D01*
X116792526Y-128956405D01*
X116804621Y-128859643D01*
X116860259Y-128762881D01*
X116909850Y-128714500D01*
X117002984Y-128666119D01*
X117220698Y-128666119D01*
X117345279Y-128714500D01*
X118516098Y-129101548D02*
X118435060Y-129053167D01*
X118397564Y-129004786D01*
X118366117Y-128908024D01*
X118372164Y-128859643D01*
X118427802Y-128762881D01*
X118477393Y-128714500D01*
X118570527Y-128666119D01*
X118744698Y-128666119D01*
X118825736Y-128714500D01*
X118863231Y-128762881D01*
X118894679Y-128859643D01*
X118888632Y-128908024D01*
X118832993Y-129004786D01*
X118783403Y-129053167D01*
X118690269Y-129101548D01*
X118516098Y-129101548D01*
X118422964Y-129149929D01*
X118373374Y-129198310D01*
X118317736Y-129295071D01*
X118293545Y-129488595D01*
X118324993Y-129585357D01*
X118362488Y-129633738D01*
X118443527Y-129682119D01*
X118617698Y-129682119D01*
X118710831Y-129633738D01*
X118760422Y-129585357D01*
X118816060Y-129488595D01*
X118840251Y-129295071D01*
X118808803Y-129198310D01*
X118771307Y-129149929D01*
X118690269Y-129101548D01*
X119484927Y-128666119D02*
X119572012Y-128666119D01*
X119653050Y-128714500D01*
X119690545Y-128762881D01*
X119721993Y-128859643D01*
X119741346Y-129053167D01*
X119711108Y-129295071D01*
X119643374Y-129488595D01*
X119587736Y-129585357D01*
X119538145Y-129633738D01*
X119445012Y-129682119D01*
X119357927Y-129682119D01*
X119276888Y-129633738D01*
X119239393Y-129585357D01*
X119207945Y-129488595D01*
X119188593Y-129295071D01*
X119218831Y-129053167D01*
X119286564Y-128859643D01*
X119342202Y-128762881D01*
X119391793Y-128714500D01*
X119484927Y-128666119D01*
X120257812Y-129101548D02*
X120176774Y-129053167D01*
X120139278Y-129004786D01*
X120107831Y-128908024D01*
X120113878Y-128859643D01*
X120169516Y-128762881D01*
X120219107Y-128714500D01*
X120312241Y-128666119D01*
X120486412Y-128666119D01*
X120567450Y-128714500D01*
X120604945Y-128762881D01*
X120636393Y-128859643D01*
X120630346Y-128908024D01*
X120574707Y-129004786D01*
X120525117Y-129053167D01*
X120431983Y-129101548D01*
X120257812Y-129101548D01*
X120164678Y-129149929D01*
X120115088Y-129198310D01*
X120059450Y-129295071D01*
X120035259Y-129488595D01*
X120066707Y-129585357D01*
X120104202Y-129633738D01*
X120185241Y-129682119D01*
X120359412Y-129682119D01*
X120452545Y-129633738D01*
X120502136Y-129585357D01*
X120557774Y-129488595D01*
X120581965Y-129295071D01*
X120550517Y-129198310D01*
X120513021Y-129149929D01*
X120431983Y-129101548D01*
X121487898Y-128666119D02*
X121052469Y-128666119D01*
X120948449Y-129149929D01*
X120998040Y-129101548D01*
X121091174Y-129053167D01*
X121308888Y-129053167D01*
X121389926Y-129101548D01*
X121427421Y-129149929D01*
X121458869Y-129246690D01*
X121428631Y-129488595D01*
X121372993Y-129585357D01*
X121323402Y-129633738D01*
X121230269Y-129682119D01*
X121012555Y-129682119D01*
X120931516Y-129633738D01*
X120894021Y-129585357D01*
X121789068Y-129391833D02*
X122224497Y-129391833D01*
X121665698Y-129682119D02*
X122097498Y-128666119D01*
X122275298Y-129682119D01*
X122592192Y-129585357D02*
X122629687Y-129633738D01*
X122580097Y-129682119D01*
X122542601Y-129633738D01*
X122592192Y-129585357D01*
X122580097Y-129682119D01*
X122658716Y-129053167D02*
X122696211Y-129101548D01*
X122646620Y-129149929D01*
X122609125Y-129101548D01*
X122658716Y-129053167D01*
X122646620Y-129149929D01*
X124246822Y-129585357D02*
X124197231Y-129633738D01*
X124060555Y-129682119D01*
X123973469Y-129682119D01*
X123848888Y-129633738D01*
X123773898Y-129536976D01*
X123742450Y-129440214D01*
X123723097Y-129246690D01*
X123741240Y-129101548D01*
X123808974Y-128908024D01*
X123864612Y-128811262D01*
X123963793Y-128714500D01*
X124100469Y-128666119D01*
X124187555Y-128666119D01*
X124312136Y-128714500D01*
X124349631Y-128762881D01*
X125105584Y-129682119D02*
X124583069Y-129682119D01*
X124844327Y-129682119D02*
X124971327Y-128666119D01*
X124866098Y-128811262D01*
X124766917Y-128908024D01*
X124673783Y-128956405D01*
X125974021Y-129004786D02*
X125889355Y-129682119D01*
X125804688Y-128617738D02*
X125496259Y-129343452D01*
X126062317Y-129343452D01*
X126417916Y-129633738D02*
X126411869Y-129682119D01*
X126356230Y-129778881D01*
X126306640Y-129827262D01*
X128035051Y-129585357D02*
X127985460Y-129633738D01*
X127848784Y-129682119D01*
X127761698Y-129682119D01*
X127637117Y-129633738D01*
X127562127Y-129536976D01*
X127530679Y-129440214D01*
X127511326Y-129246690D01*
X127529469Y-129101548D01*
X127597203Y-128908024D01*
X127652841Y-128811262D01*
X127752022Y-128714500D01*
X127888698Y-128666119D01*
X127975784Y-128666119D01*
X128100365Y-128714500D01*
X128137860Y-128762881D01*
X128893813Y-129682119D02*
X128371298Y-129682119D01*
X128632556Y-129682119D02*
X128759556Y-128666119D01*
X128654327Y-128811262D01*
X128555146Y-128908024D01*
X128462012Y-128956405D01*
X129848127Y-128666119D02*
X129412698Y-128666119D01*
X129308678Y-129149929D01*
X129358269Y-129101548D01*
X129451403Y-129053167D01*
X129669117Y-129053167D01*
X129750155Y-129101548D01*
X129787650Y-129149929D01*
X129819098Y-129246690D01*
X129788860Y-129488595D01*
X129733222Y-129585357D01*
X129683631Y-129633738D01*
X129590498Y-129682119D01*
X129372784Y-129682119D01*
X129291745Y-129633738D01*
X129254250Y-129585357D01*
X130901622Y-129295071D02*
X131598308Y-129295071D01*
X132682041Y-129682119D02*
X132809041Y-128666119D01*
X133026756Y-128666119D01*
X133151336Y-128714500D01*
X133226327Y-128811262D01*
X133257775Y-128908024D01*
X133277127Y-129101548D01*
X133258984Y-129246690D01*
X133191251Y-129440214D01*
X133135613Y-129536976D01*
X133036431Y-129633738D01*
X132899756Y-129682119D01*
X132682041Y-129682119D01*
X133596441Y-129682119D02*
X133723441Y-128666119D01*
X134118956Y-129682119D01*
X134245956Y-128666119D01*
X134554384Y-129682119D02*
X134681384Y-128666119D01*
X135029727Y-128666119D01*
X135110765Y-128714500D01*
X135148260Y-128762881D01*
X135179708Y-128859643D01*
X135161565Y-129004786D01*
X135105927Y-129101548D01*
X135056336Y-129149929D01*
X134963203Y-129198310D01*
X134614860Y-129198310D01*
D11*
X165100000Y-74295000D02*
X165735000Y-74295000D01*
X165735000Y-74295000D02*
X165735000Y-74930000D01*
D12*
X148202953Y-74812071D02*
X148977048Y-74812071D01*
X145662953Y-74812071D02*
X146437048Y-74812071D01*
X146050000Y-75199119D02*
X146050000Y-74425024D01*
D14*
X154753571Y-59800713D02*
X154753571Y-60514999D01*
X155467857Y-60586428D01*
X155396429Y-60514999D01*
X155325000Y-60372142D01*
X155325000Y-60014999D01*
X155396429Y-59872142D01*
X155467857Y-59800713D01*
X155610714Y-59729285D01*
X155967857Y-59729285D01*
X156110714Y-59800713D01*
X156182143Y-59872142D01*
X156253571Y-60014999D01*
X156253571Y-60372142D01*
X156182143Y-60514999D01*
X156110714Y-60586428D01*
X154753571Y-59300714D02*
X156253571Y-58800714D01*
X154753571Y-58300714D01*
X154753571Y-56372143D02*
X154753571Y-56086429D01*
X154825000Y-55943571D01*
X154967857Y-55800714D01*
X155253571Y-55729286D01*
X155753571Y-55729286D01*
X156039286Y-55800714D01*
X156182143Y-55943571D01*
X156253571Y-56086429D01*
X156253571Y-56372143D01*
X156182143Y-56515000D01*
X156039286Y-56657857D01*
X155753571Y-56729286D01*
X155253571Y-56729286D01*
X154967857Y-56657857D01*
X154825000Y-56515000D01*
X154753571Y-56372143D01*
X155253571Y-55086428D02*
X156253571Y-55086428D01*
X155396429Y-55086428D02*
X155325000Y-55015000D01*
X155253571Y-54872142D01*
X155253571Y-54657857D01*
X155325000Y-54515000D01*
X155467857Y-54443571D01*
X156253571Y-54443571D01*
X156253571Y-53514999D02*
X156182143Y-53657857D01*
X156039286Y-53729285D01*
X154753571Y-53729285D01*
X155253571Y-53086428D02*
X156253571Y-52729285D01*
X155253571Y-52372143D02*
X156253571Y-52729285D01*
X156610714Y-52872143D01*
X156682143Y-52943571D01*
X156753571Y-53086428D01*
D12*
X105277557Y-79994880D02*
X105325938Y-80043261D01*
X105374319Y-80188404D01*
X105374319Y-80285166D01*
X105325938Y-80430308D01*
X105229176Y-80527070D01*
X105132414Y-80575451D01*
X104938890Y-80623832D01*
X104793748Y-80623832D01*
X104600224Y-80575451D01*
X104503462Y-80527070D01*
X104406700Y-80430308D01*
X104358319Y-80285166D01*
X104358319Y-80188404D01*
X104406700Y-80043261D01*
X104455081Y-79994880D01*
X105374319Y-79414308D02*
X105325938Y-79511070D01*
X105277557Y-79559451D01*
X105180795Y-79607832D01*
X104890510Y-79607832D01*
X104793748Y-79559451D01*
X104745367Y-79511070D01*
X104696986Y-79414308D01*
X104696986Y-79269166D01*
X104745367Y-79172404D01*
X104793748Y-79124023D01*
X104890510Y-79075642D01*
X105180795Y-79075642D01*
X105277557Y-79124023D01*
X105325938Y-79172404D01*
X105374319Y-79269166D01*
X105374319Y-79414308D01*
X104696986Y-78640213D02*
X105712986Y-78640213D01*
X104745367Y-78640213D02*
X104696986Y-78543451D01*
X104696986Y-78349928D01*
X104745367Y-78253166D01*
X104793748Y-78204785D01*
X104890510Y-78156404D01*
X105180795Y-78156404D01*
X105277557Y-78204785D01*
X105325938Y-78253166D01*
X105374319Y-78349928D01*
X105374319Y-78543451D01*
X105325938Y-78640213D01*
X104696986Y-77817737D02*
X105374319Y-77575832D01*
X104696986Y-77333928D02*
X105374319Y-77575832D01*
X105616224Y-77672594D01*
X105664605Y-77720975D01*
X105712986Y-77817737D01*
X105374319Y-76946880D02*
X104696986Y-76946880D01*
X104890510Y-76946880D02*
X104793748Y-76898499D01*
X104745367Y-76850118D01*
X104696986Y-76753356D01*
X104696986Y-76656595D01*
X105374319Y-76317928D02*
X104696986Y-76317928D01*
X104358319Y-76317928D02*
X104406700Y-76366309D01*
X104455081Y-76317928D01*
X104406700Y-76269547D01*
X104358319Y-76317928D01*
X104455081Y-76317928D01*
X104696986Y-75398690D02*
X105519462Y-75398690D01*
X105616224Y-75447071D01*
X105664605Y-75495452D01*
X105712986Y-75592213D01*
X105712986Y-75737356D01*
X105664605Y-75834118D01*
X105325938Y-75398690D02*
X105374319Y-75495452D01*
X105374319Y-75688975D01*
X105325938Y-75785737D01*
X105277557Y-75834118D01*
X105180795Y-75882499D01*
X104890510Y-75882499D01*
X104793748Y-75834118D01*
X104745367Y-75785737D01*
X104696986Y-75688975D01*
X104696986Y-75495452D01*
X104745367Y-75398690D01*
X105374319Y-74914880D02*
X104358319Y-74914880D01*
X105374319Y-74479452D02*
X104842129Y-74479452D01*
X104745367Y-74527833D01*
X104696986Y-74624595D01*
X104696986Y-74769737D01*
X104745367Y-74866499D01*
X104793748Y-74914880D01*
X104696986Y-74140785D02*
X104696986Y-73753737D01*
X104358319Y-73995642D02*
X105229176Y-73995642D01*
X105325938Y-73947261D01*
X105374319Y-73850499D01*
X105374319Y-73753737D01*
X105761367Y-72350691D02*
X105712986Y-72399071D01*
X105567843Y-72495833D01*
X105471081Y-72544214D01*
X105325938Y-72592595D01*
X105084033Y-72640976D01*
X104890510Y-72640976D01*
X104648605Y-72592595D01*
X104503462Y-72544214D01*
X104406700Y-72495833D01*
X104261557Y-72399071D01*
X104213176Y-72350691D01*
X105277557Y-71383072D02*
X105325938Y-71431453D01*
X105374319Y-71576596D01*
X105374319Y-71673358D01*
X105325938Y-71818500D01*
X105229176Y-71915262D01*
X105132414Y-71963643D01*
X104938890Y-72012024D01*
X104793748Y-72012024D01*
X104600224Y-71963643D01*
X104503462Y-71915262D01*
X104406700Y-71818500D01*
X104358319Y-71673358D01*
X104358319Y-71576596D01*
X104406700Y-71431453D01*
X104455081Y-71383072D01*
X105761367Y-71044405D02*
X105712986Y-70996024D01*
X105567843Y-70899262D01*
X105471081Y-70850881D01*
X105325938Y-70802500D01*
X105084033Y-70754119D01*
X104890510Y-70754119D01*
X104648605Y-70802500D01*
X104503462Y-70850881D01*
X104406700Y-70899262D01*
X104261557Y-70996024D01*
X104213176Y-71044405D01*
X104455081Y-69544596D02*
X104406700Y-69496215D01*
X104358319Y-69399453D01*
X104358319Y-69157549D01*
X104406700Y-69060787D01*
X104455081Y-69012406D01*
X104551843Y-68964025D01*
X104648605Y-68964025D01*
X104793748Y-69012406D01*
X105374319Y-69592977D01*
X105374319Y-68964025D01*
X104358319Y-68335072D02*
X104358319Y-68238311D01*
X104406700Y-68141549D01*
X104455081Y-68093168D01*
X104551843Y-68044787D01*
X104745367Y-67996406D01*
X104987271Y-67996406D01*
X105180795Y-68044787D01*
X105277557Y-68093168D01*
X105325938Y-68141549D01*
X105374319Y-68238311D01*
X105374319Y-68335072D01*
X105325938Y-68431834D01*
X105277557Y-68480215D01*
X105180795Y-68528596D01*
X104987271Y-68576977D01*
X104745367Y-68576977D01*
X104551843Y-68528596D01*
X104455081Y-68480215D01*
X104406700Y-68431834D01*
X104358319Y-68335072D01*
X105374319Y-67028787D02*
X105374319Y-67609358D01*
X105374319Y-67319072D02*
X104358319Y-67319072D01*
X104503462Y-67415834D01*
X104600224Y-67512596D01*
X104648605Y-67609358D01*
X104358319Y-66690120D02*
X104358319Y-66012787D01*
X105374319Y-66448215D01*
X106951538Y-78736975D02*
X106999919Y-78591832D01*
X106999919Y-78349928D01*
X106951538Y-78253166D01*
X106903157Y-78204785D01*
X106806395Y-78156404D01*
X106709633Y-78156404D01*
X106612871Y-78204785D01*
X106564490Y-78253166D01*
X106516110Y-78349928D01*
X106467729Y-78543451D01*
X106419348Y-78640213D01*
X106370967Y-78688594D01*
X106274205Y-78736975D01*
X106177443Y-78736975D01*
X106080681Y-78688594D01*
X106032300Y-78640213D01*
X105983919Y-78543451D01*
X105983919Y-78301547D01*
X106032300Y-78156404D01*
X106951538Y-77333928D02*
X106999919Y-77430690D01*
X106999919Y-77624213D01*
X106951538Y-77720975D01*
X106854776Y-77769356D01*
X106467729Y-77769356D01*
X106370967Y-77720975D01*
X106322586Y-77624213D01*
X106322586Y-77430690D01*
X106370967Y-77333928D01*
X106467729Y-77285547D01*
X106564490Y-77285547D01*
X106661252Y-77769356D01*
X106999919Y-76850118D02*
X106322586Y-76850118D01*
X106516110Y-76850118D02*
X106419348Y-76801737D01*
X106370967Y-76753356D01*
X106322586Y-76656594D01*
X106322586Y-76559833D01*
X106322586Y-75785738D02*
X107145062Y-75785738D01*
X107241824Y-75834119D01*
X107290205Y-75882500D01*
X107338586Y-75979261D01*
X107338586Y-76124404D01*
X107290205Y-76221166D01*
X106951538Y-75785738D02*
X106999919Y-75882500D01*
X106999919Y-76076023D01*
X106951538Y-76172785D01*
X106903157Y-76221166D01*
X106806395Y-76269547D01*
X106516110Y-76269547D01*
X106419348Y-76221166D01*
X106370967Y-76172785D01*
X106322586Y-76076023D01*
X106322586Y-75882500D01*
X106370967Y-75785738D01*
X106951538Y-74914881D02*
X106999919Y-75011643D01*
X106999919Y-75205166D01*
X106951538Y-75301928D01*
X106854776Y-75350309D01*
X106467729Y-75350309D01*
X106370967Y-75301928D01*
X106322586Y-75205166D01*
X106322586Y-75011643D01*
X106370967Y-74914881D01*
X106467729Y-74866500D01*
X106564490Y-74866500D01*
X106661252Y-75350309D01*
X106322586Y-74527833D02*
X106999919Y-74285928D01*
X106322586Y-74044024D02*
X106999919Y-74285928D01*
X107241824Y-74382690D01*
X107290205Y-74431071D01*
X107338586Y-74527833D01*
X106999919Y-72882881D02*
X105983919Y-72882881D01*
X106999919Y-72302310D02*
X106419348Y-72737738D01*
X105983919Y-72302310D02*
X106564490Y-72882881D01*
X106999919Y-71866881D02*
X106322586Y-71866881D01*
X105983919Y-71866881D02*
X106032300Y-71915262D01*
X106080681Y-71866881D01*
X106032300Y-71818500D01*
X105983919Y-71866881D01*
X106080681Y-71866881D01*
X106951538Y-71431452D02*
X106999919Y-71334690D01*
X106999919Y-71141166D01*
X106951538Y-71044405D01*
X106854776Y-70996024D01*
X106806395Y-70996024D01*
X106709633Y-71044405D01*
X106661252Y-71141166D01*
X106661252Y-71286309D01*
X106612871Y-71383071D01*
X106516110Y-71431452D01*
X106467729Y-71431452D01*
X106370967Y-71383071D01*
X106322586Y-71286309D01*
X106322586Y-71141166D01*
X106370967Y-71044405D01*
X106951538Y-70173548D02*
X106999919Y-70270310D01*
X106999919Y-70463833D01*
X106951538Y-70560595D01*
X106854776Y-70608976D01*
X106467729Y-70608976D01*
X106370967Y-70560595D01*
X106322586Y-70463833D01*
X106322586Y-70270310D01*
X106370967Y-70173548D01*
X106467729Y-70125167D01*
X106564490Y-70125167D01*
X106661252Y-70608976D01*
X106999919Y-69544595D02*
X106951538Y-69641357D01*
X106854776Y-69689738D01*
X105983919Y-69689738D01*
X106951538Y-68770501D02*
X106999919Y-68867263D01*
X106999919Y-69060786D01*
X106951538Y-69157548D01*
X106854776Y-69205929D01*
X106467729Y-69205929D01*
X106370967Y-69157548D01*
X106322586Y-69060786D01*
X106322586Y-68867263D01*
X106370967Y-68770501D01*
X106467729Y-68722120D01*
X106564490Y-68722120D01*
X106661252Y-69205929D01*
X106322586Y-68383453D02*
X106999919Y-68141548D01*
X106322586Y-67899644D01*
D15*
X201349429Y-110961715D02*
X199825429Y-110961715D01*
X200914000Y-110453715D01*
X199825429Y-109945715D01*
X201349429Y-109945715D01*
X201349429Y-109220001D02*
X200333429Y-109220001D01*
X199825429Y-109220001D02*
X199898000Y-109292572D01*
X199970571Y-109220001D01*
X199898000Y-109147429D01*
X199825429Y-109220001D01*
X199970571Y-109220001D01*
X200333429Y-108494287D02*
X201349429Y-108494287D01*
X200478571Y-108494287D02*
X200406000Y-108421715D01*
X200333429Y-108276573D01*
X200333429Y-108058858D01*
X200406000Y-107913715D01*
X200551143Y-107841144D01*
X201349429Y-107841144D01*
X201349429Y-107115430D02*
X200333429Y-107115430D01*
X199825429Y-107115430D02*
X199898000Y-107188001D01*
X199970571Y-107115430D01*
X199898000Y-107042858D01*
X199825429Y-107115430D01*
X199970571Y-107115430D01*
X201349429Y-106389716D02*
X199825429Y-106389716D01*
X200914000Y-105881716D01*
X199825429Y-105373716D01*
X201349429Y-105373716D01*
X201349429Y-103994859D02*
X200551143Y-103994859D01*
X200406000Y-104067430D01*
X200333429Y-104212573D01*
X200333429Y-104502859D01*
X200406000Y-104648002D01*
X201276857Y-103994859D02*
X201349429Y-104140002D01*
X201349429Y-104502859D01*
X201276857Y-104648002D01*
X201131714Y-104720573D01*
X200986571Y-104720573D01*
X200841429Y-104648002D01*
X200768857Y-104502859D01*
X200768857Y-104140002D01*
X200696286Y-103994859D01*
X201349429Y-103414288D02*
X200333429Y-102616002D01*
X200333429Y-103414288D02*
X201349429Y-102616002D01*
X200478571Y-100656574D02*
X200406000Y-100801716D01*
X200333429Y-100874288D01*
X200188286Y-100946859D01*
X200115714Y-100946859D01*
X199970571Y-100874288D01*
X199898000Y-100801716D01*
X199825429Y-100656574D01*
X199825429Y-100366288D01*
X199898000Y-100221145D01*
X199970571Y-100148574D01*
X200115714Y-100076002D01*
X200188286Y-100076002D01*
X200333429Y-100148574D01*
X200406000Y-100221145D01*
X200478571Y-100366288D01*
X200478571Y-100656574D01*
X200551143Y-100801716D01*
X200623714Y-100874288D01*
X200768857Y-100946859D01*
X201059143Y-100946859D01*
X201204286Y-100874288D01*
X201276857Y-100801716D01*
X201349429Y-100656574D01*
X201349429Y-100366288D01*
X201276857Y-100221145D01*
X201204286Y-100148574D01*
X201059143Y-100076002D01*
X200768857Y-100076002D01*
X200623714Y-100148574D01*
X200551143Y-100221145D01*
X200478571Y-100366288D01*
X199825429Y-99132573D02*
X199825429Y-98987430D01*
X199898000Y-98842287D01*
X199970571Y-98769716D01*
X200115714Y-98697145D01*
X200406000Y-98624573D01*
X200768857Y-98624573D01*
X201059143Y-98697145D01*
X201204286Y-98769716D01*
X201276857Y-98842287D01*
X201349429Y-98987430D01*
X201349429Y-99132573D01*
X201276857Y-99277716D01*
X201204286Y-99350287D01*
X201059143Y-99422859D01*
X200768857Y-99495430D01*
X200406000Y-99495430D01*
X200115714Y-99422859D01*
X199970571Y-99350287D01*
X199898000Y-99277716D01*
X199825429Y-99132573D01*
X200478571Y-97753716D02*
X200406000Y-97898858D01*
X200333429Y-97971430D01*
X200188286Y-98044001D01*
X200115714Y-98044001D01*
X199970571Y-97971430D01*
X199898000Y-97898858D01*
X199825429Y-97753716D01*
X199825429Y-97463430D01*
X199898000Y-97318287D01*
X199970571Y-97245716D01*
X200115714Y-97173144D01*
X200188286Y-97173144D01*
X200333429Y-97245716D01*
X200406000Y-97318287D01*
X200478571Y-97463430D01*
X200478571Y-97753716D01*
X200551143Y-97898858D01*
X200623714Y-97971430D01*
X200768857Y-98044001D01*
X201059143Y-98044001D01*
X201204286Y-97971430D01*
X201276857Y-97898858D01*
X201349429Y-97753716D01*
X201349429Y-97463430D01*
X201276857Y-97318287D01*
X201204286Y-97245716D01*
X201059143Y-97173144D01*
X200768857Y-97173144D01*
X200623714Y-97245716D01*
X200551143Y-97318287D01*
X200478571Y-97463430D01*
X199825429Y-95794287D02*
X199825429Y-96520001D01*
X200551143Y-96592572D01*
X200478571Y-96520001D01*
X200406000Y-96374858D01*
X200406000Y-96012001D01*
X200478571Y-95866858D01*
X200551143Y-95794287D01*
X200696286Y-95721715D01*
X201059143Y-95721715D01*
X201204286Y-95794287D01*
X201276857Y-95866858D01*
X201349429Y-96012001D01*
X201349429Y-96374858D01*
X201276857Y-96520001D01*
X201204286Y-96592572D01*
X199825429Y-94125143D02*
X201349429Y-93617143D01*
X199825429Y-93109143D01*
X201349429Y-91802857D02*
X201349429Y-92673714D01*
X201349429Y-92238286D02*
X199825429Y-92238286D01*
X200043143Y-92383429D01*
X200188286Y-92528571D01*
X200260857Y-92673714D01*
X201204286Y-91149714D02*
X201276857Y-91077142D01*
X201349429Y-91149714D01*
X201276857Y-91222285D01*
X201204286Y-91149714D01*
X201349429Y-91149714D01*
X199825429Y-90133714D02*
X199825429Y-89988571D01*
X199898000Y-89843428D01*
X199970571Y-89770857D01*
X200115714Y-89698286D01*
X200406000Y-89625714D01*
X200768857Y-89625714D01*
X201059143Y-89698286D01*
X201204286Y-89770857D01*
X201276857Y-89843428D01*
X201349429Y-89988571D01*
X201349429Y-90133714D01*
X201276857Y-90278857D01*
X201204286Y-90351428D01*
X201059143Y-90424000D01*
X200768857Y-90496571D01*
X200406000Y-90496571D01*
X200115714Y-90424000D01*
X199970571Y-90351428D01*
X199898000Y-90278857D01*
X199825429Y-90133714D01*
D11*
X105727500Y-83820000D02*
X106997500Y-82550000D01*
X105092500Y-85725000D02*
X106362500Y-84455000D01*
X105727500Y-84455000D02*
X106997500Y-84455000D01*
X105092500Y-83820000D02*
X106362500Y-83820000D01*
X104457500Y-85725000D02*
X105727500Y-85725000D01*
X106997500Y-86995000D02*
X106997500Y-88265000D01*
X105727500Y-85725000D02*
X106997500Y-86995000D01*
X106997500Y-84455000D02*
X105727500Y-85725000D01*
X106362500Y-83820000D02*
X106997500Y-84455000D01*
X106997500Y-83185000D02*
X106362500Y-83820000D01*
X106997500Y-81915000D02*
X106997500Y-83185000D01*
X105092500Y-83820000D02*
X106997500Y-81915000D01*
X105727500Y-84455000D02*
X105092500Y-83820000D01*
X104457500Y-85725000D02*
X105727500Y-84455000D01*
X106997500Y-88265000D02*
X104457500Y-85725000D01*
D16*
X115316000Y-121158000D02*
X115316000Y-120142000D01*
X108712000Y-121666000D02*
X114808000Y-121666000D01*
X108712000Y-119634000D02*
X114808000Y-119634000D01*
X114808000Y-121666000D02*
G75*
G03X115316000Y-121158000I0J508000D01*
G01*
X115316000Y-120142000D02*
G75*
G03X114808000Y-119634000I-508000J0D01*
G01*
X108204000Y-121158000D02*
G75*
G03X108712000Y-121666000I508000J0D01*
G01*
X108712000Y-119634000D02*
G75*
G03X108204000Y-120142000I0J-508000D01*
G01*
X108204000Y-121158000D02*
X108204000Y-120142000D01*
X188976000Y-121158000D02*
X188976000Y-120142000D01*
X182372000Y-121666000D02*
X188468000Y-121666000D01*
X182372000Y-119634000D02*
X188468000Y-119634000D01*
X188468000Y-121666000D02*
G75*
G03X188976000Y-121158000I0J508000D01*
G01*
X188976000Y-120142000D02*
G75*
G03X188468000Y-119634000I-508000J0D01*
G01*
X181864000Y-121158000D02*
G75*
G03X182372000Y-121666000I508000J0D01*
G01*
X182372000Y-119634000D02*
G75*
G03X181864000Y-120142000I0J-508000D01*
G01*
X181864000Y-121158000D02*
X181864000Y-120142000D01*
X168656000Y-121158000D02*
X168656000Y-120142000D01*
X162052000Y-121666000D02*
X168148000Y-121666000D01*
X162052000Y-119634000D02*
X168148000Y-119634000D01*
X168148000Y-121666000D02*
G75*
G03X168656000Y-121158000I0J508000D01*
G01*
X168656000Y-120142000D02*
G75*
G03X168148000Y-119634000I-508000J0D01*
G01*
X161544000Y-121158000D02*
G75*
G03X162052000Y-121666000I508000J0D01*
G01*
X162052000Y-119634000D02*
G75*
G03X161544000Y-120142000I0J-508000D01*
G01*
X161544000Y-121158000D02*
X161544000Y-120142000D01*
X148336000Y-121158000D02*
X148336000Y-120142000D01*
X141732000Y-121666000D02*
X147828000Y-121666000D01*
X141732000Y-119634000D02*
X147828000Y-119634000D01*
X147828000Y-121666000D02*
G75*
G03X148336000Y-121158000I0J508000D01*
G01*
X148336000Y-120142000D02*
G75*
G03X147828000Y-119634000I-508000J0D01*
G01*
X141224000Y-121158000D02*
G75*
G03X141732000Y-121666000I508000J0D01*
G01*
X141732000Y-119634000D02*
G75*
G03X141224000Y-120142000I0J-508000D01*
G01*
X141224000Y-121158000D02*
X141224000Y-120142000D01*
X135636000Y-126238000D02*
X135636000Y-125222000D01*
X129032000Y-126746000D02*
X135128000Y-126746000D01*
X129032000Y-124714000D02*
X135128000Y-124714000D01*
X135128000Y-126746000D02*
G75*
G03X135636000Y-126238000I0J508000D01*
G01*
X135636000Y-125222000D02*
G75*
G03X135128000Y-124714000I-508000J0D01*
G01*
X128524000Y-126238000D02*
G75*
G03X129032000Y-126746000I508000J0D01*
G01*
X129032000Y-124714000D02*
G75*
G03X128524000Y-125222000I0J-508000D01*
G01*
X128524000Y-126238000D02*
X128524000Y-125222000D01*
X135636000Y-94488000D02*
X135636000Y-93472000D01*
X129032000Y-94996000D02*
X135128000Y-94996000D01*
X129032000Y-92964000D02*
X135128000Y-92964000D01*
X135128000Y-94996000D02*
G75*
G03X135636000Y-94488000I0J508000D01*
G01*
X135636000Y-93472000D02*
G75*
G03X135128000Y-92964000I-508000J0D01*
G01*
X128524000Y-94488000D02*
G75*
G03X129032000Y-94996000I508000J0D01*
G01*
X129032000Y-92964000D02*
G75*
G03X128524000Y-93472000I0J-508000D01*
G01*
X128524000Y-94488000D02*
X128524000Y-93472000D01*
X163830000Y-71120000D02*
X166370000Y-71120000D01*
X166370000Y-73660000D02*
X163830000Y-73660000D01*
X163830000Y-73660000D02*
X163830000Y-71120000D01*
X164465000Y-71120000D02*
X163830000Y-70485000D01*
X163830000Y-70485000D02*
X163830000Y-69215000D01*
X163830000Y-69215000D02*
X164465000Y-68580000D01*
X164465000Y-68580000D02*
X163830000Y-67945000D01*
X163830000Y-67945000D02*
X163830000Y-66675000D01*
X163830000Y-66675000D02*
X164465000Y-66040000D01*
X164465000Y-66040000D02*
X165735000Y-66040000D01*
X165735000Y-66040000D02*
X166370000Y-66675000D01*
X166370000Y-66675000D02*
X166370000Y-67945000D01*
X166370000Y-67945000D02*
X165735000Y-68580000D01*
X165735000Y-68580000D02*
X166370000Y-69215000D01*
X166370000Y-69215000D02*
X166370000Y-70485000D01*
X166370000Y-70485000D02*
X165735000Y-71120000D01*
X166370000Y-71120000D02*
X166370000Y-73660000D01*
X166370000Y-73660000D02*
X168910000Y-73660000D01*
X168910000Y-76200000D02*
X166370000Y-76200000D01*
X166370000Y-76200000D02*
X166370000Y-73660000D01*
X167005000Y-73660000D02*
X166370000Y-73025000D01*
X166370000Y-73025000D02*
X166370000Y-71755000D01*
X166370000Y-71755000D02*
X167005000Y-71120000D01*
X167005000Y-71120000D02*
X166370000Y-70485000D01*
X166370000Y-70485000D02*
X166370000Y-69215000D01*
X166370000Y-69215000D02*
X167005000Y-68580000D01*
X167005000Y-68580000D02*
X168275000Y-68580000D01*
X168275000Y-68580000D02*
X168910000Y-69215000D01*
X168910000Y-69215000D02*
X168910000Y-70485000D01*
X168910000Y-70485000D02*
X168275000Y-71120000D01*
X168275000Y-71120000D02*
X168910000Y-71755000D01*
X168910000Y-71755000D02*
X168910000Y-73025000D01*
X168910000Y-73025000D02*
X168275000Y-73660000D01*
X168910000Y-73660000D02*
X168910000Y-76200000D01*
X125730000Y-114300000D02*
X128270000Y-114300000D01*
X128270000Y-116840000D02*
X125730000Y-116840000D01*
X125730000Y-116840000D02*
X125730000Y-114300000D01*
X126365000Y-114300000D02*
X125730000Y-113665000D01*
X125730000Y-113665000D02*
X125730000Y-112395000D01*
X125730000Y-112395000D02*
X126365000Y-111760000D01*
X126365000Y-111760000D02*
X125730000Y-111125000D01*
X125730000Y-111125000D02*
X125730000Y-109855000D01*
X125730000Y-109855000D02*
X126365000Y-109220000D01*
X126365000Y-109220000D02*
X127635000Y-109220000D01*
X127635000Y-109220000D02*
X128270000Y-109855000D01*
X128270000Y-109855000D02*
X128270000Y-111125000D01*
X128270000Y-111125000D02*
X127635000Y-111760000D01*
X127635000Y-111760000D02*
X128270000Y-112395000D01*
X128270000Y-112395000D02*
X128270000Y-113665000D01*
X128270000Y-113665000D02*
X127635000Y-114300000D01*
X128270000Y-114300000D02*
X128270000Y-116840000D01*
X151820880Y-51043840D02*
X142819120Y-51043840D01*
X151820880Y-47546260D02*
X151820880Y-62044580D01*
X151820880Y-62044580D02*
X142819120Y-62044580D01*
X142819120Y-62044580D02*
X142819120Y-47546260D01*
X142819120Y-47546260D02*
X151820880Y-47546260D01*
X105410000Y-114300000D02*
X107950000Y-114300000D01*
X107950000Y-116840000D02*
X105410000Y-116840000D01*
X105410000Y-116840000D02*
X105410000Y-114300000D01*
X106045000Y-114300000D02*
X105410000Y-113665000D01*
X105410000Y-113665000D02*
X105410000Y-112395000D01*
X105410000Y-112395000D02*
X106045000Y-111760000D01*
X106045000Y-111760000D02*
X105410000Y-111125000D01*
X105410000Y-111125000D02*
X105410000Y-109855000D01*
X105410000Y-109855000D02*
X106045000Y-109220000D01*
X106045000Y-109220000D02*
X107315000Y-109220000D01*
X107315000Y-109220000D02*
X107950000Y-109855000D01*
X107950000Y-109855000D02*
X107950000Y-111125000D01*
X107950000Y-111125000D02*
X107315000Y-111760000D01*
X107315000Y-111760000D02*
X107950000Y-112395000D01*
X107950000Y-112395000D02*
X107950000Y-113665000D01*
X107950000Y-113665000D02*
X107315000Y-114300000D01*
X107950000Y-114300000D02*
X107950000Y-116840000D01*
X182245000Y-129540000D02*
X183515000Y-129540000D01*
X183515000Y-129540000D02*
X184150000Y-128905000D01*
X184150000Y-128905000D02*
X184785000Y-129540000D01*
X184785000Y-129540000D02*
X186055000Y-129540000D01*
X186055000Y-129540000D02*
X186690000Y-128905000D01*
X186690000Y-128905000D02*
X187325000Y-129540000D01*
X187325000Y-129540000D02*
X188595000Y-129540000D01*
X188595000Y-129540000D02*
X189230000Y-128905000D01*
X189230000Y-128905000D02*
X189865000Y-129540000D01*
X182245000Y-124460000D02*
X183515000Y-124460000D01*
X183515000Y-124460000D02*
X184150000Y-125095000D01*
X184150000Y-125095000D02*
X184785000Y-124460000D01*
X184785000Y-124460000D02*
X186055000Y-124460000D01*
X186055000Y-124460000D02*
X186690000Y-125095000D01*
X186690000Y-125095000D02*
X187325000Y-124460000D01*
X187325000Y-124460000D02*
X188595000Y-124460000D01*
X188595000Y-124460000D02*
X189230000Y-125095000D01*
X189230000Y-125095000D02*
X189865000Y-124460000D01*
X151130000Y-128905000D02*
X150495000Y-129540000D01*
X150495000Y-129540000D02*
X149225000Y-129540000D01*
X149225000Y-129540000D02*
X148590000Y-128905000D01*
X148590000Y-128905000D02*
X147955000Y-129540000D01*
X147955000Y-129540000D02*
X146685000Y-129540000D01*
X146685000Y-129540000D02*
X146050000Y-128905000D01*
X146050000Y-128905000D02*
X145415000Y-129540000D01*
X145415000Y-129540000D02*
X144145000Y-129540000D01*
X144145000Y-129540000D02*
X143510000Y-128905000D01*
X182245000Y-129540000D02*
X181610000Y-128905000D01*
X181610000Y-128905000D02*
X180975000Y-129540000D01*
X180975000Y-129540000D02*
X179705000Y-129540000D01*
X179705000Y-129540000D02*
X179070000Y-128905000D01*
X179070000Y-128905000D02*
X178435000Y-129540000D01*
X178435000Y-129540000D02*
X177165000Y-129540000D01*
X177165000Y-129540000D02*
X176530000Y-128905000D01*
X176530000Y-128905000D02*
X175895000Y-129540000D01*
X175895000Y-129540000D02*
X174625000Y-129540000D01*
X174625000Y-129540000D02*
X173990000Y-128905000D01*
X173990000Y-128905000D02*
X173355000Y-129540000D01*
X173355000Y-129540000D02*
X172085000Y-129540000D01*
X172085000Y-129540000D02*
X171450000Y-128905000D01*
X171450000Y-128905000D02*
X170815000Y-129540000D01*
X170815000Y-129540000D02*
X169545000Y-129540000D01*
X169545000Y-129540000D02*
X168910000Y-128905000D01*
X168910000Y-128905000D02*
X168275000Y-129540000D01*
X168275000Y-129540000D02*
X167005000Y-129540000D01*
X167005000Y-129540000D02*
X166370000Y-128905000D01*
X166370000Y-128905000D02*
X165735000Y-129540000D01*
X165735000Y-129540000D02*
X164465000Y-129540000D01*
X164465000Y-129540000D02*
X163830000Y-128905000D01*
X163830000Y-128905000D02*
X163195000Y-129540000D01*
X163195000Y-129540000D02*
X161925000Y-129540000D01*
X161925000Y-129540000D02*
X161290000Y-128905000D01*
X161290000Y-128905000D02*
X160655000Y-129540000D01*
X160655000Y-129540000D02*
X159385000Y-129540000D01*
X159385000Y-129540000D02*
X158750000Y-128905000D01*
X158750000Y-128905000D02*
X158115000Y-129540000D01*
X158115000Y-129540000D02*
X156845000Y-129540000D01*
X156845000Y-129540000D02*
X156210000Y-128905000D01*
X156210000Y-128905000D02*
X155575000Y-129540000D01*
X155575000Y-129540000D02*
X154305000Y-129540000D01*
X154305000Y-129540000D02*
X153670000Y-128905000D01*
X153670000Y-128905000D02*
X153035000Y-129540000D01*
X153035000Y-129540000D02*
X151765000Y-129540000D01*
X151765000Y-129540000D02*
X151130000Y-128905000D01*
X191135000Y-124460000D02*
X191770000Y-125095000D01*
X191770000Y-125095000D02*
X191770000Y-126365000D01*
X191770000Y-126365000D02*
X191135000Y-127000000D01*
X191135000Y-127000000D02*
X191770000Y-127635000D01*
X191770000Y-127635000D02*
X191770000Y-128905000D01*
X191770000Y-128905000D02*
X191135000Y-129540000D01*
X191135000Y-129540000D02*
X189865000Y-129540000D01*
X141605000Y-127000000D02*
X140970000Y-126365000D01*
X140970000Y-126365000D02*
X140970000Y-125095000D01*
X140970000Y-125095000D02*
X141605000Y-124460000D01*
X141605000Y-124460000D02*
X142875000Y-124460000D01*
X142875000Y-124460000D02*
X143510000Y-125095000D01*
X143510000Y-125095000D02*
X144145000Y-124460000D01*
X144145000Y-124460000D02*
X145415000Y-124460000D01*
X145415000Y-124460000D02*
X146050000Y-125095000D01*
X146050000Y-125095000D02*
X146685000Y-124460000D01*
X146685000Y-124460000D02*
X147955000Y-124460000D01*
X147955000Y-124460000D02*
X148590000Y-125095000D01*
X148590000Y-125095000D02*
X149225000Y-124460000D01*
X149225000Y-124460000D02*
X150495000Y-124460000D01*
X150495000Y-124460000D02*
X151130000Y-125095000D01*
X151130000Y-125095000D02*
X151765000Y-124460000D01*
X151765000Y-124460000D02*
X153035000Y-124460000D01*
X153035000Y-124460000D02*
X153670000Y-125095000D01*
X153670000Y-125095000D02*
X154305000Y-124460000D01*
X154305000Y-124460000D02*
X155575000Y-124460000D01*
X155575000Y-124460000D02*
X156210000Y-125095000D01*
X156210000Y-125095000D02*
X156845000Y-124460000D01*
X156845000Y-124460000D02*
X158115000Y-124460000D01*
X158115000Y-124460000D02*
X158750000Y-125095000D01*
X158750000Y-125095000D02*
X159385000Y-124460000D01*
X159385000Y-124460000D02*
X160655000Y-124460000D01*
X160655000Y-124460000D02*
X161290000Y-125095000D01*
X161290000Y-125095000D02*
X161925000Y-124460000D01*
X161925000Y-124460000D02*
X163195000Y-124460000D01*
X163195000Y-124460000D02*
X163830000Y-125095000D01*
X163830000Y-125095000D02*
X164465000Y-124460000D01*
X164465000Y-124460000D02*
X165735000Y-124460000D01*
X165735000Y-124460000D02*
X166370000Y-125095000D01*
X166370000Y-125095000D02*
X167005000Y-124460000D01*
X167005000Y-124460000D02*
X168275000Y-124460000D01*
X168275000Y-124460000D02*
X168910000Y-125095000D01*
X168910000Y-125095000D02*
X169545000Y-124460000D01*
X169545000Y-124460000D02*
X170815000Y-124460000D01*
X170815000Y-124460000D02*
X171450000Y-125095000D01*
X171450000Y-125095000D02*
X172085000Y-124460000D01*
X172085000Y-124460000D02*
X173355000Y-124460000D01*
X173355000Y-124460000D02*
X173990000Y-125095000D01*
X173990000Y-125095000D02*
X174625000Y-124460000D01*
X174625000Y-124460000D02*
X175895000Y-124460000D01*
X175895000Y-124460000D02*
X176530000Y-125095000D01*
X176530000Y-125095000D02*
X177165000Y-124460000D01*
X177165000Y-124460000D02*
X178435000Y-124460000D01*
X178435000Y-124460000D02*
X179070000Y-125095000D01*
X179070000Y-125095000D02*
X179705000Y-124460000D01*
X179705000Y-124460000D02*
X180975000Y-124460000D01*
X180975000Y-124460000D02*
X181610000Y-125095000D01*
X181610000Y-125095000D02*
X182245000Y-124460000D01*
X189865000Y-124460000D02*
X191135000Y-124460000D01*
X143510000Y-127000000D02*
X143510000Y-129540000D01*
X143510000Y-129540000D02*
X140970000Y-129540000D01*
X140970000Y-129540000D02*
X140970000Y-127000000D01*
X140970000Y-127000000D02*
X143510000Y-127000000D01*
X117856000Y-54610000D02*
X117856000Y-59690000D01*
X116078000Y-54356000D02*
X117602000Y-54356000D01*
X115824000Y-59690000D02*
X115824000Y-54610000D01*
X117602000Y-59944000D02*
X116078000Y-59944000D01*
X117856000Y-54610000D02*
G75*
G03X117602000Y-54356000I-254000J0D01*
G01*
X116078000Y-54356000D02*
G75*
G03X115824000Y-54610000I0J-254000D01*
G01*
X117602000Y-59944000D02*
G75*
G03X117856000Y-59690000I0J254000D01*
G01*
X115824000Y-59690000D02*
G75*
G03X116078000Y-59944000I254000J0D01*
G01*
X116840000Y-54356000D02*
X116840000Y-53340000D01*
X116840000Y-60960000D02*
X116840000Y-59944000D01*
X121920000Y-59309000D02*
X127000000Y-59309000D01*
X121666000Y-61087000D02*
X121666000Y-59563000D01*
X127000000Y-61341000D02*
X121920000Y-61341000D01*
X127254000Y-59563000D02*
X127254000Y-61087000D01*
X121920000Y-59309000D02*
G75*
G03X121666000Y-59563000I0J-254000D01*
G01*
X121666000Y-61087000D02*
G75*
G03X121920000Y-61341000I254000J0D01*
G01*
X127254000Y-59563000D02*
G75*
G03X127000000Y-59309000I-254000J0D01*
G01*
X127000000Y-61341000D02*
G75*
G03X127254000Y-61087000I0J254000D01*
G01*
X121666000Y-60325000D02*
X120650000Y-60325000D01*
X128270000Y-60325000D02*
X127254000Y-60325000D01*
X120959880Y-53530500D02*
X127960120Y-53530500D01*
X122709940Y-51031140D02*
X126210060Y-51031140D01*
X127960120Y-51031140D02*
X127960120Y-57279540D01*
X120959880Y-51031140D02*
X120959880Y-57279540D01*
X127210820Y-51031140D02*
X127960120Y-51031140D01*
X121709180Y-51031140D02*
X120959880Y-51031140D01*
X126210060Y-51031140D02*
X127210820Y-51031140D01*
X122709940Y-51031140D02*
X121709180Y-51031140D01*
X126210060Y-51031140D02*
X126210060Y-49530000D01*
X126210060Y-49530000D02*
X125961140Y-49530000D01*
X122709940Y-49530000D02*
X122709940Y-51031140D01*
X122709940Y-49530000D02*
X125961140Y-49530000D01*
X117856000Y-118110000D02*
G75*
G03X116840000Y-117094000I-1016000J0D01*
G01*
X116840000Y-117094000D02*
G75*
G03X115824000Y-118110000I0J-1016000D01*
G01*
X110490000Y-118110000D02*
X110490000Y-64770000D01*
X110490000Y-64770000D02*
X123190000Y-64770000D01*
X123190000Y-64770000D02*
X123190000Y-118110000D01*
X123190000Y-118110000D02*
X110490000Y-118110000D01*
X191516000Y-118872000D02*
G75*
G03X190500000Y-117856000I-1016000J0D01*
G01*
X190500000Y-117856000D02*
G75*
G03X189484000Y-118872000I0J-1016000D01*
G01*
X184150000Y-118872000D02*
X184150000Y-79248000D01*
X184150000Y-79248000D02*
X196850000Y-79248000D01*
X196850000Y-79248000D02*
X196850000Y-118872000D01*
X196850000Y-118872000D02*
X184150000Y-118872000D01*
X171196000Y-118872000D02*
G75*
G03X170180000Y-117856000I-1016000J0D01*
G01*
X170180000Y-117856000D02*
G75*
G03X169164000Y-118872000I0J-1016000D01*
G01*
X163830000Y-118872000D02*
X163830000Y-79248000D01*
X163830000Y-79248000D02*
X176530000Y-79248000D01*
X176530000Y-79248000D02*
X176530000Y-118872000D01*
X176530000Y-118872000D02*
X163830000Y-118872000D01*
X134366000Y-123952000D02*
G75*
G03X133350000Y-122936000I-1016000J0D01*
G01*
X133350000Y-122936000D02*
G75*
G03X132334000Y-123952000I0J-1016000D01*
G01*
X130810000Y-123952000D02*
X130810000Y-97028000D01*
X130810000Y-97028000D02*
X135890000Y-97028000D01*
X135890000Y-97028000D02*
X135890000Y-123952000D01*
X135890000Y-123952000D02*
X130810000Y-123952000D01*
X134366000Y-92202000D02*
G75*
G03X133350000Y-91186000I-1016000J0D01*
G01*
X133350000Y-91186000D02*
G75*
G03X132334000Y-92202000I0J-1016000D01*
G01*
X130810000Y-92202000D02*
X130810000Y-65278000D01*
X130810000Y-65278000D02*
X135890000Y-65278000D01*
X135890000Y-65278000D02*
X135890000Y-92202000D01*
X135890000Y-92202000D02*
X130810000Y-92202000D01*
X125349000Y-119507000D02*
X118491000Y-119507000D01*
X118491000Y-124333000D02*
X125349000Y-124333000D01*
X118491000Y-119507000D02*
G75*
G03X116078000Y-121920000I0J-2413000D01*
G01*
X116078000Y-121920000D02*
G75*
G03X118491000Y-124333000I2413000J0D01*
G01*
X125349000Y-124333000D02*
G75*
G03X127762000Y-121920000I0J2413000D01*
G01*
X127762000Y-121920000D02*
G75*
G03X125349000Y-119507000I-2413000J0D01*
G01*
X107950000Y-106680000D02*
X105410000Y-106680000D01*
X105410000Y-106680000D02*
X105410000Y-91440000D01*
X105410000Y-91440000D02*
X107950000Y-91440000D01*
X107950000Y-91440000D02*
X107950000Y-106680000D01*
X107950000Y-104140000D02*
X105410000Y-104140000D01*
X128270000Y-106680000D02*
X125730000Y-106680000D01*
X125730000Y-106680000D02*
X125730000Y-91440000D01*
X125730000Y-91440000D02*
X128270000Y-91440000D01*
X128270000Y-91440000D02*
X128270000Y-106680000D01*
X128270000Y-104140000D02*
X125730000Y-104140000D01*
X199136000Y-77978000D02*
X199136000Y-76962000D01*
X192532000Y-78486000D02*
X198628000Y-78486000D01*
X192532000Y-76454000D02*
X198628000Y-76454000D01*
X198628000Y-78486000D02*
G75*
G03X199136000Y-77978000I0J508000D01*
G01*
X199136000Y-76962000D02*
G75*
G03X198628000Y-76454000I-508000J0D01*
G01*
X192024000Y-77978000D02*
G75*
G03X192532000Y-78486000I508000J0D01*
G01*
X192532000Y-76454000D02*
G75*
G03X192024000Y-76962000I0J-508000D01*
G01*
X192024000Y-77978000D02*
X192024000Y-76962000D01*
X114173000Y-53594000D02*
X113157000Y-53594000D01*
X114681000Y-60198000D02*
X114681000Y-54102000D01*
X112649000Y-60198000D02*
X112649000Y-54102000D01*
X114681000Y-54102000D02*
G75*
G03X114173000Y-53594000I-508000J0D01*
G01*
X113157000Y-53594000D02*
G75*
G03X112649000Y-54102000I0J-508000D01*
G01*
X114173000Y-60706000D02*
G75*
G03X114681000Y-60198000I0J508000D01*
G01*
X112649000Y-60198000D02*
G75*
G03X113157000Y-60706000I508000J0D01*
G01*
X114173000Y-60706000D02*
X113157000Y-60706000D01*
X142113000Y-66294000D02*
X141097000Y-66294000D01*
X142621000Y-72898000D02*
X142621000Y-66802000D01*
X140589000Y-72898000D02*
X140589000Y-66802000D01*
X142621000Y-66802000D02*
G75*
G03X142113000Y-66294000I-508000J0D01*
G01*
X141097000Y-66294000D02*
G75*
G03X140589000Y-66802000I0J-508000D01*
G01*
X142113000Y-73406000D02*
G75*
G03X142621000Y-72898000I0J508000D01*
G01*
X140589000Y-72898000D02*
G75*
G03X141097000Y-73406000I508000J0D01*
G01*
X142113000Y-73406000D02*
X141097000Y-73406000D01*
X128016000Y-126238000D02*
X128016000Y-125222000D01*
X121412000Y-126746000D02*
X127508000Y-126746000D01*
X121412000Y-124714000D02*
X127508000Y-124714000D01*
X127508000Y-126746000D02*
G75*
G03X128016000Y-126238000I0J508000D01*
G01*
X128016000Y-125222000D02*
G75*
G03X127508000Y-124714000I-508000J0D01*
G01*
X120904000Y-126238000D02*
G75*
G03X121412000Y-126746000I508000J0D01*
G01*
X121412000Y-124714000D02*
G75*
G03X120904000Y-125222000I0J-508000D01*
G01*
X120904000Y-126238000D02*
X120904000Y-125222000D01*
X113284000Y-125222000D02*
X113284000Y-126238000D01*
X119888000Y-124714000D02*
X113792000Y-124714000D01*
X119888000Y-126746000D02*
X113792000Y-126746000D01*
X113792000Y-124714000D02*
G75*
G03X113284000Y-125222000I0J-508000D01*
G01*
X113284000Y-126238000D02*
G75*
G03X113792000Y-126746000I508000J0D01*
G01*
X120396000Y-125222000D02*
G75*
G03X119888000Y-124714000I-508000J0D01*
G01*
X119888000Y-126746000D02*
G75*
G03X120396000Y-126238000I0J508000D01*
G01*
X120396000Y-125222000D02*
X120396000Y-126238000D01*
X131064000Y-59690000D02*
X131064000Y-54610000D01*
X132842000Y-59944000D02*
X131318000Y-59944000D01*
X133096000Y-54610000D02*
X133096000Y-59690000D01*
X131318000Y-54356000D02*
X132842000Y-54356000D01*
X131064000Y-59690000D02*
G75*
G03X131318000Y-59944000I254000J0D01*
G01*
X132842000Y-59944000D02*
G75*
G03X133096000Y-59690000I0J254000D01*
G01*
X131318000Y-54356000D02*
G75*
G03X131064000Y-54610000I0J-254000D01*
G01*
X133096000Y-54610000D02*
G75*
G03X132842000Y-54356000I-254000J0D01*
G01*
X132080000Y-59944000D02*
X132080000Y-60960000D01*
X132080000Y-53340000D02*
X132080000Y-54356000D01*
X178562000Y-72136000D02*
G75*
G03X179578000Y-71120000I0J1016000D01*
G01*
X179578000Y-71120000D02*
G75*
G03X178562000Y-70104000I-1016000J0D01*
G01*
X178562000Y-68580000D02*
X199898000Y-68580000D01*
X199898000Y-68580000D02*
X199898000Y-73660000D01*
X199898000Y-73660000D02*
X178562000Y-73660000D01*
X178562000Y-73660000D02*
X178562000Y-68580000D01*
X151130000Y-72136000D02*
G75*
G03X152146000Y-71120000I0J1016000D01*
G01*
X152146000Y-71120000D02*
G75*
G03X151130000Y-70104000I-1016000J0D01*
G01*
X151130000Y-73660000D02*
X151130000Y-68580000D01*
X151130000Y-68580000D02*
X161290000Y-68580000D01*
X161290000Y-68580000D02*
X161290000Y-73660000D01*
X161290000Y-73660000D02*
X151130000Y-73660000D01*
X177038000Y-67564000D02*
X176022000Y-67564000D01*
X177546000Y-74168000D02*
X177546000Y-68072000D01*
X175514000Y-74168000D02*
X175514000Y-68072000D01*
X177546000Y-68072000D02*
G75*
G03X177038000Y-67564000I-508000J0D01*
G01*
X176022000Y-67564000D02*
G75*
G03X175514000Y-68072000I0J-508000D01*
G01*
X177038000Y-74676000D02*
G75*
G03X177546000Y-74168000I0J508000D01*
G01*
X175514000Y-74168000D02*
G75*
G03X176022000Y-74676000I508000J0D01*
G01*
X177038000Y-74676000D02*
X176022000Y-74676000D01*
X183896000Y-77978000D02*
X183896000Y-76962000D01*
X177292000Y-78486000D02*
X183388000Y-78486000D01*
X177292000Y-76454000D02*
X183388000Y-76454000D01*
X183388000Y-78486000D02*
G75*
G03X183896000Y-77978000I0J508000D01*
G01*
X183896000Y-76962000D02*
G75*
G03X183388000Y-76454000I-508000J0D01*
G01*
X176784000Y-77978000D02*
G75*
G03X177292000Y-78486000I508000J0D01*
G01*
X177292000Y-76454000D02*
G75*
G03X176784000Y-76962000I0J-508000D01*
G01*
X176784000Y-77978000D02*
X176784000Y-76962000D01*
X174498000Y-67564000D02*
X173482000Y-67564000D01*
X175006000Y-74168000D02*
X175006000Y-68072000D01*
X172974000Y-74168000D02*
X172974000Y-68072000D01*
X175006000Y-68072000D02*
G75*
G03X174498000Y-67564000I-508000J0D01*
G01*
X173482000Y-67564000D02*
G75*
G03X172974000Y-68072000I0J-508000D01*
G01*
X174498000Y-74676000D02*
G75*
G03X175006000Y-74168000I0J508000D01*
G01*
X172974000Y-74168000D02*
G75*
G03X173482000Y-74676000I508000J0D01*
G01*
X174498000Y-74676000D02*
X173482000Y-74676000D01*
X191516000Y-77978000D02*
X191516000Y-76962000D01*
X184912000Y-78486000D02*
X191008000Y-78486000D01*
X184912000Y-76454000D02*
X191008000Y-76454000D01*
X191008000Y-78486000D02*
G75*
G03X191516000Y-77978000I0J508000D01*
G01*
X191516000Y-76962000D02*
G75*
G03X191008000Y-76454000I-508000J0D01*
G01*
X184404000Y-77978000D02*
G75*
G03X184912000Y-78486000I508000J0D01*
G01*
X184912000Y-76454000D02*
G75*
G03X184404000Y-76962000I0J-508000D01*
G01*
X184404000Y-77978000D02*
X184404000Y-76962000D01*
X199686000Y-125800000D02*
G75*
G03X199686000Y-125800000I-2286000J0D01*
G01*
X109686000Y-125800000D02*
G75*
G03X109686000Y-125800000I-2286000J0D01*
G01*
X199686000Y-55800000D02*
G75*
G03X199686000Y-55800000I-2286000J0D01*
G01*
X109686000Y-55800000D02*
G75*
G03X109686000Y-55800000I-2286000J0D01*
G01*
X182499000Y-42926000D02*
X182499000Y-48895000D01*
X165481000Y-48895000D02*
X165481000Y-42926000D01*
X165481000Y-42926000D02*
X182499000Y-42926000D01*
X158496000Y-61595000D02*
X158496000Y-48895000D01*
X158496000Y-48895000D02*
X189484000Y-48895000D01*
X189484000Y-48895000D02*
X189484000Y-61595000D01*
X158496000Y-61595000D02*
X189484000Y-61595000D01*
X150876000Y-118872000D02*
G75*
G03X149860000Y-117856000I-1016000J0D01*
G01*
X149860000Y-117856000D02*
G75*
G03X148844000Y-118872000I0J-1016000D01*
G01*
X143510000Y-118872000D02*
X143510000Y-79248000D01*
X143510000Y-79248000D02*
X156210000Y-79248000D01*
X156210000Y-79248000D02*
X156210000Y-118872000D01*
X156210000Y-118872000D02*
X143510000Y-118872000D01*
X146050000Y-67945000D02*
X146050000Y-69215000D01*
X146050000Y-69215000D02*
X148590000Y-69215000D01*
X148590000Y-69215000D02*
X148590000Y-67945000D01*
X149860000Y-73660000D02*
X149860000Y-67945000D01*
X149860000Y-67945000D02*
X144780000Y-67945000D01*
X144780000Y-67945000D02*
X144780000Y-73660000D01*
X149860000Y-73660000D02*
X144780000Y-73660000D01*
D11*
X136906000Y-50800000D02*
X136906000Y-47371000D01*
X136906000Y-47371000D02*
X134874000Y-47371000D01*
X134874000Y-47371000D02*
X134874000Y-50800000D01*
X137731500Y-50800000D02*
X134048500Y-50800000D01*
X134048500Y-62484000D02*
X137731500Y-62484000D01*
X137731500Y-50800000D02*
X137731500Y-62484000D01*
X134048500Y-62484000D02*
X134048500Y-50800000D01*
D16*
X125476000Y-63881000D02*
X125476000Y-61849000D01*
X125730000Y-63881000D02*
X125730000Y-61849000D01*
X126238000Y-63881000D02*
G75*
G03X126492000Y-63627000I0J254000D01*
G01*
X126492000Y-62103000D02*
G75*
G03X126238000Y-61849000I-254000J0D01*
G01*
X122428000Y-63627000D02*
G75*
G03X122682000Y-63881000I254000J0D01*
G01*
X122682000Y-61849000D02*
G75*
G03X122428000Y-62103000I0J-254000D01*
G01*
X126492000Y-62103000D02*
X126492000Y-63627000D01*
X122428000Y-63627000D02*
X122428000Y-62103000D01*
X122682000Y-61849000D02*
X126238000Y-61849000D01*
X126238000Y-63881000D02*
X122682000Y-63881000D01*
X126492000Y-62865000D02*
X128270000Y-62865000D01*
X120904000Y-62865000D02*
X122428000Y-62865000D01*
D12*
X105875667Y-120377857D02*
X105827286Y-120426238D01*
X105682143Y-120474619D01*
X105585381Y-120474619D01*
X105440239Y-120426238D01*
X105343477Y-120329476D01*
X105295096Y-120232714D01*
X105246715Y-120039190D01*
X105246715Y-119894048D01*
X105295096Y-119700524D01*
X105343477Y-119603762D01*
X105440239Y-119507000D01*
X105585381Y-119458619D01*
X105682143Y-119458619D01*
X105827286Y-119507000D01*
X105875667Y-119555381D01*
X106843286Y-120474619D02*
X106262715Y-120474619D01*
X106553001Y-120474619D02*
X106553001Y-119458619D01*
X106456239Y-119603762D01*
X106359477Y-119700524D01*
X106262715Y-119748905D01*
X104618670Y-120728619D02*
X104705755Y-120728619D01*
X104786793Y-120777000D01*
X104824288Y-120825381D01*
X104855736Y-120922143D01*
X104875089Y-121115667D01*
X104844851Y-121357571D01*
X104777117Y-121551095D01*
X104721479Y-121647857D01*
X104671888Y-121696238D01*
X104578755Y-121744619D01*
X104491670Y-121744619D01*
X104410631Y-121696238D01*
X104373136Y-121647857D01*
X104341688Y-121551095D01*
X104322336Y-121357571D01*
X104352574Y-121115667D01*
X104420307Y-120922143D01*
X104475945Y-120825381D01*
X104525536Y-120777000D01*
X104618670Y-120728619D01*
X105200450Y-121647857D02*
X105237945Y-121696238D01*
X105188355Y-121744619D01*
X105150859Y-121696238D01*
X105200450Y-121647857D01*
X105188355Y-121744619D01*
X106102756Y-121744619D02*
X105580241Y-121744619D01*
X105841499Y-121744619D02*
X105968499Y-120728619D01*
X105863270Y-120873762D01*
X105764089Y-120970524D01*
X105670955Y-121018905D01*
X106971193Y-121067286D02*
X106886527Y-121744619D01*
X106579307Y-121067286D02*
X106512784Y-121599476D01*
X106544231Y-121696238D01*
X106625270Y-121744619D01*
X106755898Y-121744619D01*
X106849031Y-121696238D01*
X106898622Y-121647857D01*
X107693278Y-121212429D02*
X107388478Y-121212429D01*
X107321955Y-121744619D02*
X107448955Y-120728619D01*
X107884384Y-120728619D01*
X182710667Y-122917857D02*
X182662286Y-122966238D01*
X182517143Y-123014619D01*
X182420381Y-123014619D01*
X182275239Y-122966238D01*
X182178477Y-122869476D01*
X182130096Y-122772714D01*
X182081715Y-122579190D01*
X182081715Y-122434048D01*
X182130096Y-122240524D01*
X182178477Y-122143762D01*
X182275239Y-122047000D01*
X182420381Y-121998619D01*
X182517143Y-121998619D01*
X182662286Y-122047000D01*
X182710667Y-122095381D01*
X183097715Y-122095381D02*
X183146096Y-122047000D01*
X183242858Y-121998619D01*
X183484762Y-121998619D01*
X183581524Y-122047000D01*
X183629905Y-122095381D01*
X183678286Y-122192143D01*
X183678286Y-122288905D01*
X183629905Y-122434048D01*
X183049334Y-123014619D01*
X183678286Y-123014619D01*
X185898670Y-121998619D02*
X185985755Y-121998619D01*
X186066793Y-122047000D01*
X186104288Y-122095381D01*
X186135736Y-122192143D01*
X186155089Y-122385667D01*
X186124851Y-122627571D01*
X186057117Y-122821095D01*
X186001479Y-122917857D01*
X185951888Y-122966238D01*
X185858755Y-123014619D01*
X185771670Y-123014619D01*
X185690631Y-122966238D01*
X185653136Y-122917857D01*
X185621688Y-122821095D01*
X185602336Y-122627571D01*
X185632574Y-122385667D01*
X185700307Y-122192143D01*
X185755945Y-122095381D01*
X185805536Y-122047000D01*
X185898670Y-121998619D01*
X186480450Y-122917857D02*
X186517945Y-122966238D01*
X186468355Y-123014619D01*
X186430859Y-122966238D01*
X186480450Y-122917857D01*
X186468355Y-123014619D01*
X187382756Y-123014619D02*
X186860241Y-123014619D01*
X187121499Y-123014619D02*
X187248499Y-121998619D01*
X187143270Y-122143762D01*
X187044089Y-122240524D01*
X186950955Y-122288905D01*
X188251193Y-122337286D02*
X188166527Y-123014619D01*
X187859307Y-122337286D02*
X187792784Y-122869476D01*
X187824231Y-122966238D01*
X187905270Y-123014619D01*
X188035898Y-123014619D01*
X188129031Y-122966238D01*
X188178622Y-122917857D01*
X188973278Y-122482429D02*
X188668478Y-122482429D01*
X188601955Y-123014619D02*
X188728955Y-121998619D01*
X189164384Y-121998619D01*
X162390667Y-122917857D02*
X162342286Y-122966238D01*
X162197143Y-123014619D01*
X162100381Y-123014619D01*
X161955239Y-122966238D01*
X161858477Y-122869476D01*
X161810096Y-122772714D01*
X161761715Y-122579190D01*
X161761715Y-122434048D01*
X161810096Y-122240524D01*
X161858477Y-122143762D01*
X161955239Y-122047000D01*
X162100381Y-121998619D01*
X162197143Y-121998619D01*
X162342286Y-122047000D01*
X162390667Y-122095381D01*
X162729334Y-121998619D02*
X163358286Y-121998619D01*
X163019620Y-122385667D01*
X163164762Y-122385667D01*
X163261524Y-122434048D01*
X163309905Y-122482429D01*
X163358286Y-122579190D01*
X163358286Y-122821095D01*
X163309905Y-122917857D01*
X163261524Y-122966238D01*
X163164762Y-123014619D01*
X162874477Y-123014619D01*
X162777715Y-122966238D01*
X162729334Y-122917857D01*
X165578670Y-121998619D02*
X165665755Y-121998619D01*
X165746793Y-122047000D01*
X165784288Y-122095381D01*
X165815736Y-122192143D01*
X165835089Y-122385667D01*
X165804851Y-122627571D01*
X165737117Y-122821095D01*
X165681479Y-122917857D01*
X165631888Y-122966238D01*
X165538755Y-123014619D01*
X165451670Y-123014619D01*
X165370631Y-122966238D01*
X165333136Y-122917857D01*
X165301688Y-122821095D01*
X165282336Y-122627571D01*
X165312574Y-122385667D01*
X165380307Y-122192143D01*
X165435945Y-122095381D01*
X165485536Y-122047000D01*
X165578670Y-121998619D01*
X166160450Y-122917857D02*
X166197945Y-122966238D01*
X166148355Y-123014619D01*
X166110859Y-122966238D01*
X166160450Y-122917857D01*
X166148355Y-123014619D01*
X167062756Y-123014619D02*
X166540241Y-123014619D01*
X166801499Y-123014619D02*
X166928499Y-121998619D01*
X166823270Y-122143762D01*
X166724089Y-122240524D01*
X166630955Y-122288905D01*
X167931193Y-122337286D02*
X167846527Y-123014619D01*
X167539307Y-122337286D02*
X167472784Y-122869476D01*
X167504231Y-122966238D01*
X167585270Y-123014619D01*
X167715898Y-123014619D01*
X167809031Y-122966238D01*
X167858622Y-122917857D01*
X168653278Y-122482429D02*
X168348478Y-122482429D01*
X168281955Y-123014619D02*
X168408955Y-121998619D01*
X168844384Y-121998619D01*
X142070667Y-122917857D02*
X142022286Y-122966238D01*
X141877143Y-123014619D01*
X141780381Y-123014619D01*
X141635239Y-122966238D01*
X141538477Y-122869476D01*
X141490096Y-122772714D01*
X141441715Y-122579190D01*
X141441715Y-122434048D01*
X141490096Y-122240524D01*
X141538477Y-122143762D01*
X141635239Y-122047000D01*
X141780381Y-121998619D01*
X141877143Y-121998619D01*
X142022286Y-122047000D01*
X142070667Y-122095381D01*
X142941524Y-122337286D02*
X142941524Y-123014619D01*
X142699620Y-121950238D02*
X142457715Y-122675952D01*
X143086667Y-122675952D01*
X145258670Y-121998619D02*
X145345755Y-121998619D01*
X145426793Y-122047000D01*
X145464288Y-122095381D01*
X145495736Y-122192143D01*
X145515089Y-122385667D01*
X145484851Y-122627571D01*
X145417117Y-122821095D01*
X145361479Y-122917857D01*
X145311888Y-122966238D01*
X145218755Y-123014619D01*
X145131670Y-123014619D01*
X145050631Y-122966238D01*
X145013136Y-122917857D01*
X144981688Y-122821095D01*
X144962336Y-122627571D01*
X144992574Y-122385667D01*
X145060307Y-122192143D01*
X145115945Y-122095381D01*
X145165536Y-122047000D01*
X145258670Y-121998619D01*
X145840450Y-122917857D02*
X145877945Y-122966238D01*
X145828355Y-123014619D01*
X145790859Y-122966238D01*
X145840450Y-122917857D01*
X145828355Y-123014619D01*
X146742756Y-123014619D02*
X146220241Y-123014619D01*
X146481499Y-123014619D02*
X146608499Y-121998619D01*
X146503270Y-122143762D01*
X146404089Y-122240524D01*
X146310955Y-122288905D01*
X147611193Y-122337286D02*
X147526527Y-123014619D01*
X147219307Y-122337286D02*
X147152784Y-122869476D01*
X147184231Y-122966238D01*
X147265270Y-123014619D01*
X147395898Y-123014619D01*
X147489031Y-122966238D01*
X147538622Y-122917857D01*
X148333278Y-122482429D02*
X148028478Y-122482429D01*
X147961955Y-123014619D02*
X148088955Y-121998619D01*
X148524384Y-121998619D01*
X129370667Y-127997857D02*
X129322286Y-128046238D01*
X129177143Y-128094619D01*
X129080381Y-128094619D01*
X128935239Y-128046238D01*
X128838477Y-127949476D01*
X128790096Y-127852714D01*
X128741715Y-127659190D01*
X128741715Y-127514048D01*
X128790096Y-127320524D01*
X128838477Y-127223762D01*
X128935239Y-127127000D01*
X129080381Y-127078619D01*
X129177143Y-127078619D01*
X129322286Y-127127000D01*
X129370667Y-127175381D01*
X130289905Y-127078619D02*
X129806096Y-127078619D01*
X129757715Y-127562429D01*
X129806096Y-127514048D01*
X129902858Y-127465667D01*
X130144762Y-127465667D01*
X130241524Y-127514048D01*
X130289905Y-127562429D01*
X130338286Y-127659190D01*
X130338286Y-127901095D01*
X130289905Y-127997857D01*
X130241524Y-128046238D01*
X130144762Y-128094619D01*
X129902858Y-128094619D01*
X129806096Y-128046238D01*
X129757715Y-127997857D01*
X132241170Y-127078619D02*
X132328255Y-127078619D01*
X132409293Y-127127000D01*
X132446788Y-127175381D01*
X132478236Y-127272143D01*
X132497589Y-127465667D01*
X132467351Y-127707571D01*
X132399617Y-127901095D01*
X132343979Y-127997857D01*
X132294388Y-128046238D01*
X132201255Y-128094619D01*
X132114170Y-128094619D01*
X132033131Y-128046238D01*
X131995636Y-127997857D01*
X131964188Y-127901095D01*
X131944836Y-127707571D01*
X131975074Y-127465667D01*
X132042807Y-127272143D01*
X132098445Y-127175381D01*
X132148036Y-127127000D01*
X132241170Y-127078619D01*
X132822950Y-127997857D02*
X132860445Y-128046238D01*
X132810855Y-128094619D01*
X132773359Y-128046238D01*
X132822950Y-127997857D01*
X132810855Y-128094619D01*
X133725256Y-128094619D02*
X133202741Y-128094619D01*
X133463999Y-128094619D02*
X133590999Y-127078619D01*
X133485770Y-127223762D01*
X133386589Y-127320524D01*
X133293455Y-127368905D01*
X134593693Y-127417286D02*
X134509027Y-128094619D01*
X134201807Y-127417286D02*
X134135284Y-127949476D01*
X134166731Y-128046238D01*
X134247770Y-128094619D01*
X134378398Y-128094619D01*
X134471531Y-128046238D01*
X134521122Y-127997857D01*
X135315778Y-127562429D02*
X135010978Y-127562429D01*
X134944455Y-128094619D02*
X135071455Y-127078619D01*
X135506884Y-127078619D01*
X129688167Y-96247857D02*
X129639786Y-96296238D01*
X129494643Y-96344619D01*
X129397881Y-96344619D01*
X129252739Y-96296238D01*
X129155977Y-96199476D01*
X129107596Y-96102714D01*
X129059215Y-95909190D01*
X129059215Y-95764048D01*
X129107596Y-95570524D01*
X129155977Y-95473762D01*
X129252739Y-95377000D01*
X129397881Y-95328619D01*
X129494643Y-95328619D01*
X129639786Y-95377000D01*
X129688167Y-95425381D01*
X130559024Y-95328619D02*
X130365501Y-95328619D01*
X130268739Y-95377000D01*
X130220358Y-95425381D01*
X130123596Y-95570524D01*
X130075215Y-95764048D01*
X130075215Y-96151095D01*
X130123596Y-96247857D01*
X130171977Y-96296238D01*
X130268739Y-96344619D01*
X130462262Y-96344619D01*
X130559024Y-96296238D01*
X130607405Y-96247857D01*
X130655786Y-96151095D01*
X130655786Y-95909190D01*
X130607405Y-95812429D01*
X130559024Y-95764048D01*
X130462262Y-95715667D01*
X130268739Y-95715667D01*
X130171977Y-95764048D01*
X130123596Y-95812429D01*
X130075215Y-95909190D01*
X132241170Y-95328619D02*
X132328255Y-95328619D01*
X132409293Y-95377000D01*
X132446788Y-95425381D01*
X132478236Y-95522143D01*
X132497589Y-95715667D01*
X132467351Y-95957571D01*
X132399617Y-96151095D01*
X132343979Y-96247857D01*
X132294388Y-96296238D01*
X132201255Y-96344619D01*
X132114170Y-96344619D01*
X132033131Y-96296238D01*
X131995636Y-96247857D01*
X131964188Y-96151095D01*
X131944836Y-95957571D01*
X131975074Y-95715667D01*
X132042807Y-95522143D01*
X132098445Y-95425381D01*
X132148036Y-95377000D01*
X132241170Y-95328619D01*
X132822950Y-96247857D02*
X132860445Y-96296238D01*
X132810855Y-96344619D01*
X132773359Y-96296238D01*
X132822950Y-96247857D01*
X132810855Y-96344619D01*
X133725256Y-96344619D02*
X133202741Y-96344619D01*
X133463999Y-96344619D02*
X133590999Y-95328619D01*
X133485770Y-95473762D01*
X133386589Y-95570524D01*
X133293455Y-95618905D01*
X134593693Y-95667286D02*
X134509027Y-96344619D01*
X134201807Y-95667286D02*
X134135284Y-96199476D01*
X134166731Y-96296238D01*
X134247770Y-96344619D01*
X134378398Y-96344619D01*
X134471531Y-96296238D01*
X134521122Y-96247857D01*
X135315778Y-95812429D02*
X135010978Y-95812429D01*
X134944455Y-96344619D02*
X135071455Y-95328619D01*
X135506884Y-95328619D01*
X162321119Y-72919167D02*
X163046833Y-72919167D01*
X163191976Y-72967547D01*
X163288738Y-73064309D01*
X163337119Y-73209452D01*
X163337119Y-73306214D01*
X163337119Y-72435357D02*
X162321119Y-72435357D01*
X162321119Y-72048310D01*
X162369500Y-71951548D01*
X162417881Y-71903167D01*
X162514643Y-71854786D01*
X162659786Y-71854786D01*
X162756548Y-71903167D01*
X162804929Y-71951548D01*
X162853310Y-72048310D01*
X162853310Y-72435357D01*
X163337119Y-70887167D02*
X163337119Y-71467738D01*
X163337119Y-71177452D02*
X162321119Y-71177452D01*
X162466262Y-71274214D01*
X162563024Y-71370976D01*
X162611405Y-71467738D01*
X163337119Y-69498330D02*
X162853310Y-69742654D01*
X163337119Y-70020845D02*
X162321119Y-69893845D01*
X162321119Y-69545502D01*
X162369500Y-69464464D01*
X162417881Y-69426969D01*
X162514643Y-69395521D01*
X162659786Y-69413664D01*
X162756548Y-69469302D01*
X162804929Y-69518893D01*
X162853310Y-69612026D01*
X162853310Y-69960369D01*
X162321119Y-68805273D02*
X162321119Y-68631102D01*
X162369500Y-68550064D01*
X162466262Y-68475073D01*
X162659786Y-68455722D01*
X162998452Y-68498055D01*
X163191976Y-68565787D01*
X163288738Y-68664969D01*
X163337119Y-68758102D01*
X163337119Y-68932273D01*
X163288738Y-69013312D01*
X163191976Y-69088302D01*
X162998452Y-69107655D01*
X162659786Y-69065322D01*
X162466262Y-68997588D01*
X162369500Y-68898407D01*
X162321119Y-68805273D01*
X163337119Y-68148502D02*
X162321119Y-68021502D01*
X163046833Y-67807417D01*
X162321119Y-67411902D01*
X163337119Y-67538902D01*
X163433881Y-67333283D02*
X163433881Y-66636597D01*
X163337119Y-65927815D02*
X163337119Y-66450330D01*
X163337119Y-66189072D02*
X162321119Y-66062072D01*
X162466262Y-66167301D01*
X162563024Y-66266482D01*
X162611405Y-66359616D01*
X169306119Y-76411667D02*
X170031833Y-76411667D01*
X170176976Y-76460047D01*
X170273738Y-76556809D01*
X170322119Y-76701952D01*
X170322119Y-76798714D01*
X170322119Y-75927857D02*
X169306119Y-75927857D01*
X169306119Y-75540810D01*
X169354500Y-75444048D01*
X169402881Y-75395667D01*
X169499643Y-75347286D01*
X169644786Y-75347286D01*
X169741548Y-75395667D01*
X169789929Y-75444048D01*
X169838310Y-75540810D01*
X169838310Y-75927857D01*
X169402881Y-74960238D02*
X169354500Y-74911857D01*
X169306119Y-74815095D01*
X169306119Y-74573191D01*
X169354500Y-74476429D01*
X169402881Y-74428048D01*
X169499643Y-74379667D01*
X169596405Y-74379667D01*
X169741548Y-74428048D01*
X170322119Y-75008619D01*
X170322119Y-74379667D01*
X170322119Y-72791259D02*
X169838310Y-73035583D01*
X170322119Y-73313774D02*
X169306119Y-73186774D01*
X169306119Y-72838431D01*
X169354500Y-72757393D01*
X169402881Y-72719898D01*
X169499643Y-72688450D01*
X169644786Y-72706593D01*
X169741548Y-72762231D01*
X169789929Y-72811822D01*
X169838310Y-72904955D01*
X169838310Y-73253298D01*
X169306119Y-72098202D02*
X169306119Y-71924031D01*
X169354500Y-71842993D01*
X169451262Y-71768002D01*
X169644786Y-71748651D01*
X169983452Y-71790984D01*
X170176976Y-71858716D01*
X170273738Y-71957898D01*
X170322119Y-72051031D01*
X170322119Y-72225202D01*
X170273738Y-72306241D01*
X170176976Y-72381231D01*
X169983452Y-72400584D01*
X169644786Y-72358251D01*
X169451262Y-72290517D01*
X169354500Y-72191336D01*
X169306119Y-72098202D01*
X170322119Y-71441431D02*
X169306119Y-71314431D01*
X170031833Y-71100346D01*
X169306119Y-70704831D01*
X170322119Y-70831831D01*
X170418881Y-70626212D02*
X170418881Y-69929526D01*
X169402881Y-69628355D02*
X169354500Y-69578764D01*
X169306119Y-69485630D01*
X169306119Y-69267916D01*
X169354500Y-69186878D01*
X169402881Y-69149383D01*
X169499643Y-69117935D01*
X169596405Y-69130030D01*
X169741548Y-69191716D01*
X170322119Y-69786801D01*
X170322119Y-69220744D01*
X169306119Y-68788944D02*
X169306119Y-68179344D01*
X170322119Y-68698230D01*
X126153333Y-117553619D02*
X126153333Y-118279333D01*
X126104953Y-118424476D01*
X126008191Y-118521238D01*
X125863048Y-118569619D01*
X125766286Y-118569619D01*
X126637143Y-118569619D02*
X126637143Y-117553619D01*
X127024190Y-117553619D01*
X127120952Y-117602000D01*
X127169333Y-117650381D01*
X127217714Y-117747143D01*
X127217714Y-117892286D01*
X127169333Y-117989048D01*
X127120952Y-118037429D01*
X127024190Y-118085810D01*
X126637143Y-118085810D01*
X127556381Y-117553619D02*
X128185333Y-117553619D01*
X127846667Y-117940667D01*
X127991809Y-117940667D01*
X128088571Y-117989048D01*
X128136952Y-118037429D01*
X128185333Y-118134190D01*
X128185333Y-118376095D01*
X128136952Y-118472857D01*
X128088571Y-118521238D01*
X127991809Y-118569619D01*
X127701524Y-118569619D01*
X127604762Y-118521238D01*
X127556381Y-118472857D01*
X126416708Y-108312857D02*
X126367117Y-108361238D01*
X126230441Y-108409619D01*
X126143355Y-108409619D01*
X126018774Y-108361238D01*
X125943784Y-108264476D01*
X125912336Y-108167714D01*
X125892983Y-107974190D01*
X125911126Y-107829048D01*
X125978860Y-107635524D01*
X126034498Y-107538762D01*
X126133679Y-107442000D01*
X126270355Y-107393619D01*
X126357441Y-107393619D01*
X126482022Y-107442000D01*
X126519517Y-107490381D01*
X127231927Y-108409619D02*
X126796498Y-108409619D01*
X126923498Y-107393619D01*
X127536727Y-108409619D02*
X127663727Y-107393619D01*
X128059242Y-108409619D02*
X127739927Y-107829048D01*
X128186242Y-107393619D02*
X127591155Y-107974190D01*
X153494619Y-60757404D02*
X152478619Y-60757404D01*
X152478619Y-60370357D01*
X152527000Y-60273595D01*
X152575381Y-60225214D01*
X152672143Y-60176833D01*
X152817286Y-60176833D01*
X152914048Y-60225214D01*
X152962429Y-60273595D01*
X153010810Y-60370357D01*
X153010810Y-60757404D01*
X153494619Y-59209214D02*
X153494619Y-59789785D01*
X153494619Y-59499499D02*
X152478619Y-59499499D01*
X152623762Y-59596261D01*
X152720524Y-59693023D01*
X152768905Y-59789785D01*
X153494619Y-56455431D02*
X152478619Y-56328431D01*
X152478619Y-55980088D01*
X152527000Y-55899050D01*
X152575381Y-55861555D01*
X152672143Y-55830107D01*
X152817286Y-55848250D01*
X152914048Y-55903888D01*
X152962429Y-55953479D01*
X153010810Y-56046612D01*
X153010810Y-56394955D01*
X152478619Y-55239859D02*
X152478619Y-55065688D01*
X152527000Y-54984650D01*
X152623762Y-54909659D01*
X152817286Y-54890308D01*
X153155952Y-54932641D01*
X153349476Y-55000373D01*
X153446238Y-55099555D01*
X153494619Y-55192688D01*
X153494619Y-55366859D01*
X153446238Y-55447898D01*
X153349476Y-55522888D01*
X153155952Y-55542241D01*
X152817286Y-55499908D01*
X152623762Y-55432174D01*
X152527000Y-55332993D01*
X152478619Y-55239859D01*
X152478619Y-54543173D02*
X153494619Y-54452459D01*
X152768905Y-54187574D01*
X153494619Y-54104116D01*
X152478619Y-53759402D01*
X152962429Y-53471536D02*
X152962429Y-53166736D01*
X153494619Y-53102630D02*
X153494619Y-53538059D01*
X152478619Y-53411059D01*
X152478619Y-52975630D01*
X153494619Y-52188230D02*
X153010810Y-52432554D01*
X153494619Y-52710745D02*
X152478619Y-52583745D01*
X152478619Y-52235402D01*
X152527000Y-52154364D01*
X152575381Y-52116869D01*
X152672143Y-52085421D01*
X152817286Y-52103564D01*
X152914048Y-52159202D01*
X152962429Y-52208793D01*
X153010810Y-52301926D01*
X153010810Y-52650269D01*
X105930096Y-118569619D02*
X105930096Y-117553619D01*
X106317143Y-117553619D01*
X106413905Y-117602000D01*
X106462286Y-117650381D01*
X106510667Y-117747143D01*
X106510667Y-117892286D01*
X106462286Y-117989048D01*
X106413905Y-118037429D01*
X106317143Y-118085810D01*
X105930096Y-118085810D01*
X106897715Y-117650381D02*
X106946096Y-117602000D01*
X107042858Y-117553619D01*
X107284762Y-117553619D01*
X107381524Y-117602000D01*
X107429905Y-117650381D01*
X107478286Y-117747143D01*
X107478286Y-117843905D01*
X107429905Y-117989048D01*
X106849334Y-118569619D01*
X107478286Y-118569619D01*
X105677002Y-108361238D02*
X105801584Y-108409619D01*
X106019298Y-108409619D01*
X106112431Y-108361238D01*
X106162022Y-108312857D01*
X106217660Y-108216095D01*
X106229755Y-108119333D01*
X106198308Y-108022571D01*
X106160812Y-107974190D01*
X106079774Y-107925810D01*
X105911650Y-107877429D01*
X105830612Y-107829048D01*
X105793117Y-107780667D01*
X105761669Y-107683905D01*
X105773764Y-107587143D01*
X105829402Y-107490381D01*
X105878993Y-107442000D01*
X105972127Y-107393619D01*
X106189841Y-107393619D01*
X106314422Y-107442000D01*
X106585355Y-108409619D02*
X106712355Y-107393619D01*
X107321956Y-107393619D02*
X107496127Y-107393619D01*
X107577165Y-107442000D01*
X107652156Y-107538762D01*
X107671507Y-107732286D01*
X107629174Y-108070952D01*
X107561442Y-108264476D01*
X107462260Y-108361238D01*
X107369127Y-108409619D01*
X107194956Y-108409619D01*
X107113917Y-108361238D01*
X107038927Y-108264476D01*
X107019574Y-108070952D01*
X107061907Y-107732286D01*
X107129641Y-107538762D01*
X107228822Y-107442000D01*
X107321956Y-107393619D01*
X154190096Y-123967119D02*
X154190096Y-122951119D01*
X154577143Y-122951119D01*
X154673905Y-122999500D01*
X154722286Y-123047881D01*
X154770667Y-123144643D01*
X154770667Y-123289786D01*
X154722286Y-123386548D01*
X154673905Y-123434929D01*
X154577143Y-123483310D01*
X154190096Y-123483310D01*
X155641524Y-123289786D02*
X155641524Y-123967119D01*
X155399620Y-122902738D02*
X155157715Y-123628452D01*
X155786667Y-123628452D01*
X171791992Y-123434929D02*
X172096792Y-123434929D01*
X172160898Y-123967119D02*
X171725469Y-123967119D01*
X171852469Y-122951119D01*
X172287898Y-122951119D01*
X172592698Y-122951119D02*
X173075298Y-123967119D01*
X173202298Y-122951119D02*
X172465698Y-123967119D01*
X173420012Y-122951119D02*
X173942526Y-122951119D01*
X173554269Y-123967119D02*
X173681269Y-122951119D01*
X174186849Y-123434929D02*
X174491649Y-123434929D01*
X174555755Y-123967119D02*
X174120326Y-123967119D01*
X174247326Y-122951119D01*
X174682755Y-122951119D01*
X174947640Y-123967119D02*
X175074640Y-122951119D01*
X175470155Y-123967119D01*
X175597155Y-122951119D01*
X175868087Y-123918738D02*
X175992669Y-123967119D01*
X176210383Y-123967119D01*
X176303516Y-123918738D01*
X176353107Y-123870357D01*
X176408745Y-123773595D01*
X176420840Y-123676833D01*
X176389393Y-123580071D01*
X176351897Y-123531690D01*
X176270859Y-123483310D01*
X176102735Y-123434929D01*
X176021697Y-123386548D01*
X175984202Y-123338167D01*
X175952754Y-123241405D01*
X175964849Y-123144643D01*
X176020487Y-123047881D01*
X176070078Y-122999500D01*
X176163212Y-122951119D01*
X176380926Y-122951119D01*
X176505507Y-122999500D01*
X176776440Y-123967119D02*
X176903440Y-122951119D01*
X177513041Y-122951119D02*
X177687212Y-122951119D01*
X177768250Y-122999500D01*
X177843241Y-123096262D01*
X177862592Y-123289786D01*
X177820259Y-123628452D01*
X177752527Y-123821976D01*
X177653345Y-123918738D01*
X177560212Y-123967119D01*
X177386041Y-123967119D01*
X177305002Y-123918738D01*
X177230012Y-123821976D01*
X177210659Y-123628452D01*
X177252992Y-123289786D01*
X177320726Y-123096262D01*
X177419907Y-122999500D01*
X177513041Y-122951119D01*
X178169812Y-123967119D02*
X178296812Y-122951119D01*
X178692327Y-123967119D01*
X178819327Y-122951119D01*
X119204619Y-59224333D02*
X118720810Y-59562999D01*
X119204619Y-59804904D02*
X118188619Y-59804904D01*
X118188619Y-59417857D01*
X118237000Y-59321095D01*
X118285381Y-59272714D01*
X118382143Y-59224333D01*
X118527286Y-59224333D01*
X118624048Y-59272714D01*
X118672429Y-59321095D01*
X118720810Y-59417857D01*
X118720810Y-59804904D01*
X119204619Y-58256714D02*
X119204619Y-58837285D01*
X119204619Y-58546999D02*
X118188619Y-58546999D01*
X118333762Y-58643761D01*
X118430524Y-58740523D01*
X118478905Y-58837285D01*
X118188619Y-55909330D02*
X118188619Y-55343273D01*
X118575667Y-55696454D01*
X118575667Y-55565826D01*
X118624048Y-55484788D01*
X118672429Y-55447293D01*
X118769190Y-55415845D01*
X119011095Y-55446083D01*
X119107857Y-55501721D01*
X119156238Y-55551312D01*
X119204619Y-55644445D01*
X119204619Y-55905702D01*
X119156238Y-55986741D01*
X119107857Y-56024235D01*
X118188619Y-55038473D02*
X118188619Y-54472416D01*
X118575667Y-54825597D01*
X118575667Y-54694969D01*
X118624048Y-54613931D01*
X118672429Y-54576436D01*
X118769190Y-54544988D01*
X119011095Y-54575226D01*
X119107857Y-54630864D01*
X119156238Y-54680455D01*
X119204619Y-54773588D01*
X119204619Y-55034845D01*
X119156238Y-55115884D01*
X119107857Y-55153378D01*
X118575667Y-61737119D02*
X118237001Y-61253310D01*
X117995096Y-61737119D02*
X117995096Y-60721119D01*
X118382143Y-60721119D01*
X118478905Y-60769500D01*
X118527286Y-60817881D01*
X118575667Y-60914643D01*
X118575667Y-61059786D01*
X118527286Y-61156548D01*
X118478905Y-61204929D01*
X118382143Y-61253310D01*
X117995096Y-61253310D01*
X118914334Y-60721119D02*
X119543286Y-60721119D01*
X119204620Y-61108167D01*
X119349762Y-61108167D01*
X119446524Y-61156548D01*
X119494905Y-61204929D01*
X119543286Y-61301690D01*
X119543286Y-61543595D01*
X119494905Y-61640357D01*
X119446524Y-61688738D01*
X119349762Y-61737119D01*
X119059477Y-61737119D01*
X118962715Y-61688738D01*
X118914334Y-61640357D01*
X130634619Y-61355816D02*
X130634619Y-61878331D01*
X130634619Y-61617073D02*
X129618619Y-61490073D01*
X129763762Y-61595302D01*
X129860524Y-61694483D01*
X129908905Y-61787617D01*
X129618619Y-60662759D02*
X129618619Y-60575674D01*
X129667000Y-60494636D01*
X129715381Y-60457141D01*
X129812143Y-60425693D01*
X130005667Y-60406340D01*
X130247571Y-60436578D01*
X130441095Y-60504312D01*
X130537857Y-60559950D01*
X130586238Y-60609541D01*
X130634619Y-60702674D01*
X130634619Y-60789759D01*
X130586238Y-60870798D01*
X130537857Y-60908293D01*
X130441095Y-60939741D01*
X130247571Y-60959093D01*
X130005667Y-60928855D01*
X129812143Y-60861122D01*
X129715381Y-60805484D01*
X129667000Y-60755893D01*
X129618619Y-60662759D01*
X129618619Y-59791902D02*
X129618619Y-59704817D01*
X129667000Y-59623779D01*
X129715381Y-59586284D01*
X129812143Y-59554836D01*
X130005667Y-59535483D01*
X130247571Y-59565721D01*
X130441095Y-59633455D01*
X130537857Y-59689093D01*
X130586238Y-59738684D01*
X130634619Y-59831817D01*
X130634619Y-59918902D01*
X130586238Y-59999941D01*
X130537857Y-60037436D01*
X130441095Y-60068884D01*
X130247571Y-60088236D01*
X130005667Y-60057998D01*
X129812143Y-59990265D01*
X129715381Y-59934627D01*
X129667000Y-59885036D01*
X129618619Y-59791902D01*
X130634619Y-59222217D02*
X129618619Y-59095217D01*
X130247571Y-59086750D02*
X130634619Y-58873874D01*
X129957286Y-58789208D02*
X130344333Y-59185932D01*
X119930334Y-58831238D02*
X120075477Y-58879619D01*
X120317381Y-58879619D01*
X120414143Y-58831238D01*
X120462524Y-58782857D01*
X120510905Y-58686095D01*
X120510905Y-58589333D01*
X120462524Y-58492571D01*
X120414143Y-58444190D01*
X120317381Y-58395810D01*
X120123858Y-58347429D01*
X120027096Y-58299048D01*
X119978715Y-58250667D01*
X119930334Y-58153905D01*
X119930334Y-58057143D01*
X119978715Y-57960381D01*
X120027096Y-57912000D01*
X120123858Y-57863619D01*
X120365762Y-57863619D01*
X120510905Y-57912000D01*
X120849572Y-57863619D02*
X121091477Y-58879619D01*
X121285000Y-58153905D01*
X121478524Y-58879619D01*
X121720429Y-57863619D01*
X122639667Y-58879619D02*
X122059096Y-58879619D01*
X122349382Y-58879619D02*
X122349382Y-57863619D01*
X122252620Y-58008762D01*
X122155858Y-58105524D01*
X122059096Y-58153905D01*
X125620842Y-58879619D02*
X125376518Y-58395810D01*
X125098327Y-58879619D02*
X125225327Y-57863619D01*
X125573670Y-57863619D01*
X125654708Y-57912000D01*
X125692203Y-57960381D01*
X125723651Y-58057143D01*
X125705508Y-58202286D01*
X125649870Y-58299048D01*
X125600279Y-58347429D01*
X125507146Y-58395810D01*
X125158803Y-58395810D01*
X126079250Y-58347429D02*
X126384050Y-58347429D01*
X126448156Y-58879619D02*
X126012727Y-58879619D01*
X126139727Y-57863619D01*
X126575156Y-57863619D01*
X126802545Y-58831238D02*
X126927127Y-58879619D01*
X127144841Y-58879619D01*
X127237974Y-58831238D01*
X127287565Y-58782857D01*
X127343203Y-58686095D01*
X127355298Y-58589333D01*
X127323851Y-58492571D01*
X127286355Y-58444190D01*
X127205317Y-58395810D01*
X127037193Y-58347429D01*
X126956155Y-58299048D01*
X126918660Y-58250667D01*
X126887212Y-58153905D01*
X126899307Y-58057143D01*
X126954945Y-57960381D01*
X127004536Y-57912000D01*
X127097670Y-57863619D01*
X127315384Y-57863619D01*
X127439965Y-57912000D01*
X127777421Y-58347429D02*
X128082221Y-58347429D01*
X128146327Y-58879619D02*
X127710898Y-58879619D01*
X127837898Y-57863619D01*
X128273327Y-57863619D01*
X128534584Y-57863619D02*
X129057098Y-57863619D01*
X128668841Y-58879619D02*
X128795841Y-57863619D01*
X125808619Y-75386595D02*
X126631095Y-75386595D01*
X126727857Y-75338214D01*
X126776238Y-75289833D01*
X126824619Y-75193071D01*
X126824619Y-74999548D01*
X126776238Y-74902786D01*
X126727857Y-74854405D01*
X126631095Y-74806024D01*
X125808619Y-74806024D01*
X126824619Y-73790024D02*
X126824619Y-74370595D01*
X126824619Y-74080309D02*
X125808619Y-74080309D01*
X125953762Y-74177071D01*
X126050524Y-74273833D01*
X126098905Y-74370595D01*
X126244048Y-71118487D02*
X126195667Y-71199525D01*
X126147286Y-71237021D01*
X126050524Y-71268468D01*
X126002143Y-71262421D01*
X125905381Y-71206783D01*
X125857000Y-71157192D01*
X125808619Y-71064058D01*
X125808619Y-70889887D01*
X125857000Y-70808849D01*
X125905381Y-70771354D01*
X126002143Y-70739906D01*
X126050524Y-70745953D01*
X126147286Y-70801592D01*
X126195667Y-70851182D01*
X126244048Y-70944316D01*
X126244048Y-71118487D01*
X126292429Y-71211621D01*
X126340810Y-71261211D01*
X126437571Y-71316849D01*
X126631095Y-71341040D01*
X126727857Y-71309592D01*
X126776238Y-71272097D01*
X126824619Y-71191058D01*
X126824619Y-71016887D01*
X126776238Y-70923754D01*
X126727857Y-70874163D01*
X126631095Y-70818525D01*
X126437571Y-70794334D01*
X126340810Y-70825782D01*
X126292429Y-70863278D01*
X126244048Y-70944316D01*
X125808619Y-70149658D02*
X125808619Y-70062573D01*
X125857000Y-69981535D01*
X125905381Y-69944040D01*
X126002143Y-69912592D01*
X126195667Y-69893239D01*
X126437571Y-69923477D01*
X126631095Y-69991211D01*
X126727857Y-70046849D01*
X126776238Y-70096440D01*
X126824619Y-70189573D01*
X126824619Y-70276658D01*
X126776238Y-70357697D01*
X126727857Y-70395192D01*
X126631095Y-70426640D01*
X126437571Y-70445992D01*
X126195667Y-70415754D01*
X126002143Y-70348021D01*
X125905381Y-70292383D01*
X125857000Y-70242792D01*
X125808619Y-70149658D01*
X126727857Y-69045363D02*
X126776238Y-69094954D01*
X126824619Y-69231630D01*
X126824619Y-69318716D01*
X126776238Y-69443297D01*
X126679476Y-69518287D01*
X126582714Y-69549735D01*
X126389190Y-69569088D01*
X126244048Y-69550945D01*
X126050524Y-69483211D01*
X125953762Y-69427573D01*
X125857000Y-69328392D01*
X125808619Y-69191716D01*
X125808619Y-69104630D01*
X125857000Y-68980049D01*
X125905381Y-68942554D01*
X126244048Y-68462373D02*
X126195667Y-68543411D01*
X126147286Y-68580907D01*
X126050524Y-68612354D01*
X126002143Y-68606307D01*
X125905381Y-68550669D01*
X125857000Y-68501078D01*
X125808619Y-68407944D01*
X125808619Y-68233773D01*
X125857000Y-68152735D01*
X125905381Y-68115240D01*
X126002143Y-68083792D01*
X126050524Y-68089839D01*
X126147286Y-68145478D01*
X126195667Y-68195068D01*
X126244048Y-68288202D01*
X126244048Y-68462373D01*
X126292429Y-68555507D01*
X126340810Y-68605097D01*
X126437571Y-68660735D01*
X126631095Y-68684926D01*
X126727857Y-68653478D01*
X126776238Y-68615983D01*
X126824619Y-68534944D01*
X126824619Y-68360773D01*
X126776238Y-68267640D01*
X126727857Y-68218049D01*
X126631095Y-68162411D01*
X126437571Y-68138220D01*
X126340810Y-68169668D01*
X126292429Y-68207164D01*
X126244048Y-68288202D01*
X125808619Y-67232287D02*
X125808619Y-67667716D01*
X126292429Y-67771736D01*
X126244048Y-67722145D01*
X126195667Y-67629011D01*
X126195667Y-67411297D01*
X126244048Y-67330259D01*
X126292429Y-67292764D01*
X126389190Y-67261316D01*
X126631095Y-67291554D01*
X126727857Y-67347192D01*
X126776238Y-67396783D01*
X126824619Y-67489916D01*
X126824619Y-67707630D01*
X126776238Y-67788669D01*
X126727857Y-67826164D01*
X126534333Y-66931117D02*
X126534333Y-66495688D01*
X126824619Y-67054487D02*
X125808619Y-66622687D01*
X126824619Y-66444887D01*
X199468619Y-116344095D02*
X200291095Y-116344095D01*
X200387857Y-116295714D01*
X200436238Y-116247333D01*
X200484619Y-116150571D01*
X200484619Y-115957048D01*
X200436238Y-115860286D01*
X200387857Y-115811905D01*
X200291095Y-115763524D01*
X199468619Y-115763524D01*
X199565381Y-115328095D02*
X199517000Y-115279714D01*
X199468619Y-115182952D01*
X199468619Y-114941048D01*
X199517000Y-114844286D01*
X199565381Y-114795905D01*
X199662143Y-114747524D01*
X199758905Y-114747524D01*
X199904048Y-114795905D01*
X200484619Y-115376476D01*
X200484619Y-114747524D01*
X199904048Y-86675987D02*
X199855667Y-86757025D01*
X199807286Y-86794521D01*
X199710524Y-86825968D01*
X199662143Y-86819921D01*
X199565381Y-86764283D01*
X199517000Y-86714692D01*
X199468619Y-86621558D01*
X199468619Y-86447387D01*
X199517000Y-86366349D01*
X199565381Y-86328854D01*
X199662143Y-86297406D01*
X199710524Y-86303453D01*
X199807286Y-86359092D01*
X199855667Y-86408682D01*
X199904048Y-86501816D01*
X199904048Y-86675987D01*
X199952429Y-86769121D01*
X200000810Y-86818711D01*
X200097571Y-86874349D01*
X200291095Y-86898540D01*
X200387857Y-86867092D01*
X200436238Y-86829597D01*
X200484619Y-86748558D01*
X200484619Y-86574387D01*
X200436238Y-86481254D01*
X200387857Y-86431663D01*
X200291095Y-86376025D01*
X200097571Y-86351834D01*
X200000810Y-86383282D01*
X199952429Y-86420778D01*
X199904048Y-86501816D01*
X199565381Y-85936969D02*
X199517000Y-85887378D01*
X199468619Y-85794244D01*
X199468619Y-85576530D01*
X199517000Y-85495492D01*
X199565381Y-85457997D01*
X199662143Y-85426549D01*
X199758905Y-85438644D01*
X199904048Y-85500330D01*
X200484619Y-86095415D01*
X200484619Y-85529358D01*
X200387857Y-84602863D02*
X200436238Y-84652454D01*
X200484619Y-84789130D01*
X200484619Y-84876216D01*
X200436238Y-85000797D01*
X200339476Y-85075787D01*
X200242714Y-85107235D01*
X200049190Y-85126588D01*
X199904048Y-85108445D01*
X199710524Y-85040711D01*
X199613762Y-84985073D01*
X199517000Y-84885892D01*
X199468619Y-84749216D01*
X199468619Y-84662130D01*
X199517000Y-84537549D01*
X199565381Y-84500054D01*
X199468619Y-83660644D02*
X199468619Y-84096073D01*
X199952429Y-84200093D01*
X199904048Y-84150502D01*
X199855667Y-84057368D01*
X199855667Y-83839654D01*
X199904048Y-83758616D01*
X199952429Y-83721121D01*
X200049190Y-83689673D01*
X200291095Y-83719911D01*
X200387857Y-83775549D01*
X200436238Y-83825140D01*
X200484619Y-83918273D01*
X200484619Y-84135987D01*
X200436238Y-84217026D01*
X200387857Y-84254521D01*
X200484619Y-82873244D02*
X200484619Y-83395759D01*
X200484619Y-83134501D02*
X199468619Y-83007501D01*
X199613762Y-83112730D01*
X199710524Y-83211911D01*
X199758905Y-83305045D01*
X200194333Y-82488617D02*
X200194333Y-82053188D01*
X200484619Y-82611987D02*
X199468619Y-82180187D01*
X200484619Y-82002387D01*
X179148619Y-116344095D02*
X179971095Y-116344095D01*
X180067857Y-116295714D01*
X180116238Y-116247333D01*
X180164619Y-116150571D01*
X180164619Y-115957048D01*
X180116238Y-115860286D01*
X180067857Y-115811905D01*
X179971095Y-115763524D01*
X179148619Y-115763524D01*
X179148619Y-115376476D02*
X179148619Y-114747524D01*
X179535667Y-115086190D01*
X179535667Y-114941048D01*
X179584048Y-114844286D01*
X179632429Y-114795905D01*
X179729190Y-114747524D01*
X179971095Y-114747524D01*
X180067857Y-114795905D01*
X180116238Y-114844286D01*
X180164619Y-114941048D01*
X180164619Y-115231333D01*
X180116238Y-115328095D01*
X180067857Y-115376476D01*
X179245381Y-86533869D02*
X179197000Y-86484278D01*
X179148619Y-86391144D01*
X179148619Y-86173430D01*
X179197000Y-86092392D01*
X179245381Y-86054897D01*
X179342143Y-86023449D01*
X179438905Y-86035544D01*
X179584048Y-86097230D01*
X180164619Y-86692315D01*
X180164619Y-86126258D01*
X179148619Y-85694458D02*
X179148619Y-85084858D01*
X180164619Y-85603744D01*
X180067857Y-84328906D02*
X180116238Y-84378497D01*
X180164619Y-84515173D01*
X180164619Y-84602259D01*
X180116238Y-84726840D01*
X180019476Y-84801830D01*
X179922714Y-84833278D01*
X179729190Y-84852631D01*
X179584048Y-84834488D01*
X179390524Y-84766754D01*
X179293762Y-84711116D01*
X179197000Y-84611935D01*
X179148619Y-84475259D01*
X179148619Y-84388173D01*
X179197000Y-84263592D01*
X179245381Y-84226097D01*
X180164619Y-83470144D02*
X180164619Y-83992659D01*
X180164619Y-83731401D02*
X179148619Y-83604401D01*
X179293762Y-83709630D01*
X179390524Y-83808811D01*
X179438905Y-83901945D01*
X179245381Y-83006898D02*
X179197000Y-82957307D01*
X179148619Y-82864173D01*
X179148619Y-82646459D01*
X179197000Y-82565421D01*
X179245381Y-82527926D01*
X179342143Y-82496478D01*
X179438905Y-82508573D01*
X179584048Y-82570259D01*
X180164619Y-83165344D01*
X180164619Y-82599287D01*
X179584048Y-82004202D02*
X179535667Y-82085240D01*
X179487286Y-82122736D01*
X179390524Y-82154183D01*
X179342143Y-82148136D01*
X179245381Y-82092498D01*
X179197000Y-82042907D01*
X179148619Y-81949773D01*
X179148619Y-81775602D01*
X179197000Y-81694564D01*
X179245381Y-81657069D01*
X179342143Y-81625621D01*
X179390524Y-81631668D01*
X179487286Y-81687307D01*
X179535667Y-81736897D01*
X179584048Y-81830031D01*
X179584048Y-82004202D01*
X179632429Y-82097336D01*
X179680810Y-82146926D01*
X179777571Y-82202564D01*
X179971095Y-82226755D01*
X180067857Y-82195307D01*
X180116238Y-82157812D01*
X180164619Y-82076773D01*
X180164619Y-81902602D01*
X180116238Y-81809469D01*
X180067857Y-81759878D01*
X179971095Y-81704240D01*
X179777571Y-81680049D01*
X179680810Y-81711497D01*
X179632429Y-81748993D01*
X179584048Y-81830031D01*
X138508619Y-122694095D02*
X139331095Y-122694095D01*
X139427857Y-122645714D01*
X139476238Y-122597333D01*
X139524619Y-122500571D01*
X139524619Y-122307048D01*
X139476238Y-122210286D01*
X139427857Y-122161905D01*
X139331095Y-122113524D01*
X138508619Y-122113524D01*
X138508619Y-121145905D02*
X138508619Y-121629714D01*
X138992429Y-121678095D01*
X138944048Y-121629714D01*
X138895667Y-121532952D01*
X138895667Y-121291048D01*
X138944048Y-121194286D01*
X138992429Y-121145905D01*
X139089190Y-121097524D01*
X139331095Y-121097524D01*
X139427857Y-121145905D01*
X139476238Y-121194286D01*
X139524619Y-121291048D01*
X139524619Y-121532952D01*
X139476238Y-121629714D01*
X139427857Y-121678095D01*
X138557000Y-103115835D02*
X138508619Y-103196873D01*
X138508619Y-103327502D01*
X138557000Y-103464178D01*
X138653762Y-103563359D01*
X138750524Y-103618997D01*
X138944048Y-103686731D01*
X139089190Y-103704874D01*
X139282714Y-103685521D01*
X139379476Y-103654073D01*
X139476238Y-103579083D01*
X139524619Y-103454502D01*
X139524619Y-103367416D01*
X139476238Y-103230740D01*
X139427857Y-103181149D01*
X139089190Y-103138816D01*
X139089190Y-103312988D01*
X139234333Y-102808617D02*
X139234333Y-102373188D01*
X139524619Y-102931987D02*
X138508619Y-102500187D01*
X139524619Y-102322387D01*
X139524619Y-101582159D02*
X139524619Y-102017588D01*
X138508619Y-101890588D01*
X139524619Y-100798387D02*
X139524619Y-101320902D01*
X139524619Y-101059644D02*
X138508619Y-100932644D01*
X138653762Y-101037873D01*
X138750524Y-101137054D01*
X138798905Y-101230188D01*
X138508619Y-99887616D02*
X138508619Y-100061787D01*
X138557000Y-100154921D01*
X138605381Y-100204512D01*
X138750524Y-100309740D01*
X138944048Y-100377474D01*
X139331095Y-100425855D01*
X139427857Y-100394407D01*
X139476238Y-100356912D01*
X139524619Y-100275873D01*
X139524619Y-100101702D01*
X139476238Y-100008569D01*
X139427857Y-99958978D01*
X139331095Y-99903340D01*
X139089190Y-99873102D01*
X138992429Y-99904550D01*
X138944048Y-99942045D01*
X138895667Y-100023083D01*
X138895667Y-100197254D01*
X138944048Y-100290388D01*
X138992429Y-100339979D01*
X139089190Y-100395617D01*
X138508619Y-99539273D02*
X139524619Y-99361473D01*
X138508619Y-98929673D01*
X138944048Y-98548674D02*
X138895667Y-98629712D01*
X138847286Y-98667208D01*
X138750524Y-98698655D01*
X138702143Y-98692608D01*
X138605381Y-98636970D01*
X138557000Y-98587379D01*
X138508619Y-98494245D01*
X138508619Y-98320074D01*
X138557000Y-98239036D01*
X138605381Y-98201541D01*
X138702143Y-98170093D01*
X138750524Y-98176140D01*
X138847286Y-98231779D01*
X138895667Y-98281369D01*
X138944048Y-98374503D01*
X138944048Y-98548674D01*
X138992429Y-98641808D01*
X139040810Y-98691398D01*
X139137571Y-98747036D01*
X139331095Y-98771227D01*
X139427857Y-98739779D01*
X139476238Y-98702284D01*
X139524619Y-98621245D01*
X139524619Y-98447074D01*
X139476238Y-98353941D01*
X139427857Y-98304350D01*
X139331095Y-98248712D01*
X139137571Y-98224521D01*
X139040810Y-98255969D01*
X138992429Y-98293465D01*
X138944048Y-98374503D01*
X138508619Y-90944095D02*
X139331095Y-90944095D01*
X139427857Y-90895714D01*
X139476238Y-90847333D01*
X139524619Y-90750571D01*
X139524619Y-90557048D01*
X139476238Y-90460286D01*
X139427857Y-90411905D01*
X139331095Y-90363524D01*
X138508619Y-90363524D01*
X138508619Y-89444286D02*
X138508619Y-89637809D01*
X138557000Y-89734571D01*
X138605381Y-89782952D01*
X138750524Y-89879714D01*
X138944048Y-89928095D01*
X139331095Y-89928095D01*
X139427857Y-89879714D01*
X139476238Y-89831333D01*
X139524619Y-89734571D01*
X139524619Y-89541048D01*
X139476238Y-89444286D01*
X139427857Y-89395905D01*
X139331095Y-89347524D01*
X139089190Y-89347524D01*
X138992429Y-89395905D01*
X138944048Y-89444286D01*
X138895667Y-89541048D01*
X138895667Y-89734571D01*
X138944048Y-89831333D01*
X138992429Y-89879714D01*
X139089190Y-89928095D01*
X138508619Y-72439287D02*
X138508619Y-71829687D01*
X139524619Y-72348573D01*
X138847286Y-71131793D02*
X139524619Y-71216459D01*
X138460238Y-71301126D02*
X139185952Y-71609555D01*
X139185952Y-71043497D01*
X139524619Y-70737488D02*
X138508619Y-70610488D01*
X138992429Y-70670965D02*
X138992429Y-70148450D01*
X139524619Y-70214973D02*
X138508619Y-70087973D01*
X139427857Y-69244935D02*
X139476238Y-69294526D01*
X139524619Y-69431202D01*
X139524619Y-69518288D01*
X139476238Y-69642869D01*
X139379476Y-69717859D01*
X139282714Y-69749307D01*
X139089190Y-69768660D01*
X138944048Y-69750517D01*
X138750524Y-69682783D01*
X138653762Y-69627145D01*
X138557000Y-69527964D01*
X138508619Y-69391288D01*
X138508619Y-69304202D01*
X138557000Y-69179621D01*
X138605381Y-69142126D01*
X138508619Y-68302716D02*
X138508619Y-68738145D01*
X138992429Y-68842165D01*
X138944048Y-68792574D01*
X138895667Y-68699440D01*
X138895667Y-68481726D01*
X138944048Y-68400688D01*
X138992429Y-68363193D01*
X139089190Y-68331745D01*
X139331095Y-68361983D01*
X139427857Y-68417621D01*
X139476238Y-68467212D01*
X139524619Y-68560345D01*
X139524619Y-68778059D01*
X139476238Y-68859098D01*
X139427857Y-68896593D01*
X138508619Y-67954373D02*
X138508619Y-67344773D01*
X139524619Y-67863659D01*
X138508619Y-67083516D02*
X138508619Y-66517459D01*
X138895667Y-66870640D01*
X138895667Y-66740012D01*
X138944048Y-66658974D01*
X138992429Y-66621479D01*
X139089190Y-66590031D01*
X139331095Y-66620269D01*
X139427857Y-66675907D01*
X139476238Y-66725498D01*
X139524619Y-66818631D01*
X139524619Y-67079888D01*
X139476238Y-67160927D01*
X139427857Y-67198421D01*
X115721191Y-119038310D02*
X115721191Y-119522119D01*
X115382524Y-118506119D02*
X115721191Y-119038310D01*
X116059857Y-118506119D01*
X116930714Y-119522119D02*
X116350143Y-119522119D01*
X116640429Y-119522119D02*
X116640429Y-118506119D01*
X116543667Y-118651262D01*
X116446905Y-118748024D01*
X116350143Y-118796405D01*
X110066969Y-122633619D02*
X109892798Y-122633619D01*
X109799664Y-122682000D01*
X109750073Y-122730381D01*
X109644845Y-122875524D01*
X109577111Y-123069048D01*
X109528730Y-123456095D01*
X109560178Y-123552857D01*
X109597673Y-123601238D01*
X109678712Y-123649619D01*
X109852883Y-123649619D01*
X109946016Y-123601238D01*
X109995607Y-123552857D01*
X110051245Y-123456095D01*
X110081483Y-123214190D01*
X110050035Y-123117429D01*
X110012540Y-123069048D01*
X109931502Y-123020667D01*
X109757331Y-123020667D01*
X109664197Y-123069048D01*
X109614606Y-123117429D01*
X109558968Y-123214190D01*
X110431035Y-123552857D02*
X110468530Y-123601238D01*
X110418940Y-123649619D01*
X110381444Y-123601238D01*
X110431035Y-123552857D01*
X110418940Y-123649619D01*
X111333341Y-123649619D02*
X110810826Y-123649619D01*
X111072084Y-123649619D02*
X111199084Y-122633619D01*
X111093855Y-122778762D01*
X110994674Y-122875524D01*
X110901540Y-122923905D01*
X112201778Y-122972286D02*
X112117112Y-123649619D01*
X112032445Y-122585238D02*
X111724016Y-123310952D01*
X112290074Y-123310952D01*
X113072635Y-122972286D02*
X112987969Y-123649619D01*
X112903302Y-122585238D02*
X112594873Y-123310952D01*
X113160931Y-123310952D01*
X113466940Y-123649619D02*
X113593940Y-122633619D01*
X113808025Y-123359333D01*
X114203540Y-122633619D01*
X114076540Y-123649619D01*
X114511969Y-123649619D02*
X114638969Y-122633619D01*
X114578492Y-123117429D02*
X115101007Y-123117429D01*
X115034484Y-123649619D02*
X115161484Y-122633619D01*
X115467493Y-122972286D02*
X115946464Y-122972286D01*
X115382827Y-123649619D01*
X115861798Y-123649619D01*
X104917119Y-105769833D02*
X104433310Y-106108499D01*
X104917119Y-106350404D02*
X103901119Y-106350404D01*
X103901119Y-105963357D01*
X103949500Y-105866595D01*
X103997881Y-105818214D01*
X104094643Y-105769833D01*
X104239786Y-105769833D01*
X104336548Y-105818214D01*
X104384929Y-105866595D01*
X104433310Y-105963357D01*
X104433310Y-106350404D01*
X104917119Y-104753833D02*
X104433310Y-105092499D01*
X104917119Y-105334404D02*
X103901119Y-105334404D01*
X103901119Y-104947357D01*
X103949500Y-104850595D01*
X103997881Y-104802214D01*
X104094643Y-104753833D01*
X104239786Y-104753833D01*
X104336548Y-104802214D01*
X104384929Y-104850595D01*
X104433310Y-104947357D01*
X104433310Y-105334404D01*
X104917119Y-103786214D02*
X104917119Y-104366785D01*
X104917119Y-104076499D02*
X103901119Y-104076499D01*
X104046262Y-104173261D01*
X104143024Y-104270023D01*
X104191405Y-104366785D01*
X104239786Y-94160522D02*
X104917119Y-94245188D01*
X103852738Y-94329855D02*
X104578452Y-94638284D01*
X104578452Y-94072226D01*
X104820357Y-93754122D02*
X104868738Y-93716627D01*
X104917119Y-93766217D01*
X104868738Y-93803713D01*
X104820357Y-93754122D01*
X104917119Y-93766217D01*
X103901119Y-93290873D02*
X103901119Y-92681273D01*
X104917119Y-93200159D01*
X104917119Y-92459931D02*
X103901119Y-92332931D01*
X104530071Y-92324464D02*
X104917119Y-92111588D01*
X104239786Y-92026922D02*
X104626833Y-92423646D01*
X127459619Y-90212333D02*
X126975810Y-90550999D01*
X127459619Y-90792904D02*
X126443619Y-90792904D01*
X126443619Y-90405857D01*
X126492000Y-90309095D01*
X126540381Y-90260714D01*
X126637143Y-90212333D01*
X126782286Y-90212333D01*
X126879048Y-90260714D01*
X126927429Y-90309095D01*
X126975810Y-90405857D01*
X126975810Y-90792904D01*
X127459619Y-89196333D02*
X126975810Y-89534999D01*
X127459619Y-89776904D02*
X126443619Y-89776904D01*
X126443619Y-89389857D01*
X126492000Y-89293095D01*
X126540381Y-89244714D01*
X126637143Y-89196333D01*
X126782286Y-89196333D01*
X126879048Y-89244714D01*
X126927429Y-89293095D01*
X126975810Y-89389857D01*
X126975810Y-89776904D01*
X126540381Y-88809285D02*
X126492000Y-88760904D01*
X126443619Y-88664142D01*
X126443619Y-88422238D01*
X126492000Y-88325476D01*
X126540381Y-88277095D01*
X126637143Y-88228714D01*
X126733905Y-88228714D01*
X126879048Y-88277095D01*
X127459619Y-88857666D01*
X127459619Y-88228714D01*
X126782286Y-86540522D02*
X127459619Y-86625188D01*
X126395238Y-86709855D02*
X127120952Y-87018284D01*
X127120952Y-86452226D01*
X127362857Y-86134122D02*
X127411238Y-86096627D01*
X127459619Y-86146217D01*
X127411238Y-86183713D01*
X127362857Y-86134122D01*
X127459619Y-86146217D01*
X126443619Y-85670873D02*
X126443619Y-85061273D01*
X127459619Y-85580159D01*
X127459619Y-84839931D02*
X126443619Y-84712931D01*
X127072571Y-84704464D02*
X127459619Y-84491588D01*
X126782286Y-84406922D02*
X127169333Y-84803646D01*
X199054357Y-79737857D02*
X199005976Y-79786238D01*
X198860833Y-79834619D01*
X198764071Y-79834619D01*
X198618929Y-79786238D01*
X198522167Y-79689476D01*
X198473786Y-79592714D01*
X198425405Y-79399190D01*
X198425405Y-79254048D01*
X198473786Y-79060524D01*
X198522167Y-78963762D01*
X198618929Y-78867000D01*
X198764071Y-78818619D01*
X198860833Y-78818619D01*
X199005976Y-78867000D01*
X199054357Y-78915381D01*
X200021976Y-79834619D02*
X199441405Y-79834619D01*
X199731691Y-79834619D02*
X199731691Y-78818619D01*
X199634929Y-78963762D01*
X199538167Y-79060524D01*
X199441405Y-79108905D01*
X200989595Y-79834619D02*
X200409024Y-79834619D01*
X200699310Y-79834619D02*
X200699310Y-78818619D01*
X200602548Y-78963762D01*
X200505786Y-79060524D01*
X200409024Y-79108905D01*
X198281170Y-80088619D02*
X198368255Y-80088619D01*
X198449293Y-80137000D01*
X198486788Y-80185381D01*
X198518236Y-80282143D01*
X198537589Y-80475667D01*
X198507351Y-80717571D01*
X198439617Y-80911095D01*
X198383979Y-81007857D01*
X198334388Y-81056238D01*
X198241255Y-81104619D01*
X198154170Y-81104619D01*
X198073131Y-81056238D01*
X198035636Y-81007857D01*
X198004188Y-80911095D01*
X197984836Y-80717571D01*
X198015074Y-80475667D01*
X198082807Y-80282143D01*
X198138445Y-80185381D01*
X198188036Y-80137000D01*
X198281170Y-80088619D01*
X198862950Y-81007857D02*
X198900445Y-81056238D01*
X198850855Y-81104619D01*
X198813359Y-81056238D01*
X198862950Y-81007857D01*
X198850855Y-81104619D01*
X199765256Y-81104619D02*
X199242741Y-81104619D01*
X199503999Y-81104619D02*
X199630999Y-80088619D01*
X199525770Y-80233762D01*
X199426589Y-80330524D01*
X199333455Y-80378905D01*
X200633693Y-80427286D02*
X200549027Y-81104619D01*
X200241807Y-80427286D02*
X200175284Y-80959476D01*
X200206731Y-81056238D01*
X200287770Y-81104619D01*
X200418398Y-81104619D01*
X200511531Y-81056238D01*
X200561122Y-81007857D01*
X201355778Y-80572429D02*
X201050978Y-80572429D01*
X200984455Y-81104619D02*
X201111455Y-80088619D01*
X201546884Y-80088619D01*
X191382953Y-76272571D02*
X192157048Y-76272571D01*
X191770000Y-76659619D02*
X191770000Y-75885524D01*
X112122857Y-59708143D02*
X112171238Y-59756524D01*
X112219619Y-59901667D01*
X112219619Y-59998429D01*
X112171238Y-60143571D01*
X112074476Y-60240333D01*
X111977714Y-60288714D01*
X111784190Y-60337095D01*
X111639048Y-60337095D01*
X111445524Y-60288714D01*
X111348762Y-60240333D01*
X111252000Y-60143571D01*
X111203619Y-59998429D01*
X111203619Y-59901667D01*
X111252000Y-59756524D01*
X111300381Y-59708143D01*
X112219619Y-58740524D02*
X112219619Y-59321095D01*
X112219619Y-59030809D02*
X111203619Y-59030809D01*
X111348762Y-59127571D01*
X111445524Y-59224333D01*
X111493905Y-59321095D01*
X111300381Y-58353476D02*
X111252000Y-58305095D01*
X111203619Y-58208333D01*
X111203619Y-57966429D01*
X111252000Y-57869667D01*
X111300381Y-57821286D01*
X111397143Y-57772905D01*
X111493905Y-57772905D01*
X111639048Y-57821286D01*
X112219619Y-58401857D01*
X112219619Y-57772905D01*
X112219619Y-55522887D02*
X112219619Y-56045402D01*
X112219619Y-55784144D02*
X111203619Y-55657144D01*
X111348762Y-55762373D01*
X111445524Y-55861554D01*
X111493905Y-55954688D01*
X111542286Y-54654450D02*
X112219619Y-54739116D01*
X111542286Y-55046336D02*
X112074476Y-55112859D01*
X112171238Y-55081412D01*
X112219619Y-55000373D01*
X112219619Y-54869745D01*
X112171238Y-54776612D01*
X112122857Y-54727021D01*
X111687429Y-53932365D02*
X111687429Y-54237165D01*
X112219619Y-54303688D02*
X111203619Y-54176688D01*
X111203619Y-53741259D01*
X112467571Y-61347047D02*
X112467571Y-60572952D01*
X112854619Y-60960000D02*
X112080524Y-60960000D01*
X143872857Y-72408143D02*
X143921238Y-72456524D01*
X143969619Y-72601667D01*
X143969619Y-72698429D01*
X143921238Y-72843571D01*
X143824476Y-72940333D01*
X143727714Y-72988714D01*
X143534190Y-73037095D01*
X143389048Y-73037095D01*
X143195524Y-72988714D01*
X143098762Y-72940333D01*
X143002000Y-72843571D01*
X142953619Y-72698429D01*
X142953619Y-72601667D01*
X143002000Y-72456524D01*
X143050381Y-72408143D01*
X143969619Y-71440524D02*
X143969619Y-72021095D01*
X143969619Y-71730809D02*
X142953619Y-71730809D01*
X143098762Y-71827571D01*
X143195524Y-71924333D01*
X143243905Y-72021095D01*
X142953619Y-71101857D02*
X142953619Y-70472905D01*
X143340667Y-70811571D01*
X143340667Y-70666429D01*
X143389048Y-70569667D01*
X143437429Y-70521286D01*
X143534190Y-70472905D01*
X143776095Y-70472905D01*
X143872857Y-70521286D01*
X143921238Y-70569667D01*
X143969619Y-70666429D01*
X143969619Y-70956714D01*
X143921238Y-71053476D01*
X143872857Y-71101857D01*
X143969619Y-68975815D02*
X143969619Y-69498330D01*
X143969619Y-69237072D02*
X142953619Y-69110072D01*
X143098762Y-69215301D01*
X143195524Y-69314482D01*
X143243905Y-69407616D01*
X142953619Y-68282758D02*
X142953619Y-68195673D01*
X143002000Y-68114635D01*
X143050381Y-68077140D01*
X143147143Y-68045692D01*
X143340667Y-68026339D01*
X143582571Y-68056577D01*
X143776095Y-68124311D01*
X143872857Y-68179949D01*
X143921238Y-68229540D01*
X143969619Y-68322673D01*
X143969619Y-68409758D01*
X143921238Y-68490797D01*
X143872857Y-68528292D01*
X143776095Y-68559740D01*
X143582571Y-68579092D01*
X143340667Y-68548854D01*
X143147143Y-68481121D01*
X143050381Y-68425483D01*
X143002000Y-68375892D01*
X142953619Y-68282758D01*
X143292286Y-67236521D02*
X143969619Y-67321187D01*
X143292286Y-67628407D02*
X143824476Y-67694930D01*
X143921238Y-67663483D01*
X143969619Y-67582444D01*
X143969619Y-67451816D01*
X143921238Y-67358683D01*
X143872857Y-67309092D01*
X143437429Y-66514436D02*
X143437429Y-66819236D01*
X143969619Y-66885759D02*
X142953619Y-66758759D01*
X142953619Y-66323330D01*
X140407571Y-74047047D02*
X140407571Y-73272952D01*
X140794619Y-73660000D02*
X140020524Y-73660000D01*
X121584357Y-127997857D02*
X121535976Y-128046238D01*
X121390833Y-128094619D01*
X121294071Y-128094619D01*
X121148929Y-128046238D01*
X121052167Y-127949476D01*
X121003786Y-127852714D01*
X120955405Y-127659190D01*
X120955405Y-127514048D01*
X121003786Y-127320524D01*
X121052167Y-127223762D01*
X121148929Y-127127000D01*
X121294071Y-127078619D01*
X121390833Y-127078619D01*
X121535976Y-127127000D01*
X121584357Y-127175381D01*
X122551976Y-128094619D02*
X121971405Y-128094619D01*
X122261691Y-128094619D02*
X122261691Y-127078619D01*
X122164929Y-127223762D01*
X122068167Y-127320524D01*
X121971405Y-127368905D01*
X123471214Y-127078619D02*
X122987405Y-127078619D01*
X122939024Y-127562429D01*
X122987405Y-127514048D01*
X123084167Y-127465667D01*
X123326071Y-127465667D01*
X123422833Y-127514048D01*
X123471214Y-127562429D01*
X123519595Y-127659190D01*
X123519595Y-127901095D01*
X123471214Y-127997857D01*
X123422833Y-128046238D01*
X123326071Y-128094619D01*
X123084167Y-128094619D01*
X122987405Y-128046238D01*
X122939024Y-127997857D01*
X124577628Y-127078619D02*
X125143685Y-127078619D01*
X124790504Y-127465667D01*
X124921132Y-127465667D01*
X125002170Y-127514048D01*
X125039665Y-127562429D01*
X125071113Y-127659190D01*
X125040875Y-127901095D01*
X124985237Y-127997857D01*
X124935646Y-128046238D01*
X124842513Y-128094619D01*
X124581256Y-128094619D01*
X124500217Y-128046238D01*
X124462723Y-127997857D01*
X125448485Y-127078619D02*
X126014542Y-127078619D01*
X125661361Y-127465667D01*
X125791989Y-127465667D01*
X125873027Y-127514048D01*
X125910522Y-127562429D01*
X125941970Y-127659190D01*
X125911732Y-127901095D01*
X125856094Y-127997857D01*
X125806503Y-128046238D01*
X125713370Y-128094619D01*
X125452113Y-128094619D01*
X125371074Y-128046238D01*
X125333580Y-127997857D01*
X126364093Y-127417286D02*
X126237093Y-128433286D01*
X126358046Y-127465667D02*
X126451179Y-127417286D01*
X126625350Y-127417286D01*
X126706389Y-127465667D01*
X126743884Y-127514048D01*
X126775332Y-127610810D01*
X126739046Y-127901095D01*
X126683408Y-127997857D01*
X126633817Y-128046238D01*
X126540684Y-128094619D01*
X126366513Y-128094619D01*
X126285474Y-128046238D01*
X127478064Y-127562429D02*
X127173264Y-127562429D01*
X127106741Y-128094619D02*
X127233741Y-127078619D01*
X127669170Y-127078619D01*
X113964357Y-127997857D02*
X113915976Y-128046238D01*
X113770833Y-128094619D01*
X113674071Y-128094619D01*
X113528929Y-128046238D01*
X113432167Y-127949476D01*
X113383786Y-127852714D01*
X113335405Y-127659190D01*
X113335405Y-127514048D01*
X113383786Y-127320524D01*
X113432167Y-127223762D01*
X113528929Y-127127000D01*
X113674071Y-127078619D01*
X113770833Y-127078619D01*
X113915976Y-127127000D01*
X113964357Y-127175381D01*
X114931976Y-128094619D02*
X114351405Y-128094619D01*
X114641691Y-128094619D02*
X114641691Y-127078619D01*
X114544929Y-127223762D01*
X114448167Y-127320524D01*
X114351405Y-127368905D01*
X115802833Y-127417286D02*
X115802833Y-128094619D01*
X115560929Y-127030238D02*
X115319024Y-127755952D01*
X115947976Y-127755952D01*
X116957628Y-127078619D02*
X117523685Y-127078619D01*
X117170504Y-127465667D01*
X117301132Y-127465667D01*
X117382170Y-127514048D01*
X117419665Y-127562429D01*
X117451113Y-127659190D01*
X117420875Y-127901095D01*
X117365237Y-127997857D01*
X117315646Y-128046238D01*
X117222513Y-128094619D01*
X116961256Y-128094619D01*
X116880217Y-128046238D01*
X116842723Y-127997857D01*
X117828485Y-127078619D02*
X118394542Y-127078619D01*
X118041361Y-127465667D01*
X118171989Y-127465667D01*
X118253027Y-127514048D01*
X118290522Y-127562429D01*
X118321970Y-127659190D01*
X118291732Y-127901095D01*
X118236094Y-127997857D01*
X118186503Y-128046238D01*
X118093370Y-128094619D01*
X117832113Y-128094619D01*
X117751074Y-128046238D01*
X117713580Y-127997857D01*
X118744093Y-127417286D02*
X118617093Y-128433286D01*
X118738046Y-127465667D02*
X118831179Y-127417286D01*
X119005350Y-127417286D01*
X119086389Y-127465667D01*
X119123884Y-127514048D01*
X119155332Y-127610810D01*
X119119046Y-127901095D01*
X119063408Y-127997857D01*
X119013817Y-128046238D01*
X118920684Y-128094619D01*
X118746513Y-128094619D01*
X118665474Y-128046238D01*
X119858064Y-127562429D02*
X119553264Y-127562429D01*
X119486741Y-128094619D02*
X119613741Y-127078619D01*
X120049170Y-127078619D01*
X130634619Y-57001833D02*
X130150810Y-57340499D01*
X130634619Y-57582404D02*
X129618619Y-57582404D01*
X129618619Y-57195357D01*
X129667000Y-57098595D01*
X129715381Y-57050214D01*
X129812143Y-57001833D01*
X129957286Y-57001833D01*
X130054048Y-57050214D01*
X130102429Y-57098595D01*
X130150810Y-57195357D01*
X130150810Y-57582404D01*
X129715381Y-56614785D02*
X129667000Y-56566404D01*
X129618619Y-56469642D01*
X129618619Y-56227738D01*
X129667000Y-56130976D01*
X129715381Y-56082595D01*
X129812143Y-56034214D01*
X129908905Y-56034214D01*
X130054048Y-56082595D01*
X130634619Y-56663166D01*
X130634619Y-56034214D01*
X129957286Y-54638121D02*
X130634619Y-54722787D01*
X129570238Y-54807454D02*
X130295952Y-55115883D01*
X130295952Y-54549825D01*
X129618619Y-54203901D02*
X129618619Y-53594301D01*
X130634619Y-54113187D01*
X129618619Y-53071787D02*
X129618619Y-52984702D01*
X129667000Y-52903664D01*
X129715381Y-52866169D01*
X129812143Y-52834721D01*
X130005667Y-52815368D01*
X130247571Y-52845606D01*
X130441095Y-52913340D01*
X130537857Y-52968978D01*
X130586238Y-53018569D01*
X130634619Y-53111702D01*
X130634619Y-53198787D01*
X130586238Y-53279826D01*
X130537857Y-53317321D01*
X130441095Y-53348769D01*
X130247571Y-53368121D01*
X130005667Y-53337883D01*
X129812143Y-53270150D01*
X129715381Y-53214512D01*
X129667000Y-53164921D01*
X129618619Y-53071787D01*
X179565905Y-64848619D02*
X179565905Y-65671095D01*
X179614286Y-65767857D01*
X179662667Y-65816238D01*
X179759429Y-65864619D01*
X179952952Y-65864619D01*
X180049714Y-65816238D01*
X180098095Y-65767857D01*
X180146476Y-65671095D01*
X180146476Y-64848619D01*
X180533524Y-64848619D02*
X181210857Y-64848619D01*
X180775429Y-65864619D01*
X193016113Y-65864619D02*
X193143113Y-64848619D01*
X193357198Y-65574333D01*
X193752713Y-64848619D01*
X193625713Y-65864619D01*
X194053884Y-65574333D02*
X194489313Y-65574333D01*
X193930514Y-65864619D02*
X194362314Y-64848619D01*
X194540114Y-65864619D01*
X194884828Y-64848619D02*
X195367428Y-65864619D01*
X195494428Y-64848619D02*
X194757828Y-65864619D01*
X195787131Y-64945381D02*
X195836722Y-64897000D01*
X195929856Y-64848619D01*
X196147570Y-64848619D01*
X196228608Y-64897000D01*
X196266103Y-64945381D01*
X196297551Y-65042143D01*
X196285456Y-65138905D01*
X196223770Y-65284048D01*
X195628685Y-65864619D01*
X196194742Y-65864619D01*
X196626542Y-64848619D02*
X197192599Y-64848619D01*
X196839418Y-65235667D01*
X196970046Y-65235667D01*
X197051084Y-65284048D01*
X197088579Y-65332429D01*
X197120027Y-65429190D01*
X197089789Y-65671095D01*
X197034151Y-65767857D01*
X196984560Y-65816238D01*
X196891427Y-65864619D01*
X196630170Y-65864619D01*
X196549131Y-65816238D01*
X196511637Y-65767857D01*
X197528845Y-64945381D02*
X197578436Y-64897000D01*
X197671570Y-64848619D01*
X197889284Y-64848619D01*
X197970322Y-64897000D01*
X198007817Y-64945381D01*
X198039265Y-65042143D01*
X198027170Y-65138905D01*
X197965484Y-65284048D01*
X197370399Y-65864619D01*
X197936456Y-65864619D01*
X198321083Y-65574333D02*
X198756512Y-65574333D01*
X198197713Y-65864619D02*
X198629513Y-64848619D01*
X198807313Y-65864619D01*
X151625905Y-76278619D02*
X151625905Y-77101095D01*
X151674286Y-77197857D01*
X151722667Y-77246238D01*
X151819429Y-77294619D01*
X152012952Y-77294619D01*
X152109714Y-77246238D01*
X152158095Y-77197857D01*
X152206476Y-77101095D01*
X152206476Y-76278619D01*
X152835429Y-76714048D02*
X152738667Y-76665667D01*
X152690286Y-76617286D01*
X152641905Y-76520524D01*
X152641905Y-76472143D01*
X152690286Y-76375381D01*
X152738667Y-76327000D01*
X152835429Y-76278619D01*
X153028952Y-76278619D01*
X153125714Y-76327000D01*
X153174095Y-76375381D01*
X153222476Y-76472143D01*
X153222476Y-76520524D01*
X153174095Y-76617286D01*
X153125714Y-76665667D01*
X153028952Y-76714048D01*
X152835429Y-76714048D01*
X152738667Y-76762429D01*
X152690286Y-76810810D01*
X152641905Y-76907571D01*
X152641905Y-77101095D01*
X152690286Y-77197857D01*
X152738667Y-77246238D01*
X152835429Y-77294619D01*
X153028952Y-77294619D01*
X153125714Y-77246238D01*
X153174095Y-77197857D01*
X153222476Y-77101095D01*
X153222476Y-76907571D01*
X153174095Y-76810810D01*
X153125714Y-76762429D01*
X153028952Y-76714048D01*
X155647270Y-77294619D02*
X155774270Y-76278619D01*
X155991985Y-76278619D01*
X156116565Y-76327000D01*
X156191556Y-76423762D01*
X156223004Y-76520524D01*
X156242356Y-76714048D01*
X156224213Y-76859190D01*
X156156480Y-77052714D01*
X156100842Y-77149476D01*
X156001660Y-77246238D01*
X155864985Y-77294619D01*
X155647270Y-77294619D01*
X156524174Y-77246238D02*
X156648756Y-77294619D01*
X156866470Y-77294619D01*
X156959603Y-77246238D01*
X157009194Y-77197857D01*
X157064832Y-77101095D01*
X157076927Y-77004333D01*
X157045480Y-76907571D01*
X157007984Y-76859190D01*
X156926946Y-76810810D01*
X156758822Y-76762429D01*
X156677784Y-76714048D01*
X156640289Y-76665667D01*
X156608841Y-76568905D01*
X156620936Y-76472143D01*
X156676574Y-76375381D01*
X156726165Y-76327000D01*
X156819299Y-76278619D01*
X157037013Y-76278619D01*
X157161594Y-76327000D01*
X157911499Y-77294619D02*
X157388984Y-77294619D01*
X157650242Y-77294619D02*
X157777242Y-76278619D01*
X157672013Y-76423762D01*
X157572832Y-76520524D01*
X157479698Y-76568905D01*
X158374745Y-76375381D02*
X158424336Y-76327000D01*
X158517470Y-76278619D01*
X158735184Y-76278619D01*
X158816222Y-76327000D01*
X158853717Y-76375381D01*
X158885165Y-76472143D01*
X158873070Y-76568905D01*
X158811384Y-76714048D01*
X158216299Y-77294619D01*
X158782356Y-77294619D01*
X159653213Y-77294619D02*
X159130698Y-77294619D01*
X159391956Y-77294619D02*
X159518956Y-76278619D01*
X159413727Y-76423762D01*
X159314546Y-76520524D01*
X159221412Y-76568905D01*
X160346270Y-76278619D02*
X160433355Y-76278619D01*
X160514393Y-76327000D01*
X160551888Y-76375381D01*
X160583336Y-76472143D01*
X160602689Y-76665667D01*
X160572451Y-76907571D01*
X160504717Y-77101095D01*
X160449079Y-77197857D01*
X160399488Y-77246238D01*
X160306355Y-77294619D01*
X160219270Y-77294619D01*
X160138231Y-77246238D01*
X160100736Y-77197857D01*
X160069288Y-77101095D01*
X160049936Y-76907571D01*
X160080174Y-76665667D01*
X160147907Y-76472143D01*
X160203545Y-76375381D01*
X160253136Y-76327000D01*
X160346270Y-76278619D01*
X176360667Y-65767857D02*
X176312286Y-65816238D01*
X176167143Y-65864619D01*
X176070381Y-65864619D01*
X175925239Y-65816238D01*
X175828477Y-65719476D01*
X175780096Y-65622714D01*
X175731715Y-65429190D01*
X175731715Y-65284048D01*
X175780096Y-65090524D01*
X175828477Y-64993762D01*
X175925239Y-64897000D01*
X176070381Y-64848619D01*
X176167143Y-64848619D01*
X176312286Y-64897000D01*
X176360667Y-64945381D01*
X176699334Y-64848619D02*
X177376667Y-64848619D01*
X176941239Y-65864619D01*
X175103670Y-66118619D02*
X175190755Y-66118619D01*
X175271793Y-66167000D01*
X175309288Y-66215381D01*
X175340736Y-66312143D01*
X175360089Y-66505667D01*
X175329851Y-66747571D01*
X175262117Y-66941095D01*
X175206479Y-67037857D01*
X175156888Y-67086238D01*
X175063755Y-67134619D01*
X174976670Y-67134619D01*
X174895631Y-67086238D01*
X174858136Y-67037857D01*
X174826688Y-66941095D01*
X174807336Y-66747571D01*
X174837574Y-66505667D01*
X174905307Y-66312143D01*
X174960945Y-66215381D01*
X175010536Y-66167000D01*
X175103670Y-66118619D01*
X175685450Y-67037857D02*
X175722945Y-67086238D01*
X175673355Y-67134619D01*
X175635859Y-67086238D01*
X175685450Y-67037857D01*
X175673355Y-67134619D01*
X176587756Y-67134619D02*
X176065241Y-67134619D01*
X176326499Y-67134619D02*
X176453499Y-66118619D01*
X176348270Y-66263762D01*
X176249089Y-66360524D01*
X176155955Y-66408905D01*
X177456193Y-66457286D02*
X177371527Y-67134619D01*
X177064307Y-66457286D02*
X176997784Y-66989476D01*
X177029231Y-67086238D01*
X177110270Y-67134619D01*
X177240898Y-67134619D01*
X177334031Y-67086238D01*
X177383622Y-67037857D01*
X178178278Y-66602429D02*
X177873478Y-66602429D01*
X177806955Y-67134619D02*
X177933955Y-66118619D01*
X178369384Y-66118619D01*
X175332571Y-75317047D02*
X175332571Y-74542952D01*
X175719619Y-74930000D02*
X174945524Y-74930000D01*
X174138167Y-77197857D02*
X174089786Y-77246238D01*
X173944643Y-77294619D01*
X173847881Y-77294619D01*
X173702739Y-77246238D01*
X173605977Y-77149476D01*
X173557596Y-77052714D01*
X173509215Y-76859190D01*
X173509215Y-76714048D01*
X173557596Y-76520524D01*
X173605977Y-76423762D01*
X173702739Y-76327000D01*
X173847881Y-76278619D01*
X173944643Y-76278619D01*
X174089786Y-76327000D01*
X174138167Y-76375381D01*
X174718739Y-76714048D02*
X174621977Y-76665667D01*
X174573596Y-76617286D01*
X174525215Y-76520524D01*
X174525215Y-76472143D01*
X174573596Y-76375381D01*
X174621977Y-76327000D01*
X174718739Y-76278619D01*
X174912262Y-76278619D01*
X175009024Y-76327000D01*
X175057405Y-76375381D01*
X175105786Y-76472143D01*
X175105786Y-76520524D01*
X175057405Y-76617286D01*
X175009024Y-76665667D01*
X174912262Y-76714048D01*
X174718739Y-76714048D01*
X174621977Y-76762429D01*
X174573596Y-76810810D01*
X174525215Y-76907571D01*
X174525215Y-77101095D01*
X174573596Y-77197857D01*
X174621977Y-77246238D01*
X174718739Y-77294619D01*
X174912262Y-77294619D01*
X175009024Y-77246238D01*
X175057405Y-77197857D01*
X175105786Y-77101095D01*
X175105786Y-76907571D01*
X175057405Y-76810810D01*
X175009024Y-76762429D01*
X174912262Y-76714048D01*
X172881170Y-77548619D02*
X172968255Y-77548619D01*
X173049293Y-77597000D01*
X173086788Y-77645381D01*
X173118236Y-77742143D01*
X173137589Y-77935667D01*
X173107351Y-78177571D01*
X173039617Y-78371095D01*
X172983979Y-78467857D01*
X172934388Y-78516238D01*
X172841255Y-78564619D01*
X172754170Y-78564619D01*
X172673131Y-78516238D01*
X172635636Y-78467857D01*
X172604188Y-78371095D01*
X172584836Y-78177571D01*
X172615074Y-77935667D01*
X172682807Y-77742143D01*
X172738445Y-77645381D01*
X172788036Y-77597000D01*
X172881170Y-77548619D01*
X173462950Y-78467857D02*
X173500445Y-78516238D01*
X173450855Y-78564619D01*
X173413359Y-78516238D01*
X173462950Y-78467857D01*
X173450855Y-78564619D01*
X174365256Y-78564619D02*
X173842741Y-78564619D01*
X174103999Y-78564619D02*
X174230999Y-77548619D01*
X174125770Y-77693762D01*
X174026589Y-77790524D01*
X173933455Y-77838905D01*
X175233693Y-77887286D02*
X175149027Y-78564619D01*
X174841807Y-77887286D02*
X174775284Y-78419476D01*
X174806731Y-78516238D01*
X174887770Y-78564619D01*
X175018398Y-78564619D01*
X175111531Y-78516238D01*
X175161122Y-78467857D01*
X175955778Y-78032429D02*
X175650978Y-78032429D01*
X175584455Y-78564619D02*
X175711455Y-77548619D01*
X176146884Y-77548619D01*
X176142953Y-76272571D02*
X176917048Y-76272571D01*
X176530000Y-76659619D02*
X176530000Y-75885524D01*
X172447857Y-73511833D02*
X172496238Y-73560214D01*
X172544619Y-73705357D01*
X172544619Y-73802119D01*
X172496238Y-73947261D01*
X172399476Y-74044023D01*
X172302714Y-74092404D01*
X172109190Y-74140785D01*
X171964048Y-74140785D01*
X171770524Y-74092404D01*
X171673762Y-74044023D01*
X171577000Y-73947261D01*
X171528619Y-73802119D01*
X171528619Y-73705357D01*
X171577000Y-73560214D01*
X171625381Y-73511833D01*
X172544619Y-73028023D02*
X172544619Y-72834499D01*
X172496238Y-72737738D01*
X172447857Y-72689357D01*
X172302714Y-72592595D01*
X172109190Y-72544214D01*
X171722143Y-72544214D01*
X171625381Y-72592595D01*
X171577000Y-72640976D01*
X171528619Y-72737738D01*
X171528619Y-72931261D01*
X171577000Y-73028023D01*
X171625381Y-73076404D01*
X171722143Y-73124785D01*
X171964048Y-73124785D01*
X172060810Y-73076404D01*
X172109190Y-73028023D01*
X172157571Y-72931261D01*
X172157571Y-72737738D01*
X172109190Y-72640976D01*
X172060810Y-72592595D01*
X171964048Y-72544214D01*
X171528619Y-70641330D02*
X171528619Y-70554245D01*
X171577000Y-70473207D01*
X171625381Y-70435712D01*
X171722143Y-70404264D01*
X171915667Y-70384911D01*
X172157571Y-70415149D01*
X172351095Y-70482883D01*
X172447857Y-70538521D01*
X172496238Y-70588112D01*
X172544619Y-70681245D01*
X172544619Y-70768330D01*
X172496238Y-70849369D01*
X172447857Y-70886864D01*
X172351095Y-70918312D01*
X172157571Y-70937664D01*
X171915667Y-70907426D01*
X171722143Y-70839693D01*
X171625381Y-70784055D01*
X171577000Y-70734464D01*
X171528619Y-70641330D01*
X172447857Y-70059550D02*
X172496238Y-70022055D01*
X172544619Y-70071645D01*
X172496238Y-70109141D01*
X172447857Y-70059550D01*
X172544619Y-70071645D01*
X172544619Y-69157244D02*
X172544619Y-69679759D01*
X172544619Y-69418501D02*
X171528619Y-69291501D01*
X171673762Y-69396730D01*
X171770524Y-69495911D01*
X171818905Y-69589045D01*
X171867286Y-68288807D02*
X172544619Y-68373473D01*
X171867286Y-68680693D02*
X172399476Y-68747216D01*
X172496238Y-68715769D01*
X172544619Y-68634730D01*
X172544619Y-68504102D01*
X172496238Y-68410969D01*
X172447857Y-68361378D01*
X172012429Y-67566722D02*
X172012429Y-67871522D01*
X172544619Y-67938045D02*
X171528619Y-67811045D01*
X171528619Y-67375616D01*
X172792571Y-75317047D02*
X172792571Y-74542952D01*
X173179619Y-74930000D02*
X172405524Y-74930000D01*
X179686857Y-79737857D02*
X179638476Y-79786238D01*
X179493333Y-79834619D01*
X179396571Y-79834619D01*
X179251429Y-79786238D01*
X179154667Y-79689476D01*
X179106286Y-79592714D01*
X179057905Y-79399190D01*
X179057905Y-79254048D01*
X179106286Y-79060524D01*
X179154667Y-78963762D01*
X179251429Y-78867000D01*
X179396571Y-78818619D01*
X179493333Y-78818619D01*
X179638476Y-78867000D01*
X179686857Y-78915381D01*
X180654476Y-79834619D02*
X180073905Y-79834619D01*
X180364191Y-79834619D02*
X180364191Y-78818619D01*
X180267429Y-78963762D01*
X180170667Y-79060524D01*
X180073905Y-79108905D01*
X181283429Y-78818619D02*
X181380190Y-78818619D01*
X181476952Y-78867000D01*
X181525333Y-78915381D01*
X181573714Y-79012143D01*
X181622095Y-79205667D01*
X181622095Y-79447571D01*
X181573714Y-79641095D01*
X181525333Y-79737857D01*
X181476952Y-79786238D01*
X181380190Y-79834619D01*
X181283429Y-79834619D01*
X181186667Y-79786238D01*
X181138286Y-79737857D01*
X181089905Y-79641095D01*
X181041524Y-79447571D01*
X181041524Y-79205667D01*
X181089905Y-79012143D01*
X181138286Y-78915381D01*
X181186667Y-78867000D01*
X181283429Y-78818619D01*
X178913670Y-80088619D02*
X179000755Y-80088619D01*
X179081793Y-80137000D01*
X179119288Y-80185381D01*
X179150736Y-80282143D01*
X179170089Y-80475667D01*
X179139851Y-80717571D01*
X179072117Y-80911095D01*
X179016479Y-81007857D01*
X178966888Y-81056238D01*
X178873755Y-81104619D01*
X178786670Y-81104619D01*
X178705631Y-81056238D01*
X178668136Y-81007857D01*
X178636688Y-80911095D01*
X178617336Y-80717571D01*
X178647574Y-80475667D01*
X178715307Y-80282143D01*
X178770945Y-80185381D01*
X178820536Y-80137000D01*
X178913670Y-80088619D01*
X179495450Y-81007857D02*
X179532945Y-81056238D01*
X179483355Y-81104619D01*
X179445859Y-81056238D01*
X179495450Y-81007857D01*
X179483355Y-81104619D01*
X180397756Y-81104619D02*
X179875241Y-81104619D01*
X180136499Y-81104619D02*
X180263499Y-80088619D01*
X180158270Y-80233762D01*
X180059089Y-80330524D01*
X179965955Y-80378905D01*
X181266193Y-80427286D02*
X181181527Y-81104619D01*
X180874307Y-80427286D02*
X180807784Y-80959476D01*
X180839231Y-81056238D01*
X180920270Y-81104619D01*
X181050898Y-81104619D01*
X181144031Y-81056238D01*
X181193622Y-81007857D01*
X181988278Y-80572429D02*
X181683478Y-80572429D01*
X181616955Y-81104619D02*
X181743955Y-80088619D01*
X182179384Y-80088619D01*
X183762953Y-76272571D02*
X184537048Y-76272571D01*
X184150000Y-76659619D02*
X184150000Y-75885524D01*
X191277119Y-60439904D02*
X190261119Y-60439904D01*
X190261119Y-60052857D01*
X190309500Y-59956095D01*
X190357881Y-59907714D01*
X190454643Y-59859333D01*
X190599786Y-59859333D01*
X190696548Y-59907714D01*
X190744929Y-59956095D01*
X190793310Y-60052857D01*
X190793310Y-60439904D01*
X190261119Y-59520666D02*
X190261119Y-58891714D01*
X190648167Y-59230380D01*
X190648167Y-59085238D01*
X190696548Y-58988476D01*
X190744929Y-58940095D01*
X190841690Y-58891714D01*
X191083595Y-58891714D01*
X191180357Y-58940095D01*
X191228738Y-58988476D01*
X191277119Y-59085238D01*
X191277119Y-59375523D01*
X191228738Y-59472285D01*
X191180357Y-59520666D01*
X191228738Y-56449384D02*
X191277119Y-56324802D01*
X191277119Y-56107088D01*
X191228738Y-56013955D01*
X191180357Y-55964364D01*
X191083595Y-55908726D01*
X190986833Y-55896631D01*
X190890071Y-55928078D01*
X190841690Y-55965574D01*
X190793310Y-56046612D01*
X190744929Y-56214736D01*
X190696548Y-56295774D01*
X190648167Y-56333269D01*
X190551405Y-56364717D01*
X190454643Y-56352622D01*
X190357881Y-56296984D01*
X190309500Y-56247393D01*
X190261119Y-56154259D01*
X190261119Y-55936545D01*
X190309500Y-55811964D01*
X190744929Y-55474508D02*
X190744929Y-55169708D01*
X191277119Y-55105602D02*
X191277119Y-55541031D01*
X190261119Y-55414031D01*
X190261119Y-54978602D01*
X191277119Y-54191202D02*
X190793310Y-54435526D01*
X191277119Y-54713717D02*
X190261119Y-54586717D01*
X190261119Y-54238374D01*
X190309500Y-54157336D01*
X190357881Y-54119841D01*
X190454643Y-54088393D01*
X190599786Y-54106536D01*
X190696548Y-54162174D01*
X190744929Y-54211765D01*
X190793310Y-54304898D01*
X190793310Y-54653241D01*
X191277119Y-53799317D02*
X190261119Y-53672317D01*
X190986833Y-53371146D02*
X190986833Y-52935717D01*
X191277119Y-53494516D02*
X190261119Y-53062716D01*
X191277119Y-52884916D01*
X191277119Y-52144688D02*
X191277119Y-52580117D01*
X190261119Y-52453117D01*
X158828619Y-116344095D02*
X159651095Y-116344095D01*
X159747857Y-116295714D01*
X159796238Y-116247333D01*
X159844619Y-116150571D01*
X159844619Y-115957048D01*
X159796238Y-115860286D01*
X159747857Y-115811905D01*
X159651095Y-115763524D01*
X158828619Y-115763524D01*
X159167286Y-114844286D02*
X159844619Y-114844286D01*
X158780238Y-115086190D02*
X159505952Y-115328095D01*
X159505952Y-114699143D01*
X158828619Y-85311644D02*
X158828619Y-85485815D01*
X158877000Y-85578949D01*
X158925381Y-85628540D01*
X159070524Y-85733768D01*
X159264048Y-85801502D01*
X159651095Y-85849883D01*
X159747857Y-85818435D01*
X159796238Y-85780940D01*
X159844619Y-85699901D01*
X159844619Y-85525730D01*
X159796238Y-85432597D01*
X159747857Y-85383006D01*
X159651095Y-85327368D01*
X159409190Y-85297130D01*
X159312429Y-85328578D01*
X159264048Y-85366073D01*
X159215667Y-85447111D01*
X159215667Y-85621282D01*
X159264048Y-85714416D01*
X159312429Y-85764007D01*
X159409190Y-85819645D01*
X158925381Y-84888312D02*
X158877000Y-84838721D01*
X158828619Y-84745587D01*
X158828619Y-84527873D01*
X158877000Y-84446835D01*
X158925381Y-84409340D01*
X159022143Y-84377892D01*
X159118905Y-84389987D01*
X159264048Y-84451673D01*
X159844619Y-85046758D01*
X159844619Y-84480701D01*
X158925381Y-84017455D02*
X158877000Y-83967864D01*
X158828619Y-83874730D01*
X158828619Y-83657016D01*
X158877000Y-83575978D01*
X158925381Y-83538483D01*
X159022143Y-83507035D01*
X159118905Y-83519130D01*
X159264048Y-83580816D01*
X159844619Y-84175901D01*
X159844619Y-83609844D01*
X158828619Y-82655530D02*
X158828619Y-83090959D01*
X159312429Y-83194979D01*
X159264048Y-83145388D01*
X159215667Y-83052254D01*
X159215667Y-82834540D01*
X159264048Y-82753502D01*
X159312429Y-82716007D01*
X159409190Y-82684559D01*
X159651095Y-82714797D01*
X159747857Y-82770435D01*
X159796238Y-82820026D01*
X159844619Y-82913159D01*
X159844619Y-83130873D01*
X159796238Y-83211912D01*
X159747857Y-83249407D01*
X158828619Y-81828216D02*
X158828619Y-82002387D01*
X158877000Y-82095521D01*
X158925381Y-82145112D01*
X159070524Y-82250340D01*
X159264048Y-82318074D01*
X159651095Y-82366455D01*
X159747857Y-82335007D01*
X159796238Y-82297512D01*
X159844619Y-82216473D01*
X159844619Y-82042302D01*
X159796238Y-81949169D01*
X159747857Y-81899578D01*
X159651095Y-81843940D01*
X159409190Y-81813702D01*
X159312429Y-81845150D01*
X159264048Y-81882645D01*
X159215667Y-81963683D01*
X159215667Y-82137854D01*
X159264048Y-82230988D01*
X159312429Y-82280579D01*
X159409190Y-82336217D01*
X144665096Y-67452119D02*
X144665096Y-66436119D01*
X145052143Y-66436119D01*
X145148905Y-66484500D01*
X145197286Y-66532881D01*
X145245667Y-66629643D01*
X145245667Y-66774786D01*
X145197286Y-66871548D01*
X145148905Y-66919929D01*
X145052143Y-66968310D01*
X144665096Y-66968310D01*
X146164905Y-66436119D02*
X145681096Y-66436119D01*
X145632715Y-66919929D01*
X145681096Y-66871548D01*
X145777858Y-66823167D01*
X146019762Y-66823167D01*
X146116524Y-66871548D01*
X146164905Y-66919929D01*
X146213286Y-67016690D01*
X146213286Y-67258595D01*
X146164905Y-67355357D01*
X146116524Y-67403738D01*
X146019762Y-67452119D01*
X145777858Y-67452119D01*
X145681096Y-67403738D01*
X145632715Y-67355357D01*
X147163670Y-66436119D02*
X147341470Y-67452119D01*
X147773270Y-66436119D01*
X148322392Y-66919929D02*
X148446974Y-66968310D01*
X148484469Y-67016690D01*
X148515917Y-67113452D01*
X148497774Y-67258595D01*
X148442136Y-67355357D01*
X148392545Y-67403738D01*
X148299412Y-67452119D01*
X147951069Y-67452119D01*
X148078069Y-66436119D01*
X148382869Y-66436119D01*
X148463907Y-66484500D01*
X148501402Y-66532881D01*
X148532850Y-66629643D01*
X148520755Y-66726405D01*
X148465117Y-66823167D01*
X148415526Y-66871548D01*
X148322392Y-66919929D01*
X148017592Y-66919929D01*
X148858211Y-67161833D02*
X149293640Y-67161833D01*
X148734841Y-67452119D02*
X149166641Y-66436119D01*
X149344441Y-67452119D01*
X149645612Y-66436119D02*
X150168126Y-66436119D01*
X149779869Y-67452119D02*
X149906869Y-66436119D01*
X139207119Y-61074904D02*
X138191119Y-61074904D01*
X138191119Y-60832999D01*
X138239500Y-60687857D01*
X138336262Y-60591095D01*
X138433024Y-60542714D01*
X138626548Y-60494333D01*
X138771690Y-60494333D01*
X138965214Y-60542714D01*
X139061976Y-60591095D01*
X139158738Y-60687857D01*
X139207119Y-60832999D01*
X139207119Y-61074904D01*
X138287881Y-60107285D02*
X138239500Y-60058904D01*
X138191119Y-59962142D01*
X138191119Y-59720238D01*
X138239500Y-59623476D01*
X138287881Y-59575095D01*
X138384643Y-59526714D01*
X138481405Y-59526714D01*
X138626548Y-59575095D01*
X139207119Y-60155666D01*
X139207119Y-59526714D01*
X139207119Y-54610302D02*
X138191119Y-54483302D01*
X138191119Y-54134959D01*
X138239500Y-54053921D01*
X138287881Y-54016426D01*
X138384643Y-53984978D01*
X138529786Y-54003121D01*
X138626548Y-54058759D01*
X138674929Y-54108350D01*
X138723310Y-54201483D01*
X138723310Y-54549826D01*
X138191119Y-53655987D02*
X139207119Y-53565273D01*
X138481405Y-53300388D01*
X139207119Y-53216930D01*
X138191119Y-52872216D01*
X139207119Y-52128358D02*
X138723310Y-52372682D01*
X139207119Y-52650873D02*
X138191119Y-52523873D01*
X138191119Y-52175530D01*
X138239500Y-52094492D01*
X138287881Y-52056997D01*
X138384643Y-52025549D01*
X138529786Y-52043692D01*
X138626548Y-52099330D01*
X138674929Y-52148921D01*
X138723310Y-52242054D01*
X138723310Y-52590397D01*
X117995096Y-63324619D02*
X117995096Y-62308619D01*
X118237001Y-62308619D01*
X118382143Y-62357000D01*
X118478905Y-62453762D01*
X118527286Y-62550524D01*
X118575667Y-62744048D01*
X118575667Y-62889190D01*
X118527286Y-63082714D01*
X118478905Y-63179476D01*
X118382143Y-63276238D01*
X118237001Y-63324619D01*
X117995096Y-63324619D01*
X119543286Y-63324619D02*
X118962715Y-63324619D01*
X119253001Y-63324619D02*
X119253001Y-62308619D01*
X119156239Y-62453762D01*
X119059477Y-62550524D01*
X118962715Y-62598905D01*
X124989470Y-65229619D02*
X124466955Y-65229619D01*
X124728213Y-65229619D02*
X124855213Y-64213619D01*
X124749984Y-64358762D01*
X124650803Y-64455524D01*
X124557669Y-64503905D01*
X125381355Y-65229619D02*
X125508355Y-64213619D01*
X125903870Y-65229619D01*
X126030870Y-64213619D01*
X126815850Y-64552286D02*
X126731184Y-65229619D01*
X126646517Y-64165238D02*
X126338088Y-64890952D01*
X126904146Y-64890952D01*
X127689127Y-65229619D02*
X127166612Y-65229619D01*
X127427870Y-65229619D02*
X127554870Y-64213619D01*
X127449641Y-64358762D01*
X127350460Y-64455524D01*
X127257326Y-64503905D01*
X128557564Y-64552286D02*
X128472898Y-65229619D01*
X128388231Y-64165238D02*
X128079802Y-64890952D01*
X128645860Y-64890952D01*
X129155069Y-64649048D02*
X129074031Y-64600667D01*
X129036535Y-64552286D01*
X129005088Y-64455524D01*
X129011135Y-64407143D01*
X129066773Y-64310381D01*
X129116364Y-64262000D01*
X129209498Y-64213619D01*
X129383669Y-64213619D01*
X129464707Y-64262000D01*
X129502202Y-64310381D01*
X129533650Y-64407143D01*
X129527603Y-64455524D01*
X129471964Y-64552286D01*
X129422374Y-64600667D01*
X129329240Y-64649048D01*
X129155069Y-64649048D01*
X129061935Y-64697429D01*
X129012345Y-64745810D01*
X128956707Y-64842571D01*
X128932516Y-65036095D01*
X128963964Y-65132857D01*
X129001459Y-65181238D01*
X129082498Y-65229619D01*
X129256669Y-65229619D01*
X129349802Y-65181238D01*
X129399393Y-65132857D01*
X129455031Y-65036095D01*
X129479222Y-64842571D01*
X129447774Y-64745810D01*
X129410278Y-64697429D01*
X129329240Y-64649048D01*
M02*
