M48
;DRILL file {KiCad 4.0.1-stable} date 4/8/2017 12:25:25 PM
;FORMAT={-:-/ absolute / inch / decimal}
FMAT,2
INCH,TZ
T1C0.025
T2C0.032
T3C0.039
T4C0.040
T5C0.041
T6C0.050
T7C0.059
T8C0.102
T9C0.120
T10C0.120
T11C0.122
%
G90
G05
M72
T1
X4.3375Y-2.5375
X4.4625Y-3.7875
X4.4625Y-4.0375
X4.4625Y-4.35
X4.5Y-3.875
X4.5Y-3.975
X4.5375Y-3.75
X4.55Y-4.2875
X4.55Y-4.3875
X4.6Y-4.2875
X4.675Y-4.3
X4.6875Y-3.6
X4.75Y-2.825
X4.9375Y-4.2
X4.95Y-4.6
X5.025Y-3.55
X5.05Y-4.9
X5.1875Y-2.95
X5.1875Y-3.05
X5.2375Y-4.0125
X5.2875Y-4.3375
X5.325Y-2.9
X5.325Y-3.2
X5.325Y-4.275
X5.4875Y-4.9375
X5.525Y-3.5
X5.525Y-3.75
X5.55Y-4.6625
X5.7625Y-3.75
X5.85Y-3.0375
X5.9Y-4.425
X5.9Y-4.5875
X5.95Y-4.1
X6.Y-4.2
X6.0375Y-4.
X6.075Y-3.8
X6.1125Y-4.3
X6.15Y-4.4
X6.2Y-4.75
X6.2625Y-3.0875
X6.35Y-4.6875
X6.475Y-4.6
X6.5125Y-3.35
X6.5125Y-4.25
X6.55Y-3.0875
X6.55Y-3.3
X6.55Y-3.45
X6.55Y-4.15
X6.65Y-3.55
X6.65Y-4.05
X6.6875Y-3.6375
X6.6875Y-3.8375
X6.725Y-3.4
X6.725Y-3.9
X6.85Y-3.5
X6.8875Y-3.7
X7.25Y-3.3
X7.3875Y-4.55
X7.4125Y-4.85
X7.5Y-3.275
X7.525Y-4.
X7.575Y-2.85
T2
X4.2Y-3.65
X4.2Y-3.75
X4.2Y-3.85
X4.2Y-3.95
X4.2Y-4.05
X4.2Y-4.15
X4.3Y-2.65
X4.3Y-2.75
X4.3Y-2.85
X4.3Y-2.95
X4.3Y-3.05
X4.3Y-3.15
X4.3Y-3.25
X4.3Y-3.35
X4.3Y-3.45
X4.3Y-3.55
X4.3Y-3.65
X4.3Y-3.75
X4.3Y-3.85
X4.3Y-3.95
X4.3Y-4.05
X4.3Y-4.15
X4.3Y-4.25
X4.3Y-4.35
X4.3Y-4.45
X4.3Y-4.55
X4.3Y-4.75
X4.475Y-2.15
X4.475Y-2.25
X4.475Y-2.35
X4.5Y-4.75
X4.5Y-4.95
X4.6Y-2.1
X4.6Y-2.4
X4.7Y-4.95
X4.7039Y-4.8
X4.75Y-2.375
X4.75Y-2.475
X4.8Y-4.95
X4.8961Y-4.8
X4.9Y-2.65
X4.9Y-2.75
X4.9Y-2.85
X4.9Y-2.95
X4.9Y-3.05
X4.9Y-3.15
X4.9Y-3.25
X4.9Y-3.35
X4.9Y-3.45
X4.9Y-3.55
X4.9Y-3.65
X4.9Y-3.75
X4.9Y-3.85
X4.9Y-3.95
X4.9Y-4.05
X4.9Y-4.15
X4.9Y-4.25
X4.9Y-4.35
X4.9Y-4.45
X4.9Y-4.55
X5.Y-3.65
X5.Y-3.75
X5.Y-3.85
X5.Y-3.95
X5.Y-4.05
X5.Y-4.15
X5.Y-4.95
X5.05Y-2.375
X5.05Y-2.475
X5.1Y-2.65
X5.1Y-2.75
X5.1Y-2.85
X5.1Y-2.95
X5.1Y-3.05
X5.1Y-3.15
X5.1Y-3.25
X5.1Y-3.35
X5.1Y-3.45
X5.1Y-3.55
X5.1Y-3.7
X5.1Y-3.9
X5.1Y-4.
X5.1Y-4.1
X5.1Y-4.2
X5.1Y-4.3
X5.1Y-4.4
X5.1Y-4.5
X5.1Y-4.6
X5.1Y-4.7
X5.1Y-4.8
X5.1Y-4.95
X5.2Y-2.1
X5.2Y-2.4
X5.3Y-3.7
X5.3Y-4.95
X5.35Y-2.3
X5.35Y-2.4
X5.4Y-2.65
X5.4Y-2.75
X5.4Y-2.85
X5.4Y-2.95
X5.4Y-3.05
X5.4Y-3.15
X5.4Y-3.25
X5.4Y-3.35
X5.4Y-3.45
X5.4Y-3.55
X5.4Y-3.9
X5.4Y-4.
X5.4Y-4.1
X5.4Y-4.2
X5.4Y-4.3
X5.4Y-4.4
X5.4Y-4.5
X5.4Y-4.6
X5.4Y-4.7
X5.4Y-4.8
X5.575Y-2.65
X5.575Y-2.75
X5.575Y-2.85
X5.6Y-3.25
X5.6Y-3.35
X5.6Y-3.45
X5.6Y-3.55
X5.6Y-3.65
X5.6Y-3.75
X5.6Y-3.85
X5.6Y-3.95
X5.6Y-4.05
X5.6Y-4.15
X5.6Y-4.25
X5.6Y-4.35
X5.6Y-4.45
X5.6Y-4.55
X5.6Y-4.75
X5.8Y-4.75
X6.Y-2.65
X6.Y-2.95
X6.1Y-2.65
X6.1Y-2.95
X6.2Y-2.65
X6.2Y-2.95
X6.2Y-3.25
X6.2Y-3.35
X6.2Y-3.45
X6.2Y-3.55
X6.2Y-3.65
X6.2Y-3.75
X6.2Y-3.85
X6.2Y-3.95
X6.2Y-4.05
X6.2Y-4.15
X6.2Y-4.25
X6.2Y-4.35
X6.2Y-4.45
X6.2Y-4.55
X6.3Y-2.65
X6.3Y-2.95
X6.4Y-3.25
X6.4Y-3.35
X6.4Y-3.45
X6.4Y-3.55
X6.4Y-3.65
X6.4Y-3.75
X6.4Y-3.85
X6.4Y-3.95
X6.4Y-4.05
X6.4Y-4.15
X6.4Y-4.25
X6.4Y-4.35
X6.4Y-4.45
X6.4Y-4.55
X6.4Y-4.75
X6.6Y-4.75
X6.85Y-2.7
X6.85Y-2.8
X6.85Y-2.9
X6.95Y-2.7
X6.95Y-2.8
X6.95Y-2.9
X7.Y-3.05
X7.Y-3.25
X7.Y-3.35
X7.Y-3.45
X7.Y-3.55
X7.Y-3.65
X7.Y-3.75
X7.Y-3.85
X7.Y-3.95
X7.Y-4.05
X7.Y-4.15
X7.Y-4.25
X7.Y-4.35
X7.Y-4.45
X7.Y-4.55
X7.1Y-2.65
X7.1Y-2.95
X7.1Y-3.05
X7.2Y-2.65
X7.2Y-2.95
X7.2Y-3.05
X7.2Y-3.25
X7.2Y-3.35
X7.2Y-3.45
X7.2Y-3.55
X7.2Y-3.65
X7.2Y-3.75
X7.2Y-3.85
X7.2Y-3.95
X7.2Y-4.05
X7.2Y-4.15
X7.2Y-4.25
X7.2Y-4.35
X7.2Y-4.45
X7.2Y-4.55
X7.2Y-4.75
X7.3Y-2.65
X7.3Y-2.95
X7.3Y-3.05
X7.4Y-2.65
X7.4Y-2.95
X7.4Y-3.05
X7.4Y-4.75
X7.5Y-2.65
X7.5Y-2.95
X7.5Y-3.05
X7.6Y-2.65
X7.6Y-2.95
X7.6Y-3.05
X7.7Y-2.65
X7.7Y-2.95
X7.7Y-3.05
X7.8Y-2.65
X7.8Y-2.95
X7.8Y-3.05
X7.8Y-3.25
X7.8Y-3.35
X7.8Y-3.45
X7.8Y-3.55
X7.8Y-3.65
X7.8Y-3.75
X7.8Y-3.85
X7.8Y-3.95
X7.8Y-4.05
X7.8Y-4.15
X7.8Y-4.25
X7.8Y-4.35
X7.8Y-4.45
X7.8Y-4.55
T3
X4.8115Y-2.1016
X4.9887Y-2.1016
T4
X4.2Y-4.35
X4.2Y-4.45
X4.2Y-4.55
X5.Y-4.35
X5.Y-4.45
X5.Y-4.55
X5.6Y-4.95
X5.6Y-5.05
X5.7Y-4.95
X5.7Y-5.05
X5.75Y-2.8
X5.8Y-4.95
X5.8Y-5.05
X5.85Y-2.8
X5.9Y-4.95
X5.9Y-5.05
X6.Y-4.95
X6.Y-5.05
X6.1Y-4.95
X6.1Y-5.05
X6.2Y-4.95
X6.2Y-5.05
X6.3Y-4.95
X6.3Y-5.05
X6.4Y-4.95
X6.4Y-5.05
X6.5Y-2.65
X6.5Y-2.75
X6.5Y-2.85
X6.5Y-4.95
X6.5Y-5.05
X6.6Y-2.75
X6.6Y-2.85
X6.6Y-2.95
X6.6Y-4.95
X6.6Y-5.05
X6.7Y-4.95
X6.7Y-5.05
X6.8Y-4.95
X6.8Y-5.05
X6.9Y-4.95
X6.9Y-5.05
X7.Y-4.95
X7.Y-5.05
X7.1Y-4.95
X7.1Y-5.05
X7.2Y-4.95
X7.2Y-5.05
X7.3Y-4.95
X7.3Y-5.05
X7.4Y-4.95
X7.4Y-5.05
X7.5Y-4.95
X7.5Y-5.05
T5
X6.634Y-2.356
X6.688Y-2.244
X6.742Y-2.356
X6.796Y-2.244
X6.85Y-2.356
X6.905Y-2.244
X6.958Y-2.356
X7.012Y-2.244
X7.066Y-2.356
T6
X5.35Y-2.15
T7
X4.7623Y-2.2
X5.0379Y-2.2
T8
X5.611Y-2.2931
X5.8Y-2.175
T9
X4.2283Y-2.1969
X4.2283Y-4.9528
X7.7717Y-2.1969
X7.7717Y-4.9528
T10
X6.3581Y-2.3
X7.3419Y-2.3
T11
X5.8Y-2.4191
T0
M30
