G04 #@! TF.FileFunction,Legend,Bot*
%FSLAX46Y46*%
G04 Gerber Fmt 4.6, Leading zero omitted, Abs format (unit mm)*
G04 Created by KiCad (PCBNEW 4.0.1-stable) date 4/8/2017 12:25:21 PM*
%MOMM*%
G01*
G04 APERTURE LIST*
%ADD10C,0.150000*%
%ADD11C,0.152400*%
%ADD12C,0.203200*%
%ADD13C,0.300000*%
%ADD14C,0.200000*%
%ADD15C,0.304800*%
%ADD16C,0.002540*%
G04 APERTURE END LIST*
D10*
D11*
X170252571Y-69432714D02*
X170071142Y-70194714D01*
X169925999Y-69650429D01*
X169780857Y-70194714D01*
X169599428Y-69432714D01*
X168873714Y-70194714D02*
X169127714Y-69831857D01*
X169309142Y-70194714D02*
X169309142Y-69432714D01*
X169018857Y-69432714D01*
X168946285Y-69469000D01*
X168910000Y-69505286D01*
X168873714Y-69577857D01*
X168873714Y-69686714D01*
X168910000Y-69759286D01*
X168946285Y-69795571D01*
X169018857Y-69831857D01*
X169309142Y-69831857D01*
X170361428Y-69301360D02*
X168728571Y-69301360D01*
X170878500Y-74512714D02*
X170624500Y-75274714D01*
X170370500Y-74512714D01*
X169681071Y-75202143D02*
X169717357Y-75238429D01*
X169826214Y-75274714D01*
X169898785Y-75274714D01*
X170007642Y-75238429D01*
X170080214Y-75165857D01*
X170116499Y-75093286D01*
X170152785Y-74948143D01*
X170152785Y-74839286D01*
X170116499Y-74694143D01*
X170080214Y-74621571D01*
X170007642Y-74549000D01*
X169898785Y-74512714D01*
X169826214Y-74512714D01*
X169717357Y-74549000D01*
X169681071Y-74585286D01*
X168919071Y-75202143D02*
X168955357Y-75238429D01*
X169064214Y-75274714D01*
X169136785Y-75274714D01*
X169245642Y-75238429D01*
X169318214Y-75165857D01*
X169354499Y-75093286D01*
X169390785Y-74948143D01*
X169390785Y-74839286D01*
X169354499Y-74694143D01*
X169318214Y-74621571D01*
X169245642Y-74549000D01*
X169136785Y-74512714D01*
X169064214Y-74512714D01*
X168955357Y-74549000D01*
X168919071Y-74585286D01*
X163893500Y-66892714D02*
X163639500Y-67654714D01*
X163385500Y-66892714D01*
X162696071Y-67582143D02*
X162732357Y-67618429D01*
X162841214Y-67654714D01*
X162913785Y-67654714D01*
X163022642Y-67618429D01*
X163095214Y-67545857D01*
X163131499Y-67473286D01*
X163167785Y-67328143D01*
X163167785Y-67219286D01*
X163131499Y-67074143D01*
X163095214Y-67001571D01*
X163022642Y-66929000D01*
X162913785Y-66892714D01*
X162841214Y-66892714D01*
X162732357Y-66929000D01*
X162696071Y-66965286D01*
X161934071Y-67582143D02*
X161970357Y-67618429D01*
X162079214Y-67654714D01*
X162151785Y-67654714D01*
X162260642Y-67618429D01*
X162333214Y-67545857D01*
X162369499Y-67473286D01*
X162405785Y-67328143D01*
X162405785Y-67219286D01*
X162369499Y-67074143D01*
X162333214Y-67001571D01*
X162260642Y-66929000D01*
X162151785Y-66892714D01*
X162079214Y-66892714D01*
X161970357Y-66929000D01*
X161934071Y-66965286D01*
X172429714Y-72734714D02*
X172683714Y-72371857D01*
X172865142Y-72734714D02*
X172865142Y-71972714D01*
X172574857Y-71972714D01*
X172502285Y-72009000D01*
X172466000Y-72045286D01*
X172429714Y-72117857D01*
X172429714Y-72226714D01*
X172466000Y-72299286D01*
X172502285Y-72335571D01*
X172574857Y-72371857D01*
X172865142Y-72371857D01*
X171958000Y-71972714D02*
X171812857Y-71972714D01*
X171740285Y-72009000D01*
X171667714Y-72081571D01*
X171631428Y-72226714D01*
X171631428Y-72480714D01*
X171667714Y-72625857D01*
X171740285Y-72698429D01*
X171812857Y-72734714D01*
X171958000Y-72734714D01*
X172030571Y-72698429D01*
X172103142Y-72625857D01*
X172139428Y-72480714D01*
X172139428Y-72226714D01*
X172103142Y-72081571D01*
X172030571Y-72009000D01*
X171958000Y-71972714D01*
X171304856Y-72734714D02*
X171304856Y-71972714D01*
X171050856Y-72517000D01*
X170796856Y-71972714D01*
X170796856Y-72734714D01*
X170615428Y-72807286D02*
X170034857Y-72807286D01*
X169889714Y-72045286D02*
X169853428Y-72009000D01*
X169780857Y-71972714D01*
X169599428Y-71972714D01*
X169526857Y-72009000D01*
X169490571Y-72045286D01*
X169454286Y-72117857D01*
X169454286Y-72190429D01*
X169490571Y-72299286D01*
X169926000Y-72734714D01*
X169454286Y-72734714D01*
X169200286Y-71972714D02*
X168692286Y-71972714D01*
X169018857Y-72734714D01*
X163494357Y-70194714D02*
X163748357Y-69831857D01*
X163929785Y-70194714D02*
X163929785Y-69432714D01*
X163639500Y-69432714D01*
X163566928Y-69469000D01*
X163530643Y-69505286D01*
X163494357Y-69577857D01*
X163494357Y-69686714D01*
X163530643Y-69759286D01*
X163566928Y-69795571D01*
X163639500Y-69831857D01*
X163929785Y-69831857D01*
X163022643Y-69432714D02*
X162877500Y-69432714D01*
X162804928Y-69469000D01*
X162732357Y-69541571D01*
X162696071Y-69686714D01*
X162696071Y-69940714D01*
X162732357Y-70085857D01*
X162804928Y-70158429D01*
X162877500Y-70194714D01*
X163022643Y-70194714D01*
X163095214Y-70158429D01*
X163167785Y-70085857D01*
X163204071Y-69940714D01*
X163204071Y-69686714D01*
X163167785Y-69541571D01*
X163095214Y-69469000D01*
X163022643Y-69432714D01*
X162369499Y-70194714D02*
X162369499Y-69432714D01*
X162115499Y-69977000D01*
X161861499Y-69432714D01*
X161861499Y-70194714D01*
X161680071Y-70267286D02*
X161099500Y-70267286D01*
X160518929Y-70194714D02*
X160954357Y-70194714D01*
X160736643Y-70194714D02*
X160736643Y-69432714D01*
X160809214Y-69541571D01*
X160881786Y-69614143D01*
X160954357Y-69650429D01*
X163784642Y-72517000D02*
X163421785Y-72517000D01*
X163857214Y-72734714D02*
X163603214Y-71972714D01*
X163349214Y-72734714D01*
X162696071Y-72734714D02*
X163131499Y-72734714D01*
X162913785Y-72734714D02*
X162913785Y-71972714D01*
X162986356Y-72081571D01*
X163058928Y-72154143D01*
X163131499Y-72190429D01*
X162042928Y-72226714D02*
X162042928Y-72734714D01*
X162224357Y-71936429D02*
X162405785Y-72480714D01*
X161934071Y-72480714D01*
D12*
X194706119Y-112818333D02*
X195431833Y-112818333D01*
X195576976Y-112769953D01*
X195673738Y-112673191D01*
X195722119Y-112528048D01*
X195722119Y-112431286D01*
X195722119Y-113302143D02*
X194706119Y-113302143D01*
X194706119Y-113689190D01*
X194754500Y-113785952D01*
X194802881Y-113834333D01*
X194899643Y-113882714D01*
X195044786Y-113882714D01*
X195141548Y-113834333D01*
X195189929Y-113785952D01*
X195238310Y-113689190D01*
X195238310Y-113302143D01*
X194802881Y-114269762D02*
X194754500Y-114318143D01*
X194706119Y-114414905D01*
X194706119Y-114656809D01*
X194754500Y-114753571D01*
X194802881Y-114801952D01*
X194899643Y-114850333D01*
X194996405Y-114850333D01*
X195141548Y-114801952D01*
X195722119Y-114221381D01*
X195722119Y-114850333D01*
X190261119Y-114088333D02*
X190986833Y-114088333D01*
X191131976Y-114039953D01*
X191228738Y-113943191D01*
X191277119Y-113798048D01*
X191277119Y-113701286D01*
X191277119Y-114572143D02*
X190261119Y-114572143D01*
X190261119Y-114959190D01*
X190309500Y-115055952D01*
X190357881Y-115104333D01*
X190454643Y-115152714D01*
X190599786Y-115152714D01*
X190696548Y-115104333D01*
X190744929Y-115055952D01*
X190793310Y-114959190D01*
X190793310Y-114572143D01*
X191277119Y-116120333D02*
X191277119Y-115539762D01*
X191277119Y-115830048D02*
X190261119Y-115830048D01*
X190406262Y-115733286D01*
X190503024Y-115636524D01*
X190551405Y-115539762D01*
D13*
X187916429Y-110264287D02*
X187845000Y-110335716D01*
X187773571Y-110478573D01*
X187773571Y-110835716D01*
X187845000Y-110978573D01*
X187916429Y-111050002D01*
X188059286Y-111121430D01*
X188202143Y-111121430D01*
X188416429Y-111050002D01*
X189273571Y-110192859D01*
X189273571Y-111121430D01*
X189273571Y-111835715D02*
X189273571Y-112121430D01*
X189202143Y-112264287D01*
X189130714Y-112335715D01*
X188916429Y-112478573D01*
X188630714Y-112550001D01*
X188059286Y-112550001D01*
X187916429Y-112478573D01*
X187845000Y-112407144D01*
X187773571Y-112264287D01*
X187773571Y-111978573D01*
X187845000Y-111835715D01*
X187916429Y-111764287D01*
X188059286Y-111692858D01*
X188416429Y-111692858D01*
X188559286Y-111764287D01*
X188630714Y-111835715D01*
X188702143Y-111978573D01*
X188702143Y-112264287D01*
X188630714Y-112407144D01*
X188559286Y-112478573D01*
X188416429Y-112550001D01*
X189130714Y-114050001D02*
X189202143Y-113978572D01*
X189273571Y-113764286D01*
X189273571Y-113621429D01*
X189202143Y-113407144D01*
X189059286Y-113264286D01*
X188916429Y-113192858D01*
X188630714Y-113121429D01*
X188416429Y-113121429D01*
X188130714Y-113192858D01*
X187987857Y-113264286D01*
X187845000Y-113407144D01*
X187773571Y-113621429D01*
X187773571Y-113764286D01*
X187845000Y-113978572D01*
X187916429Y-114050001D01*
X187916429Y-114621429D02*
X187845000Y-114692858D01*
X187773571Y-114835715D01*
X187773571Y-115192858D01*
X187845000Y-115335715D01*
X187916429Y-115407144D01*
X188059286Y-115478572D01*
X188202143Y-115478572D01*
X188416429Y-115407144D01*
X189273571Y-114550001D01*
X189273571Y-115478572D01*
X187773571Y-116835715D02*
X187773571Y-116121429D01*
X188487857Y-116050000D01*
X188416429Y-116121429D01*
X188345000Y-116264286D01*
X188345000Y-116621429D01*
X188416429Y-116764286D01*
X188487857Y-116835715D01*
X188630714Y-116907143D01*
X188987857Y-116907143D01*
X189130714Y-116835715D01*
X189202143Y-116764286D01*
X189273571Y-116621429D01*
X189273571Y-116264286D01*
X189202143Y-116121429D01*
X189130714Y-116050000D01*
X187773571Y-118192857D02*
X187773571Y-117907143D01*
X187845000Y-117764286D01*
X187916429Y-117692857D01*
X188130714Y-117550000D01*
X188416429Y-117478571D01*
X188987857Y-117478571D01*
X189130714Y-117550000D01*
X189202143Y-117621428D01*
X189273571Y-117764286D01*
X189273571Y-118050000D01*
X189202143Y-118192857D01*
X189130714Y-118264286D01*
X188987857Y-118335714D01*
X188630714Y-118335714D01*
X188487857Y-118264286D01*
X188416429Y-118192857D01*
X188345000Y-118050000D01*
X188345000Y-117764286D01*
X188416429Y-117621428D01*
X188487857Y-117550000D01*
X188630714Y-117478571D01*
D14*
X192024000Y-113284000D02*
X194056000Y-113284000D01*
X192024000Y-113284000D02*
X192024000Y-114046000D01*
X194056000Y-114046000D02*
X194056000Y-113284000D01*
X192024000Y-114046000D02*
X194056000Y-114046000D01*
X192024000Y-114554000D02*
X192024000Y-115316000D01*
X194056000Y-114554000D02*
X192024000Y-114554000D01*
X194056000Y-115316000D02*
X194056000Y-114554000D01*
X192024000Y-115316000D02*
X194056000Y-115316000D01*
X193294000Y-105156000D02*
X194056000Y-105156000D01*
X193294000Y-103124000D02*
X193294000Y-105156000D01*
X194056000Y-103124000D02*
X193294000Y-103124000D01*
X194056000Y-105156000D02*
X194056000Y-103124000D01*
X192024000Y-103124000D02*
X192024000Y-105156000D01*
X192786000Y-103124000D02*
X192024000Y-103124000D01*
X192786000Y-105156000D02*
X192786000Y-103124000D01*
X192024000Y-105156000D02*
X192786000Y-105156000D01*
X194056000Y-93726000D02*
X194056000Y-92964000D01*
X192024000Y-93726000D02*
X194056000Y-93726000D01*
X192024000Y-92964000D02*
X192024000Y-93726000D01*
X194056000Y-92964000D02*
X192024000Y-92964000D01*
X192024000Y-94234000D02*
X192024000Y-96266000D01*
X192786000Y-94234000D02*
X192024000Y-94234000D01*
X192786000Y-96266000D02*
X192786000Y-94234000D01*
X192024000Y-96266000D02*
X192786000Y-96266000D01*
X193294000Y-81534000D02*
X193294000Y-83566000D01*
X194056000Y-81534000D02*
X193294000Y-81534000D01*
X194056000Y-83566000D02*
X194056000Y-81534000D01*
X193294000Y-83566000D02*
X194056000Y-83566000D01*
X192024000Y-84074000D02*
X192024000Y-86106000D01*
X192786000Y-84074000D02*
X192024000Y-84074000D01*
X192786000Y-86106000D02*
X192786000Y-84074000D01*
X192024000Y-86106000D02*
X192786000Y-86106000D01*
X191770000Y-116840000D02*
X193040000Y-116840000D01*
X193040000Y-116840000D02*
X193040000Y-115570000D01*
X193040000Y-115570000D02*
X194310000Y-115570000D01*
X194310000Y-111760000D02*
X193040000Y-111760000D01*
X193040000Y-111760000D02*
X193040000Y-113030000D01*
X193040000Y-113030000D02*
X191770000Y-113030000D01*
X194310000Y-115570000D02*
X194310000Y-111760000D01*
X191770000Y-116840000D02*
X191770000Y-113030000D01*
X192405000Y-112712500D02*
X192722500Y-112712500D01*
X192722500Y-112712500D02*
X192722500Y-112395000D01*
X192087500Y-112077500D02*
X192722500Y-112712500D01*
X192532000Y-116205000D02*
G75*
G03X192532000Y-116205000I-127000J0D01*
G01*
X192532000Y-114935000D02*
G75*
G03X192532000Y-114935000I-127000J0D01*
G01*
X192532000Y-113665000D02*
G75*
G03X192532000Y-113665000I-127000J0D01*
G01*
X193802000Y-112395000D02*
G75*
G03X193802000Y-112395000I-127000J0D01*
G01*
X193802000Y-113665000D02*
G75*
G03X193802000Y-113665000I-127000J0D01*
G01*
X193802000Y-114935000D02*
G75*
G03X193802000Y-114935000I-127000J0D01*
G01*
X193802000Y-104775000D02*
G75*
G03X193802000Y-104775000I-127000J0D01*
G01*
X193802000Y-103505000D02*
G75*
G03X193802000Y-103505000I-127000J0D01*
G01*
X193802000Y-102235000D02*
G75*
G03X193802000Y-102235000I-127000J0D01*
G01*
X192532000Y-103505000D02*
G75*
G03X192532000Y-103505000I-127000J0D01*
G01*
X192532000Y-104775000D02*
G75*
G03X192532000Y-104775000I-127000J0D01*
G01*
X192532000Y-106045000D02*
G75*
G03X192532000Y-106045000I-127000J0D01*
G01*
X192087500Y-101917500D02*
X192722500Y-102552500D01*
X192722500Y-102552500D02*
X192722500Y-102235000D01*
X192405000Y-102552500D02*
X192722500Y-102552500D01*
X191770000Y-106680000D02*
X191770000Y-102870000D01*
X194310000Y-105410000D02*
X194310000Y-101600000D01*
X193040000Y-102870000D02*
X191770000Y-102870000D01*
X193040000Y-101600000D02*
X193040000Y-102870000D01*
X194310000Y-101600000D02*
X193040000Y-101600000D01*
X193040000Y-105410000D02*
X194310000Y-105410000D01*
X193040000Y-106680000D02*
X193040000Y-105410000D01*
X191770000Y-106680000D02*
X193040000Y-106680000D01*
X191770000Y-96520000D02*
X193040000Y-96520000D01*
X193040000Y-96520000D02*
X193040000Y-95250000D01*
X193040000Y-95250000D02*
X194310000Y-95250000D01*
X194310000Y-91440000D02*
X193040000Y-91440000D01*
X193040000Y-91440000D02*
X193040000Y-92710000D01*
X193040000Y-92710000D02*
X191770000Y-92710000D01*
X194310000Y-95250000D02*
X194310000Y-91440000D01*
X191770000Y-96520000D02*
X191770000Y-92710000D01*
X192405000Y-92392500D02*
X192722500Y-92392500D01*
X192722500Y-92392500D02*
X192722500Y-92075000D01*
X192087500Y-91757500D02*
X192722500Y-92392500D01*
X192532000Y-95885000D02*
G75*
G03X192532000Y-95885000I-127000J0D01*
G01*
X192532000Y-94615000D02*
G75*
G03X192532000Y-94615000I-127000J0D01*
G01*
X192532000Y-93345000D02*
G75*
G03X192532000Y-93345000I-127000J0D01*
G01*
X193802000Y-92075000D02*
G75*
G03X193802000Y-92075000I-127000J0D01*
G01*
X193802000Y-93345000D02*
G75*
G03X193802000Y-93345000I-127000J0D01*
G01*
X193802000Y-94615000D02*
G75*
G03X193802000Y-94615000I-127000J0D01*
G01*
X193802000Y-84455000D02*
G75*
G03X193802000Y-84455000I-127000J0D01*
G01*
X193802000Y-83185000D02*
G75*
G03X193802000Y-83185000I-127000J0D01*
G01*
X193802000Y-81915000D02*
G75*
G03X193802000Y-81915000I-127000J0D01*
G01*
X192532000Y-83185000D02*
G75*
G03X192532000Y-83185000I-127000J0D01*
G01*
X192532000Y-84455000D02*
G75*
G03X192532000Y-84455000I-127000J0D01*
G01*
X192532000Y-85725000D02*
G75*
G03X192532000Y-85725000I-127000J0D01*
G01*
X192087500Y-81597500D02*
X192722500Y-82232500D01*
X192722500Y-82232500D02*
X192722500Y-81915000D01*
X192405000Y-82232500D02*
X192722500Y-82232500D01*
X191770000Y-86360000D02*
X191770000Y-82550000D01*
X194310000Y-85090000D02*
X194310000Y-81280000D01*
X193040000Y-82550000D02*
X191770000Y-82550000D01*
X193040000Y-81280000D02*
X193040000Y-82550000D01*
X194310000Y-81280000D02*
X193040000Y-81280000D01*
X193040000Y-85090000D02*
X194310000Y-85090000D01*
X193040000Y-86360000D02*
X193040000Y-85090000D01*
X191770000Y-86360000D02*
X193040000Y-86360000D01*
D11*
X175994785Y-55589714D02*
X176248785Y-55226857D01*
X176430213Y-55589714D02*
X176430213Y-54827714D01*
X176139928Y-54827714D01*
X176067356Y-54864000D01*
X176031071Y-54900286D01*
X175994785Y-54972857D01*
X175994785Y-55081714D01*
X176031071Y-55154286D01*
X176067356Y-55190571D01*
X176139928Y-55226857D01*
X176430213Y-55226857D01*
X175777071Y-54827714D02*
X175341642Y-54827714D01*
X175559356Y-55589714D02*
X175559356Y-54827714D01*
X175123928Y-55553429D02*
X175015071Y-55589714D01*
X174833642Y-55589714D01*
X174761071Y-55553429D01*
X174724785Y-55517143D01*
X174688500Y-55444571D01*
X174688500Y-55372000D01*
X174724785Y-55299429D01*
X174761071Y-55263143D01*
X174833642Y-55226857D01*
X174978785Y-55190571D01*
X175051357Y-55154286D01*
X175087642Y-55118000D01*
X175123928Y-55045429D01*
X175123928Y-54972857D01*
X175087642Y-54900286D01*
X175051357Y-54864000D01*
X174978785Y-54827714D01*
X174797357Y-54827714D01*
X174688500Y-54864000D01*
X173137285Y-55517143D02*
X173173571Y-55553429D01*
X173282428Y-55589714D01*
X173354999Y-55589714D01*
X173463856Y-55553429D01*
X173536428Y-55480857D01*
X173572713Y-55408286D01*
X173608999Y-55263143D01*
X173608999Y-55154286D01*
X173572713Y-55009143D01*
X173536428Y-54936571D01*
X173463856Y-54864000D01*
X173354999Y-54827714D01*
X173282428Y-54827714D01*
X173173571Y-54864000D01*
X173137285Y-54900286D01*
X172919571Y-54827714D02*
X172484142Y-54827714D01*
X172701856Y-55589714D02*
X172701856Y-54827714D01*
X172266428Y-55553429D02*
X172157571Y-55589714D01*
X171976142Y-55589714D01*
X171903571Y-55553429D01*
X171867285Y-55517143D01*
X171831000Y-55444571D01*
X171831000Y-55372000D01*
X171867285Y-55299429D01*
X171903571Y-55263143D01*
X171976142Y-55226857D01*
X172121285Y-55190571D01*
X172193857Y-55154286D01*
X172230142Y-55118000D01*
X172266428Y-55045429D01*
X172266428Y-54972857D01*
X172230142Y-54900286D01*
X172193857Y-54864000D01*
X172121285Y-54827714D01*
X171939857Y-54827714D01*
X171831000Y-54864000D01*
X176974500Y-61939714D02*
X177228500Y-61576857D01*
X177409928Y-61939714D02*
X177409928Y-61177714D01*
X177119643Y-61177714D01*
X177047071Y-61214000D01*
X177010786Y-61250286D01*
X176974500Y-61322857D01*
X176974500Y-61431714D01*
X177010786Y-61504286D01*
X177047071Y-61540571D01*
X177119643Y-61576857D01*
X177409928Y-61576857D01*
X176720500Y-61177714D02*
X176212500Y-61939714D01*
X176212500Y-61177714D02*
X176720500Y-61939714D01*
X174570571Y-61177714D02*
X174135142Y-61177714D01*
X174352856Y-61939714D02*
X174352856Y-61177714D01*
X173953714Y-61177714D02*
X173445714Y-61939714D01*
X173445714Y-61177714D02*
X173953714Y-61939714D01*
X169173072Y-61214000D02*
X169245643Y-61177714D01*
X169354500Y-61177714D01*
X169463357Y-61214000D01*
X169535929Y-61286571D01*
X169572214Y-61359143D01*
X169608500Y-61504286D01*
X169608500Y-61613143D01*
X169572214Y-61758286D01*
X169535929Y-61830857D01*
X169463357Y-61903429D01*
X169354500Y-61939714D01*
X169281929Y-61939714D01*
X169173072Y-61903429D01*
X169136786Y-61867143D01*
X169136786Y-61613143D01*
X169281929Y-61613143D01*
X168810214Y-61939714D02*
X168810214Y-61177714D01*
X168374786Y-61939714D01*
X168374786Y-61177714D01*
X168011928Y-61939714D02*
X168011928Y-61177714D01*
X167830500Y-61177714D01*
X167721643Y-61214000D01*
X167649071Y-61286571D01*
X167612786Y-61359143D01*
X167576500Y-61504286D01*
X167576500Y-61613143D01*
X167612786Y-61758286D01*
X167649071Y-61830857D01*
X167721643Y-61903429D01*
X167830500Y-61939714D01*
X168011928Y-61939714D01*
X105455357Y-113338429D02*
X105346500Y-113374714D01*
X105165071Y-113374714D01*
X105092500Y-113338429D01*
X105056214Y-113302143D01*
X105019929Y-113229571D01*
X105019929Y-113157000D01*
X105056214Y-113084429D01*
X105092500Y-113048143D01*
X105165071Y-113011857D01*
X105310214Y-112975571D01*
X105382786Y-112939286D01*
X105419071Y-112903000D01*
X105455357Y-112830429D01*
X105455357Y-112757857D01*
X105419071Y-112685286D01*
X105382786Y-112649000D01*
X105310214Y-112612714D01*
X105128786Y-112612714D01*
X105019929Y-112649000D01*
X104548215Y-112612714D02*
X104403072Y-112612714D01*
X104330500Y-112649000D01*
X104257929Y-112721571D01*
X104221643Y-112866714D01*
X104221643Y-113120714D01*
X104257929Y-113265857D01*
X104330500Y-113338429D01*
X104403072Y-113374714D01*
X104548215Y-113374714D01*
X104620786Y-113338429D01*
X104693357Y-113265857D01*
X104729643Y-113120714D01*
X104729643Y-112866714D01*
X104693357Y-112721571D01*
X104620786Y-112649000D01*
X104548215Y-112612714D01*
X103895071Y-113374714D02*
X103895071Y-112612714D01*
X103713643Y-112612714D01*
X103604786Y-112649000D01*
X103532214Y-112721571D01*
X103495929Y-112794143D01*
X103459643Y-112939286D01*
X103459643Y-113048143D01*
X103495929Y-113193286D01*
X103532214Y-113265857D01*
X103604786Y-113338429D01*
X103713643Y-113374714D01*
X103895071Y-113374714D01*
X105237642Y-110798429D02*
X105128785Y-110834714D01*
X104947356Y-110834714D01*
X104874785Y-110798429D01*
X104838499Y-110762143D01*
X104802214Y-110689571D01*
X104802214Y-110617000D01*
X104838499Y-110544429D01*
X104874785Y-110508143D01*
X104947356Y-110471857D01*
X105092499Y-110435571D01*
X105165071Y-110399286D01*
X105201356Y-110363000D01*
X105237642Y-110290429D01*
X105237642Y-110217857D01*
X105201356Y-110145286D01*
X105165071Y-110109000D01*
X105092499Y-110072714D01*
X104911071Y-110072714D01*
X104802214Y-110109000D01*
X104475642Y-110834714D02*
X104475642Y-110072714D01*
X104112785Y-110834714D02*
X104112785Y-110072714D01*
X103931357Y-110072714D01*
X103822500Y-110109000D01*
X103749928Y-110181571D01*
X103713643Y-110254143D01*
X103677357Y-110399286D01*
X103677357Y-110508143D01*
X103713643Y-110653286D01*
X103749928Y-110725857D01*
X103822500Y-110798429D01*
X103931357Y-110834714D01*
X104112785Y-110834714D01*
X105038072Y-115189000D02*
X105110643Y-115152714D01*
X105219500Y-115152714D01*
X105328357Y-115189000D01*
X105400929Y-115261571D01*
X105437214Y-115334143D01*
X105473500Y-115479286D01*
X105473500Y-115588143D01*
X105437214Y-115733286D01*
X105400929Y-115805857D01*
X105328357Y-115878429D01*
X105219500Y-115914714D01*
X105146929Y-115914714D01*
X105038072Y-115878429D01*
X105001786Y-115842143D01*
X105001786Y-115588143D01*
X105146929Y-115588143D01*
X104675214Y-115914714D02*
X104675214Y-115152714D01*
X104239786Y-115914714D01*
X104239786Y-115152714D01*
X103876928Y-115914714D02*
X103876928Y-115152714D01*
X103695500Y-115152714D01*
X103586643Y-115189000D01*
X103514071Y-115261571D01*
X103477786Y-115334143D01*
X103441500Y-115479286D01*
X103441500Y-115588143D01*
X103477786Y-115733286D01*
X103514071Y-115805857D01*
X103586643Y-115878429D01*
X103695500Y-115914714D01*
X103876928Y-115914714D01*
X143228786Y-129440214D02*
X142793357Y-129440214D01*
X143011071Y-130202214D02*
X143011071Y-129440214D01*
X142103929Y-130202214D02*
X142357929Y-129839357D01*
X142539357Y-130202214D02*
X142539357Y-129440214D01*
X142249072Y-129440214D01*
X142176500Y-129476500D01*
X142140215Y-129512786D01*
X142103929Y-129585357D01*
X142103929Y-129694214D01*
X142140215Y-129766786D01*
X142176500Y-129803071D01*
X142249072Y-129839357D01*
X142539357Y-129839357D01*
X141813643Y-129984500D02*
X141450786Y-129984500D01*
X141886215Y-130202214D02*
X141632215Y-129440214D01*
X141378215Y-130202214D01*
X141124214Y-130202214D02*
X141124214Y-129440214D01*
X140833929Y-129440214D01*
X140761357Y-129476500D01*
X140725072Y-129512786D01*
X140688786Y-129585357D01*
X140688786Y-129694214D01*
X140725072Y-129766786D01*
X140761357Y-129803071D01*
X140833929Y-129839357D01*
X141124214Y-129839357D01*
X145451285Y-130202214D02*
X145705285Y-129839357D01*
X145886713Y-130202214D02*
X145886713Y-129440214D01*
X145596428Y-129440214D01*
X145523856Y-129476500D01*
X145487571Y-129512786D01*
X145451285Y-129585357D01*
X145451285Y-129694214D01*
X145487571Y-129766786D01*
X145523856Y-129803071D01*
X145596428Y-129839357D01*
X145886713Y-129839357D01*
X144761856Y-129440214D02*
X145124713Y-129440214D01*
X145160999Y-129803071D01*
X145124713Y-129766786D01*
X145052142Y-129730500D01*
X144870713Y-129730500D01*
X144798142Y-129766786D01*
X144761856Y-129803071D01*
X144725571Y-129875643D01*
X144725571Y-130057071D01*
X144761856Y-130129643D01*
X144798142Y-130165929D01*
X144870713Y-130202214D01*
X145052142Y-130202214D01*
X145124713Y-130165929D01*
X145160999Y-130129643D01*
X144398999Y-130129643D02*
X144362714Y-130165929D01*
X144398999Y-130202214D01*
X144435285Y-130165929D01*
X144398999Y-130129643D01*
X144398999Y-130202214D01*
X143673285Y-129440214D02*
X144036142Y-129440214D01*
X144072428Y-129803071D01*
X144036142Y-129766786D01*
X143963571Y-129730500D01*
X143782142Y-129730500D01*
X143709571Y-129766786D01*
X143673285Y-129803071D01*
X143637000Y-129875643D01*
X143637000Y-130057071D01*
X143673285Y-130129643D01*
X143709571Y-130165929D01*
X143782142Y-130202214D01*
X143963571Y-130202214D01*
X144036142Y-130165929D01*
X144072428Y-130129643D01*
X148118285Y-130202214D02*
X148372285Y-129839357D01*
X148553713Y-130202214D02*
X148553713Y-129440214D01*
X148263428Y-129440214D01*
X148190856Y-129476500D01*
X148154571Y-129512786D01*
X148118285Y-129585357D01*
X148118285Y-129694214D01*
X148154571Y-129766786D01*
X148190856Y-129803071D01*
X148263428Y-129839357D01*
X148553713Y-129839357D01*
X147864285Y-129440214D02*
X147356285Y-129440214D01*
X147682856Y-130202214D01*
X147065999Y-130129643D02*
X147029714Y-130165929D01*
X147065999Y-130202214D01*
X147102285Y-130165929D01*
X147065999Y-130129643D01*
X147065999Y-130202214D01*
X146340285Y-129440214D02*
X146703142Y-129440214D01*
X146739428Y-129803071D01*
X146703142Y-129766786D01*
X146630571Y-129730500D01*
X146449142Y-129730500D01*
X146376571Y-129766786D01*
X146340285Y-129803071D01*
X146304000Y-129875643D01*
X146304000Y-130057071D01*
X146340285Y-130129643D01*
X146376571Y-130165929D01*
X146449142Y-130202214D01*
X146630571Y-130202214D01*
X146703142Y-130165929D01*
X146739428Y-130129643D01*
X142693571Y-124414643D02*
X142729857Y-124450929D01*
X142838714Y-124487214D01*
X142911285Y-124487214D01*
X143020142Y-124450929D01*
X143092714Y-124378357D01*
X143128999Y-124305786D01*
X143165285Y-124160643D01*
X143165285Y-124051786D01*
X143128999Y-123906643D01*
X143092714Y-123834071D01*
X143020142Y-123761500D01*
X142911285Y-123725214D01*
X142838714Y-123725214D01*
X142729857Y-123761500D01*
X142693571Y-123797786D01*
X142004142Y-124487214D02*
X142366999Y-124487214D01*
X142366999Y-123725214D01*
X141750142Y-124487214D02*
X141750142Y-123725214D01*
X141314714Y-124487214D02*
X141641285Y-124051786D01*
X141314714Y-123725214D02*
X141750142Y-124160643D01*
X145124714Y-122437072D02*
X144362714Y-122437072D01*
X145124714Y-122799929D02*
X144362714Y-122799929D01*
X145124714Y-123235357D01*
X144362714Y-123235357D01*
X144362714Y-123489357D02*
X144362714Y-123924786D01*
X145124714Y-123707072D02*
X144362714Y-123707072D01*
X145124714Y-124614214D02*
X144761857Y-124360214D01*
X145124714Y-124178786D02*
X144362714Y-124178786D01*
X144362714Y-124469071D01*
X144399000Y-124541643D01*
X144435286Y-124577928D01*
X144507857Y-124614214D01*
X144616714Y-124614214D01*
X144689286Y-124577928D01*
X144725571Y-124541643D01*
X144761857Y-124469071D01*
X144761857Y-124178786D01*
X147664714Y-122491501D02*
X146902714Y-122491501D01*
X147664714Y-122854358D02*
X146902714Y-122854358D01*
X147664714Y-123289786D01*
X146902714Y-123289786D01*
X146902714Y-123543786D02*
X146902714Y-123979215D01*
X147664714Y-123761501D02*
X146902714Y-123761501D01*
X147447000Y-124196929D02*
X147447000Y-124559786D01*
X147664714Y-124124357D02*
X146902714Y-124378357D01*
X147664714Y-124632357D01*
X146771360Y-122310072D02*
X146771360Y-124704929D01*
X150168429Y-118735929D02*
X150204714Y-118844786D01*
X150204714Y-119026215D01*
X150168429Y-119098786D01*
X150132143Y-119135072D01*
X150059571Y-119171357D01*
X149987000Y-119171357D01*
X149914429Y-119135072D01*
X149878143Y-119098786D01*
X149841857Y-119026215D01*
X149805571Y-118881072D01*
X149769286Y-118808500D01*
X149733000Y-118772215D01*
X149660429Y-118735929D01*
X149587857Y-118735929D01*
X149515286Y-118772215D01*
X149479000Y-118808500D01*
X149442714Y-118881072D01*
X149442714Y-119062500D01*
X149479000Y-119171357D01*
X149442714Y-119425357D02*
X150204714Y-119606786D01*
X149660429Y-119751929D01*
X150204714Y-119897071D01*
X149442714Y-120078500D01*
X149987000Y-120332500D02*
X149987000Y-120695357D01*
X150204714Y-120259928D02*
X149442714Y-120513928D01*
X150204714Y-120767928D01*
X150204714Y-121021929D02*
X149442714Y-121021929D01*
X149442714Y-121312214D01*
X149479000Y-121384786D01*
X149515286Y-121421071D01*
X149587857Y-121457357D01*
X149696714Y-121457357D01*
X149769286Y-121421071D01*
X149805571Y-121384786D01*
X149841857Y-121312214D01*
X149841857Y-121021929D01*
X150277286Y-121602500D02*
X150277286Y-122183071D01*
X150204714Y-122364500D02*
X149442714Y-122364500D01*
X149987000Y-122618500D01*
X149442714Y-122872500D01*
X150204714Y-122872500D01*
X149805571Y-123235357D02*
X149805571Y-123489357D01*
X150204714Y-123598214D02*
X150204714Y-123235357D01*
X149442714Y-123235357D01*
X149442714Y-123598214D01*
X150204714Y-123924786D02*
X149442714Y-123924786D01*
X149987000Y-124178786D01*
X149442714Y-124432786D01*
X150204714Y-124432786D01*
X149311360Y-118590786D02*
X149311360Y-124614214D01*
X150694571Y-129984500D02*
X150331714Y-129984500D01*
X150767143Y-130202214D02*
X150513143Y-129440214D01*
X150259143Y-130202214D01*
X149642285Y-130202214D02*
X150005142Y-130202214D01*
X150005142Y-129440214D01*
X149388285Y-129803071D02*
X149134285Y-129803071D01*
X149025428Y-130202214D02*
X149388285Y-130202214D01*
X149388285Y-129440214D01*
X149025428Y-129440214D01*
X152944285Y-129984500D02*
X152581428Y-129984500D01*
X153016857Y-130202214D02*
X152762857Y-129440214D01*
X152508857Y-130202214D01*
X152218571Y-130202214D02*
X152073428Y-130202214D01*
X152000856Y-130165929D01*
X151964571Y-130129643D01*
X151891999Y-130020786D01*
X151855714Y-129875643D01*
X151855714Y-129585357D01*
X151891999Y-129512786D01*
X151928285Y-129476500D01*
X152000856Y-129440214D01*
X152145999Y-129440214D01*
X152218571Y-129476500D01*
X152254856Y-129512786D01*
X152291142Y-129585357D01*
X152291142Y-129766786D01*
X152254856Y-129839357D01*
X152218571Y-129875643D01*
X152145999Y-129911929D01*
X152000856Y-129911929D01*
X151928285Y-129875643D01*
X151891999Y-129839357D01*
X151855714Y-129766786D01*
X152944285Y-124269500D02*
X152581428Y-124269500D01*
X153016857Y-124487214D02*
X152762857Y-123725214D01*
X152508857Y-124487214D01*
X152145999Y-124051786D02*
X152218571Y-124015500D01*
X152254856Y-123979214D01*
X152291142Y-123906643D01*
X152291142Y-123870357D01*
X152254856Y-123797786D01*
X152218571Y-123761500D01*
X152145999Y-123725214D01*
X152000856Y-123725214D01*
X151928285Y-123761500D01*
X151891999Y-123797786D01*
X151855714Y-123870357D01*
X151855714Y-123906643D01*
X151891999Y-123979214D01*
X151928285Y-124015500D01*
X152000856Y-124051786D01*
X152145999Y-124051786D01*
X152218571Y-124088071D01*
X152254856Y-124124357D01*
X152291142Y-124196929D01*
X152291142Y-124342071D01*
X152254856Y-124414643D01*
X152218571Y-124450929D01*
X152145999Y-124487214D01*
X152000856Y-124487214D01*
X151928285Y-124450929D01*
X151891999Y-124414643D01*
X151855714Y-124342071D01*
X151855714Y-124196929D01*
X151891999Y-124124357D01*
X151928285Y-124088071D01*
X152000856Y-124051786D01*
X155847142Y-124269500D02*
X155484285Y-124269500D01*
X155919714Y-124487214D02*
X155665714Y-123725214D01*
X155411714Y-124487214D01*
X154758571Y-124487214D02*
X155193999Y-124487214D01*
X154976285Y-124487214D02*
X154976285Y-123725214D01*
X155048856Y-123834071D01*
X155121428Y-123906643D01*
X155193999Y-123942929D01*
X154286857Y-123725214D02*
X154214285Y-123725214D01*
X154141714Y-123761500D01*
X154105428Y-123797786D01*
X154069142Y-123870357D01*
X154032857Y-124015500D01*
X154032857Y-124196929D01*
X154069142Y-124342071D01*
X154105428Y-124414643D01*
X154141714Y-124450929D01*
X154214285Y-124487214D01*
X154286857Y-124487214D01*
X154359428Y-124450929D01*
X154395714Y-124414643D01*
X154431999Y-124342071D01*
X154468285Y-124196929D01*
X154468285Y-124015500D01*
X154431999Y-123870357D01*
X154395714Y-123797786D01*
X154359428Y-123761500D01*
X154286857Y-123725214D01*
X155847142Y-129984500D02*
X155484285Y-129984500D01*
X155919714Y-130202214D02*
X155665714Y-129440214D01*
X155411714Y-130202214D01*
X154758571Y-130202214D02*
X155193999Y-130202214D01*
X154976285Y-130202214D02*
X154976285Y-129440214D01*
X155048856Y-129549071D01*
X155121428Y-129621643D01*
X155193999Y-129657929D01*
X154032857Y-130202214D02*
X154468285Y-130202214D01*
X154250571Y-130202214D02*
X154250571Y-129440214D01*
X154323142Y-129549071D01*
X154395714Y-129621643D01*
X154468285Y-129657929D01*
X158387142Y-129984500D02*
X158024285Y-129984500D01*
X158459714Y-130202214D02*
X158205714Y-129440214D01*
X157951714Y-130202214D01*
X157298571Y-130202214D02*
X157733999Y-130202214D01*
X157516285Y-130202214D02*
X157516285Y-129440214D01*
X157588856Y-129549071D01*
X157661428Y-129621643D01*
X157733999Y-129657929D01*
X157044571Y-129440214D02*
X156572857Y-129440214D01*
X156826857Y-129730500D01*
X156717999Y-129730500D01*
X156645428Y-129766786D01*
X156609142Y-129803071D01*
X156572857Y-129875643D01*
X156572857Y-130057071D01*
X156609142Y-130129643D01*
X156645428Y-130165929D01*
X156717999Y-130202214D01*
X156935714Y-130202214D01*
X157008285Y-130165929D01*
X157044571Y-130129643D01*
X158387142Y-124269500D02*
X158024285Y-124269500D01*
X158459714Y-124487214D02*
X158205714Y-123725214D01*
X157951714Y-124487214D01*
X157298571Y-124487214D02*
X157733999Y-124487214D01*
X157516285Y-124487214D02*
X157516285Y-123725214D01*
X157588856Y-123834071D01*
X157661428Y-123906643D01*
X157733999Y-123942929D01*
X157008285Y-123797786D02*
X156971999Y-123761500D01*
X156899428Y-123725214D01*
X156717999Y-123725214D01*
X156645428Y-123761500D01*
X156609142Y-123797786D01*
X156572857Y-123870357D01*
X156572857Y-123942929D01*
X156609142Y-124051786D01*
X157044571Y-124487214D01*
X156572857Y-124487214D01*
X160927142Y-124269500D02*
X160564285Y-124269500D01*
X160999714Y-124487214D02*
X160745714Y-123725214D01*
X160491714Y-124487214D01*
X159838571Y-124487214D02*
X160273999Y-124487214D01*
X160056285Y-124487214D02*
X160056285Y-123725214D01*
X160128856Y-123834071D01*
X160201428Y-123906643D01*
X160273999Y-123942929D01*
X159185428Y-123979214D02*
X159185428Y-124487214D01*
X159366857Y-123688929D02*
X159548285Y-124233214D01*
X159076571Y-124233214D01*
X160927142Y-129984500D02*
X160564285Y-129984500D01*
X160999714Y-130202214D02*
X160745714Y-129440214D01*
X160491714Y-130202214D01*
X159838571Y-130202214D02*
X160273999Y-130202214D01*
X160056285Y-130202214D02*
X160056285Y-129440214D01*
X160128856Y-129549071D01*
X160201428Y-129621643D01*
X160273999Y-129657929D01*
X159149142Y-129440214D02*
X159511999Y-129440214D01*
X159548285Y-129803071D01*
X159511999Y-129766786D01*
X159439428Y-129730500D01*
X159257999Y-129730500D01*
X159185428Y-129766786D01*
X159149142Y-129803071D01*
X159112857Y-129875643D01*
X159112857Y-130057071D01*
X159149142Y-130129643D01*
X159185428Y-130165929D01*
X159257999Y-130202214D01*
X159439428Y-130202214D01*
X159511999Y-130165929D01*
X159548285Y-130129643D01*
X163485285Y-129984500D02*
X163122428Y-129984500D01*
X163557857Y-130202214D02*
X163303857Y-129440214D01*
X163049857Y-130202214D01*
X162795856Y-130202214D02*
X162795856Y-129440214D01*
X162614428Y-129440214D01*
X162505571Y-129476500D01*
X162432999Y-129549071D01*
X162396714Y-129621643D01*
X162360428Y-129766786D01*
X162360428Y-129875643D01*
X162396714Y-130020786D01*
X162432999Y-130093357D01*
X162505571Y-130165929D01*
X162614428Y-130202214D01*
X162795856Y-130202214D01*
X161634714Y-130202214D02*
X162070142Y-130202214D01*
X161852428Y-130202214D02*
X161852428Y-129440214D01*
X161924999Y-129549071D01*
X161997571Y-129621643D01*
X162070142Y-129657929D01*
X163485285Y-124269500D02*
X163122428Y-124269500D01*
X163557857Y-124487214D02*
X163303857Y-123725214D01*
X163049857Y-124487214D01*
X162795856Y-124487214D02*
X162795856Y-123725214D01*
X162614428Y-123725214D01*
X162505571Y-123761500D01*
X162432999Y-123834071D01*
X162396714Y-123906643D01*
X162360428Y-124051786D01*
X162360428Y-124160643D01*
X162396714Y-124305786D01*
X162432999Y-124378357D01*
X162505571Y-124450929D01*
X162614428Y-124487214D01*
X162795856Y-124487214D01*
X161888714Y-123725214D02*
X161816142Y-123725214D01*
X161743571Y-123761500D01*
X161707285Y-123797786D01*
X161670999Y-123870357D01*
X161634714Y-124015500D01*
X161634714Y-124196929D01*
X161670999Y-124342071D01*
X161707285Y-124414643D01*
X161743571Y-124450929D01*
X161816142Y-124487214D01*
X161888714Y-124487214D01*
X161961285Y-124450929D01*
X161997571Y-124414643D01*
X162033856Y-124342071D01*
X162070142Y-124196929D01*
X162070142Y-124015500D01*
X162033856Y-123870357D01*
X161997571Y-123797786D01*
X161961285Y-123761500D01*
X161888714Y-123725214D01*
X166025285Y-124269500D02*
X165662428Y-124269500D01*
X166097857Y-124487214D02*
X165843857Y-123725214D01*
X165589857Y-124487214D01*
X165335856Y-124487214D02*
X165335856Y-123725214D01*
X165154428Y-123725214D01*
X165045571Y-123761500D01*
X164972999Y-123834071D01*
X164936714Y-123906643D01*
X164900428Y-124051786D01*
X164900428Y-124160643D01*
X164936714Y-124305786D01*
X164972999Y-124378357D01*
X165045571Y-124450929D01*
X165154428Y-124487214D01*
X165335856Y-124487214D01*
X164610142Y-123797786D02*
X164573856Y-123761500D01*
X164501285Y-123725214D01*
X164319856Y-123725214D01*
X164247285Y-123761500D01*
X164210999Y-123797786D01*
X164174714Y-123870357D01*
X164174714Y-123942929D01*
X164210999Y-124051786D01*
X164646428Y-124487214D01*
X164174714Y-124487214D01*
X166025285Y-129984500D02*
X165662428Y-129984500D01*
X166097857Y-130202214D02*
X165843857Y-129440214D01*
X165589857Y-130202214D01*
X165335856Y-130202214D02*
X165335856Y-129440214D01*
X165154428Y-129440214D01*
X165045571Y-129476500D01*
X164972999Y-129549071D01*
X164936714Y-129621643D01*
X164900428Y-129766786D01*
X164900428Y-129875643D01*
X164936714Y-130020786D01*
X164972999Y-130093357D01*
X165045571Y-130165929D01*
X165154428Y-130202214D01*
X165335856Y-130202214D01*
X164646428Y-129440214D02*
X164174714Y-129440214D01*
X164428714Y-129730500D01*
X164319856Y-129730500D01*
X164247285Y-129766786D01*
X164210999Y-129803071D01*
X164174714Y-129875643D01*
X164174714Y-130057071D01*
X164210999Y-130129643D01*
X164247285Y-130165929D01*
X164319856Y-130202214D01*
X164537571Y-130202214D01*
X164610142Y-130165929D01*
X164646428Y-130129643D01*
X168565285Y-129984500D02*
X168202428Y-129984500D01*
X168637857Y-130202214D02*
X168383857Y-129440214D01*
X168129857Y-130202214D01*
X167875856Y-130202214D02*
X167875856Y-129440214D01*
X167694428Y-129440214D01*
X167585571Y-129476500D01*
X167512999Y-129549071D01*
X167476714Y-129621643D01*
X167440428Y-129766786D01*
X167440428Y-129875643D01*
X167476714Y-130020786D01*
X167512999Y-130093357D01*
X167585571Y-130165929D01*
X167694428Y-130202214D01*
X167875856Y-130202214D01*
X166750999Y-129440214D02*
X167113856Y-129440214D01*
X167150142Y-129803071D01*
X167113856Y-129766786D01*
X167041285Y-129730500D01*
X166859856Y-129730500D01*
X166787285Y-129766786D01*
X166750999Y-129803071D01*
X166714714Y-129875643D01*
X166714714Y-130057071D01*
X166750999Y-130129643D01*
X166787285Y-130165929D01*
X166859856Y-130202214D01*
X167041285Y-130202214D01*
X167113856Y-130165929D01*
X167150142Y-130129643D01*
X168565285Y-124269500D02*
X168202428Y-124269500D01*
X168637857Y-124487214D02*
X168383857Y-123725214D01*
X168129857Y-124487214D01*
X167875856Y-124487214D02*
X167875856Y-123725214D01*
X167694428Y-123725214D01*
X167585571Y-123761500D01*
X167512999Y-123834071D01*
X167476714Y-123906643D01*
X167440428Y-124051786D01*
X167440428Y-124160643D01*
X167476714Y-124305786D01*
X167512999Y-124378357D01*
X167585571Y-124450929D01*
X167694428Y-124487214D01*
X167875856Y-124487214D01*
X166787285Y-123979214D02*
X166787285Y-124487214D01*
X166968714Y-123688929D02*
X167150142Y-124233214D01*
X166678428Y-124233214D01*
X171105285Y-124269500D02*
X170742428Y-124269500D01*
X171177857Y-124487214D02*
X170923857Y-123725214D01*
X170669857Y-124487214D01*
X170415856Y-124487214D02*
X170415856Y-123725214D01*
X170234428Y-123725214D01*
X170125571Y-123761500D01*
X170052999Y-123834071D01*
X170016714Y-123906643D01*
X169980428Y-124051786D01*
X169980428Y-124160643D01*
X170016714Y-124305786D01*
X170052999Y-124378357D01*
X170125571Y-124450929D01*
X170234428Y-124487214D01*
X170415856Y-124487214D01*
X169327285Y-123725214D02*
X169472428Y-123725214D01*
X169544999Y-123761500D01*
X169581285Y-123797786D01*
X169653856Y-123906643D01*
X169690142Y-124051786D01*
X169690142Y-124342071D01*
X169653856Y-124414643D01*
X169617571Y-124450929D01*
X169544999Y-124487214D01*
X169399856Y-124487214D01*
X169327285Y-124450929D01*
X169290999Y-124414643D01*
X169254714Y-124342071D01*
X169254714Y-124160643D01*
X169290999Y-124088071D01*
X169327285Y-124051786D01*
X169399856Y-124015500D01*
X169544999Y-124015500D01*
X169617571Y-124051786D01*
X169653856Y-124088071D01*
X169690142Y-124160643D01*
X171105285Y-129984500D02*
X170742428Y-129984500D01*
X171177857Y-130202214D02*
X170923857Y-129440214D01*
X170669857Y-130202214D01*
X170415856Y-130202214D02*
X170415856Y-129440214D01*
X170234428Y-129440214D01*
X170125571Y-129476500D01*
X170052999Y-129549071D01*
X170016714Y-129621643D01*
X169980428Y-129766786D01*
X169980428Y-129875643D01*
X170016714Y-130020786D01*
X170052999Y-130093357D01*
X170125571Y-130165929D01*
X170234428Y-130202214D01*
X170415856Y-130202214D01*
X169726428Y-129440214D02*
X169218428Y-129440214D01*
X169544999Y-130202214D01*
X173064714Y-121956286D02*
X172302714Y-121956286D01*
X172302714Y-122464285D02*
X172302714Y-122609428D01*
X172339000Y-122682000D01*
X172411571Y-122754571D01*
X172556714Y-122790857D01*
X172810714Y-122790857D01*
X172955857Y-122754571D01*
X173028429Y-122682000D01*
X173064714Y-122609428D01*
X173064714Y-122464285D01*
X173028429Y-122391714D01*
X172955857Y-122319143D01*
X172810714Y-122282857D01*
X172556714Y-122282857D01*
X172411571Y-122319143D01*
X172339000Y-122391714D01*
X172302714Y-122464285D01*
X172266429Y-123661714D02*
X173246143Y-123008571D01*
X173064714Y-123915715D02*
X172302714Y-123915715D01*
X172847000Y-124169715D01*
X172302714Y-124423715D01*
X173064714Y-124423715D01*
X172171360Y-123734286D02*
X172171360Y-124605143D01*
X172865143Y-130202214D02*
X173119143Y-129839357D01*
X173300571Y-130202214D02*
X173300571Y-129440214D01*
X173010286Y-129440214D01*
X172937714Y-129476500D01*
X172901429Y-129512786D01*
X172865143Y-129585357D01*
X172865143Y-129694214D01*
X172901429Y-129766786D01*
X172937714Y-129803071D01*
X173010286Y-129839357D01*
X173300571Y-129839357D01*
X172538571Y-130202214D02*
X172538571Y-129440214D01*
X172357143Y-129440214D01*
X172248286Y-129476500D01*
X172175714Y-129549071D01*
X172139429Y-129621643D01*
X172103143Y-129766786D01*
X172103143Y-129875643D01*
X172139429Y-130020786D01*
X172175714Y-130093357D01*
X172248286Y-130165929D01*
X172357143Y-130202214D01*
X172538571Y-130202214D01*
X173482000Y-129308860D02*
X171958000Y-129308860D01*
X175677285Y-124487214D02*
X175931285Y-124124357D01*
X176112713Y-124487214D02*
X176112713Y-123725214D01*
X175822428Y-123725214D01*
X175749856Y-123761500D01*
X175713571Y-123797786D01*
X175677285Y-123870357D01*
X175677285Y-123979214D01*
X175713571Y-124051786D01*
X175749856Y-124088071D01*
X175822428Y-124124357D01*
X176112713Y-124124357D01*
X175386999Y-124450929D02*
X175278142Y-124487214D01*
X175096713Y-124487214D01*
X175024142Y-124450929D01*
X174987856Y-124414643D01*
X174951571Y-124342071D01*
X174951571Y-124269500D01*
X174987856Y-124196929D01*
X175024142Y-124160643D01*
X175096713Y-124124357D01*
X175241856Y-124088071D01*
X175314428Y-124051786D01*
X175350713Y-124015500D01*
X175386999Y-123942929D01*
X175386999Y-123870357D01*
X175350713Y-123797786D01*
X175314428Y-123761500D01*
X175241856Y-123725214D01*
X175060428Y-123725214D01*
X174951571Y-123761500D01*
X174733857Y-123725214D02*
X174298428Y-123725214D01*
X174516142Y-124487214D02*
X174516142Y-123725214D01*
X175967571Y-129440214D02*
X175786142Y-130202214D01*
X175640999Y-129657929D01*
X175495857Y-130202214D01*
X175314428Y-129440214D01*
X174588714Y-130202214D02*
X174842714Y-129839357D01*
X175024142Y-130202214D02*
X175024142Y-129440214D01*
X174733857Y-129440214D01*
X174661285Y-129476500D01*
X174625000Y-129512786D01*
X174588714Y-129585357D01*
X174588714Y-129694214D01*
X174625000Y-129766786D01*
X174661285Y-129803071D01*
X174733857Y-129839357D01*
X175024142Y-129839357D01*
X176076428Y-129308860D02*
X174443571Y-129308860D01*
X191080572Y-129476500D02*
X191153143Y-129440214D01*
X191262000Y-129440214D01*
X191370857Y-129476500D01*
X191443429Y-129549071D01*
X191479714Y-129621643D01*
X191516000Y-129766786D01*
X191516000Y-129875643D01*
X191479714Y-130020786D01*
X191443429Y-130093357D01*
X191370857Y-130165929D01*
X191262000Y-130202214D01*
X191189429Y-130202214D01*
X191080572Y-130165929D01*
X191044286Y-130129643D01*
X191044286Y-129875643D01*
X191189429Y-129875643D01*
X190717714Y-130202214D02*
X190717714Y-129440214D01*
X190282286Y-130202214D01*
X190282286Y-129440214D01*
X189919428Y-130202214D02*
X189919428Y-129440214D01*
X189738000Y-129440214D01*
X189629143Y-129476500D01*
X189556571Y-129549071D01*
X189520286Y-129621643D01*
X189484000Y-129766786D01*
X189484000Y-129875643D01*
X189520286Y-130020786D01*
X189556571Y-130093357D01*
X189629143Y-130165929D01*
X189738000Y-130202214D01*
X189919428Y-130202214D01*
X191080572Y-123761500D02*
X191153143Y-123725214D01*
X191262000Y-123725214D01*
X191370857Y-123761500D01*
X191443429Y-123834071D01*
X191479714Y-123906643D01*
X191516000Y-124051786D01*
X191516000Y-124160643D01*
X191479714Y-124305786D01*
X191443429Y-124378357D01*
X191370857Y-124450929D01*
X191262000Y-124487214D01*
X191189429Y-124487214D01*
X191080572Y-124450929D01*
X191044286Y-124414643D01*
X191044286Y-124160643D01*
X191189429Y-124160643D01*
X190717714Y-124487214D02*
X190717714Y-123725214D01*
X190282286Y-124487214D01*
X190282286Y-123725214D01*
X189919428Y-124487214D02*
X189919428Y-123725214D01*
X189738000Y-123725214D01*
X189629143Y-123761500D01*
X189556571Y-123834071D01*
X189520286Y-123906643D01*
X189484000Y-124051786D01*
X189484000Y-124160643D01*
X189520286Y-124305786D01*
X189556571Y-124378357D01*
X189629143Y-124450929D01*
X189738000Y-124487214D01*
X189919428Y-124487214D01*
X188105142Y-123725214D02*
X188467999Y-123725214D01*
X188504285Y-124088071D01*
X188467999Y-124051786D01*
X188395428Y-124015500D01*
X188213999Y-124015500D01*
X188141428Y-124051786D01*
X188105142Y-124088071D01*
X188068857Y-124160643D01*
X188068857Y-124342071D01*
X188105142Y-124414643D01*
X188141428Y-124450929D01*
X188213999Y-124487214D01*
X188395428Y-124487214D01*
X188467999Y-124450929D01*
X188504285Y-124414643D01*
X187851143Y-123725214D02*
X187597143Y-124487214D01*
X187343143Y-123725214D01*
X188105142Y-129440214D02*
X188467999Y-129440214D01*
X188504285Y-129803071D01*
X188467999Y-129766786D01*
X188395428Y-129730500D01*
X188213999Y-129730500D01*
X188141428Y-129766786D01*
X188105142Y-129803071D01*
X188068857Y-129875643D01*
X188068857Y-130057071D01*
X188105142Y-130129643D01*
X188141428Y-130165929D01*
X188213999Y-130202214D01*
X188395428Y-130202214D01*
X188467999Y-130165929D01*
X188504285Y-130129643D01*
X187851143Y-129440214D02*
X187597143Y-130202214D01*
X187343143Y-129440214D01*
X185964285Y-129984500D02*
X185601428Y-129984500D01*
X186036857Y-130202214D02*
X185782857Y-129440214D01*
X185528857Y-130202214D01*
X185347428Y-129440214D02*
X184839428Y-129440214D01*
X185165999Y-130202214D01*
X185964285Y-124269500D02*
X185601428Y-124269500D01*
X186036857Y-124487214D02*
X185782857Y-123725214D01*
X185528857Y-124487214D01*
X184948285Y-123725214D02*
X185093428Y-123725214D01*
X185165999Y-123761500D01*
X185202285Y-123797786D01*
X185274856Y-123906643D01*
X185311142Y-124051786D01*
X185311142Y-124342071D01*
X185274856Y-124414643D01*
X185238571Y-124450929D01*
X185165999Y-124487214D01*
X185020856Y-124487214D01*
X184948285Y-124450929D01*
X184911999Y-124414643D01*
X184875714Y-124342071D01*
X184875714Y-124160643D01*
X184911999Y-124088071D01*
X184948285Y-124051786D01*
X185020856Y-124015500D01*
X185165999Y-124015500D01*
X185238571Y-124051786D01*
X185274856Y-124088071D01*
X185311142Y-124160643D01*
X183424285Y-124269500D02*
X183061428Y-124269500D01*
X183496857Y-124487214D02*
X183242857Y-123725214D01*
X182988857Y-124487214D01*
X182408285Y-123979214D02*
X182408285Y-124487214D01*
X182589714Y-123688929D02*
X182771142Y-124233214D01*
X182299428Y-124233214D01*
X183424285Y-129984500D02*
X183061428Y-129984500D01*
X183496857Y-130202214D02*
X183242857Y-129440214D01*
X182988857Y-130202214D01*
X182371999Y-129440214D02*
X182734856Y-129440214D01*
X182771142Y-129803071D01*
X182734856Y-129766786D01*
X182662285Y-129730500D01*
X182480856Y-129730500D01*
X182408285Y-129766786D01*
X182371999Y-129803071D01*
X182335714Y-129875643D01*
X182335714Y-130057071D01*
X182371999Y-130129643D01*
X182408285Y-130165929D01*
X182480856Y-130202214D01*
X182662285Y-130202214D01*
X182734856Y-130165929D01*
X182771142Y-130129643D01*
X180884285Y-129984500D02*
X180521428Y-129984500D01*
X180956857Y-130202214D02*
X180702857Y-129440214D01*
X180448857Y-130202214D01*
X180267428Y-129440214D02*
X179795714Y-129440214D01*
X180049714Y-129730500D01*
X179940856Y-129730500D01*
X179868285Y-129766786D01*
X179831999Y-129803071D01*
X179795714Y-129875643D01*
X179795714Y-130057071D01*
X179831999Y-130129643D01*
X179868285Y-130165929D01*
X179940856Y-130202214D01*
X180158571Y-130202214D01*
X180231142Y-130165929D01*
X180267428Y-130129643D01*
X180884285Y-124269500D02*
X180521428Y-124269500D01*
X180956857Y-124487214D02*
X180702857Y-123725214D01*
X180448857Y-124487214D01*
X180231142Y-123797786D02*
X180194856Y-123761500D01*
X180122285Y-123725214D01*
X179940856Y-123725214D01*
X179868285Y-123761500D01*
X179831999Y-123797786D01*
X179795714Y-123870357D01*
X179795714Y-123942929D01*
X179831999Y-124051786D01*
X180267428Y-124487214D01*
X179795714Y-124487214D01*
X178344285Y-129984500D02*
X177981428Y-129984500D01*
X178416857Y-130202214D02*
X178162857Y-129440214D01*
X177908857Y-130202214D01*
X177255714Y-130202214D02*
X177691142Y-130202214D01*
X177473428Y-130202214D02*
X177473428Y-129440214D01*
X177545999Y-129549071D01*
X177618571Y-129621643D01*
X177691142Y-129657929D01*
X178344285Y-124269500D02*
X177981428Y-124269500D01*
X178416857Y-124487214D02*
X178162857Y-123725214D01*
X177908857Y-124487214D01*
X177509714Y-123725214D02*
X177437142Y-123725214D01*
X177364571Y-123761500D01*
X177328285Y-123797786D01*
X177291999Y-123870357D01*
X177255714Y-124015500D01*
X177255714Y-124196929D01*
X177291999Y-124342071D01*
X177328285Y-124414643D01*
X177364571Y-124450929D01*
X177437142Y-124487214D01*
X177509714Y-124487214D01*
X177582285Y-124450929D01*
X177618571Y-124414643D01*
X177654856Y-124342071D01*
X177691142Y-124196929D01*
X177691142Y-124015500D01*
X177654856Y-123870357D01*
X177618571Y-123797786D01*
X177582285Y-123761500D01*
X177509714Y-123725214D01*
D15*
X113084429Y-80490785D02*
X111560429Y-80490785D01*
X112649000Y-80998785D01*
X111560429Y-81506785D01*
X113084429Y-81506785D01*
X113084429Y-82232499D02*
X112068429Y-82232499D01*
X111560429Y-82232499D02*
X111633000Y-82159928D01*
X111705571Y-82232499D01*
X111633000Y-82305071D01*
X111560429Y-82232499D01*
X111705571Y-82232499D01*
X112068429Y-82958213D02*
X113084429Y-82958213D01*
X112213571Y-82958213D02*
X112141000Y-83030785D01*
X112068429Y-83175927D01*
X112068429Y-83393642D01*
X112141000Y-83538785D01*
X112286143Y-83611356D01*
X113084429Y-83611356D01*
X113084429Y-84337070D02*
X112068429Y-84337070D01*
X111560429Y-84337070D02*
X111633000Y-84264499D01*
X111705571Y-84337070D01*
X111633000Y-84409642D01*
X111560429Y-84337070D01*
X111705571Y-84337070D01*
X113084429Y-85062784D02*
X111560429Y-85062784D01*
X112649000Y-85570784D01*
X111560429Y-86078784D01*
X113084429Y-86078784D01*
X113084429Y-87457641D02*
X112286143Y-87457641D01*
X112141000Y-87385070D01*
X112068429Y-87239927D01*
X112068429Y-86949641D01*
X112141000Y-86804498D01*
X113011857Y-87457641D02*
X113084429Y-87312498D01*
X113084429Y-86949641D01*
X113011857Y-86804498D01*
X112866714Y-86731927D01*
X112721571Y-86731927D01*
X112576429Y-86804498D01*
X112503857Y-86949641D01*
X112503857Y-87312498D01*
X112431286Y-87457641D01*
X113084429Y-88038212D02*
X112068429Y-88836498D01*
X112068429Y-88038212D02*
X113084429Y-88836498D01*
X112213571Y-90795926D02*
X112141000Y-90650784D01*
X112068429Y-90578212D01*
X111923286Y-90505641D01*
X111850714Y-90505641D01*
X111705571Y-90578212D01*
X111633000Y-90650784D01*
X111560429Y-90795926D01*
X111560429Y-91086212D01*
X111633000Y-91231355D01*
X111705571Y-91303926D01*
X111850714Y-91376498D01*
X111923286Y-91376498D01*
X112068429Y-91303926D01*
X112141000Y-91231355D01*
X112213571Y-91086212D01*
X112213571Y-90795926D01*
X112286143Y-90650784D01*
X112358714Y-90578212D01*
X112503857Y-90505641D01*
X112794143Y-90505641D01*
X112939286Y-90578212D01*
X113011857Y-90650784D01*
X113084429Y-90795926D01*
X113084429Y-91086212D01*
X113011857Y-91231355D01*
X112939286Y-91303926D01*
X112794143Y-91376498D01*
X112503857Y-91376498D01*
X112358714Y-91303926D01*
X112286143Y-91231355D01*
X112213571Y-91086212D01*
X111560429Y-92319927D02*
X111560429Y-92465070D01*
X111633000Y-92610213D01*
X111705571Y-92682784D01*
X111850714Y-92755355D01*
X112141000Y-92827927D01*
X112503857Y-92827927D01*
X112794143Y-92755355D01*
X112939286Y-92682784D01*
X113011857Y-92610213D01*
X113084429Y-92465070D01*
X113084429Y-92319927D01*
X113011857Y-92174784D01*
X112939286Y-92102213D01*
X112794143Y-92029641D01*
X112503857Y-91957070D01*
X112141000Y-91957070D01*
X111850714Y-92029641D01*
X111705571Y-92102213D01*
X111633000Y-92174784D01*
X111560429Y-92319927D01*
X112213571Y-93698784D02*
X112141000Y-93553642D01*
X112068429Y-93481070D01*
X111923286Y-93408499D01*
X111850714Y-93408499D01*
X111705571Y-93481070D01*
X111633000Y-93553642D01*
X111560429Y-93698784D01*
X111560429Y-93989070D01*
X111633000Y-94134213D01*
X111705571Y-94206784D01*
X111850714Y-94279356D01*
X111923286Y-94279356D01*
X112068429Y-94206784D01*
X112141000Y-94134213D01*
X112213571Y-93989070D01*
X112213571Y-93698784D01*
X112286143Y-93553642D01*
X112358714Y-93481070D01*
X112503857Y-93408499D01*
X112794143Y-93408499D01*
X112939286Y-93481070D01*
X113011857Y-93553642D01*
X113084429Y-93698784D01*
X113084429Y-93989070D01*
X113011857Y-94134213D01*
X112939286Y-94206784D01*
X112794143Y-94279356D01*
X112503857Y-94279356D01*
X112358714Y-94206784D01*
X112286143Y-94134213D01*
X112213571Y-93989070D01*
X111560429Y-95658213D02*
X111560429Y-94932499D01*
X112286143Y-94859928D01*
X112213571Y-94932499D01*
X112141000Y-95077642D01*
X112141000Y-95440499D01*
X112213571Y-95585642D01*
X112286143Y-95658213D01*
X112431286Y-95730785D01*
X112794143Y-95730785D01*
X112939286Y-95658213D01*
X113011857Y-95585642D01*
X113084429Y-95440499D01*
X113084429Y-95077642D01*
X113011857Y-94932499D01*
X112939286Y-94859928D01*
X111560429Y-97327357D02*
X113084429Y-97835357D01*
X111560429Y-98343357D01*
X113084429Y-99649643D02*
X113084429Y-98778786D01*
X113084429Y-99214214D02*
X111560429Y-99214214D01*
X111778143Y-99069071D01*
X111923286Y-98923929D01*
X111995857Y-98778786D01*
X112939286Y-100302786D02*
X113011857Y-100375358D01*
X113084429Y-100302786D01*
X113011857Y-100230215D01*
X112939286Y-100302786D01*
X113084429Y-100302786D01*
X111560429Y-101318786D02*
X111560429Y-101463929D01*
X111633000Y-101609072D01*
X111705571Y-101681643D01*
X111850714Y-101754214D01*
X112141000Y-101826786D01*
X112503857Y-101826786D01*
X112794143Y-101754214D01*
X112939286Y-101681643D01*
X113011857Y-101609072D01*
X113084429Y-101463929D01*
X113084429Y-101318786D01*
X113011857Y-101173643D01*
X112939286Y-101101072D01*
X112794143Y-101028500D01*
X112503857Y-100955929D01*
X112141000Y-100955929D01*
X111850714Y-101028500D01*
X111705571Y-101101072D01*
X111633000Y-101173643D01*
X111560429Y-101318786D01*
D12*
X116707557Y-88597620D02*
X116755938Y-88549239D01*
X116804319Y-88404096D01*
X116804319Y-88307334D01*
X116755938Y-88162192D01*
X116659176Y-88065430D01*
X116562414Y-88017049D01*
X116368890Y-87968668D01*
X116223748Y-87968668D01*
X116030224Y-88017049D01*
X115933462Y-88065430D01*
X115836700Y-88162192D01*
X115788319Y-88307334D01*
X115788319Y-88404096D01*
X115836700Y-88549239D01*
X115885081Y-88597620D01*
X116804319Y-89178192D02*
X116755938Y-89081430D01*
X116707557Y-89033049D01*
X116610795Y-88984668D01*
X116320510Y-88984668D01*
X116223748Y-89033049D01*
X116175367Y-89081430D01*
X116126986Y-89178192D01*
X116126986Y-89323334D01*
X116175367Y-89420096D01*
X116223748Y-89468477D01*
X116320510Y-89516858D01*
X116610795Y-89516858D01*
X116707557Y-89468477D01*
X116755938Y-89420096D01*
X116804319Y-89323334D01*
X116804319Y-89178192D01*
X116126986Y-89952287D02*
X117142986Y-89952287D01*
X116175367Y-89952287D02*
X116126986Y-90049049D01*
X116126986Y-90242572D01*
X116175367Y-90339334D01*
X116223748Y-90387715D01*
X116320510Y-90436096D01*
X116610795Y-90436096D01*
X116707557Y-90387715D01*
X116755938Y-90339334D01*
X116804319Y-90242572D01*
X116804319Y-90049049D01*
X116755938Y-89952287D01*
X116126986Y-90774763D02*
X116804319Y-91016668D01*
X116126986Y-91258572D02*
X116804319Y-91016668D01*
X117046224Y-90919906D01*
X117094605Y-90871525D01*
X117142986Y-90774763D01*
X116804319Y-91645620D02*
X116126986Y-91645620D01*
X116320510Y-91645620D02*
X116223748Y-91694001D01*
X116175367Y-91742382D01*
X116126986Y-91839144D01*
X116126986Y-91935905D01*
X116804319Y-92274572D02*
X116126986Y-92274572D01*
X115788319Y-92274572D02*
X115836700Y-92226191D01*
X115885081Y-92274572D01*
X115836700Y-92322953D01*
X115788319Y-92274572D01*
X115885081Y-92274572D01*
X116126986Y-93193810D02*
X116949462Y-93193810D01*
X117046224Y-93145429D01*
X117094605Y-93097048D01*
X117142986Y-93000287D01*
X117142986Y-92855144D01*
X117094605Y-92758382D01*
X116755938Y-93193810D02*
X116804319Y-93097048D01*
X116804319Y-92903525D01*
X116755938Y-92806763D01*
X116707557Y-92758382D01*
X116610795Y-92710001D01*
X116320510Y-92710001D01*
X116223748Y-92758382D01*
X116175367Y-92806763D01*
X116126986Y-92903525D01*
X116126986Y-93097048D01*
X116175367Y-93193810D01*
X116804319Y-93677620D02*
X115788319Y-93677620D01*
X116804319Y-94113048D02*
X116272129Y-94113048D01*
X116175367Y-94064667D01*
X116126986Y-93967905D01*
X116126986Y-93822763D01*
X116175367Y-93726001D01*
X116223748Y-93677620D01*
X116126986Y-94451715D02*
X116126986Y-94838763D01*
X115788319Y-94596858D02*
X116659176Y-94596858D01*
X116755938Y-94645239D01*
X116804319Y-94742001D01*
X116804319Y-94838763D01*
X117191367Y-96241809D02*
X117142986Y-96193429D01*
X116997843Y-96096667D01*
X116901081Y-96048286D01*
X116755938Y-95999905D01*
X116514033Y-95951524D01*
X116320510Y-95951524D01*
X116078605Y-95999905D01*
X115933462Y-96048286D01*
X115836700Y-96096667D01*
X115691557Y-96193429D01*
X115643176Y-96241809D01*
X116707557Y-97209428D02*
X116755938Y-97161047D01*
X116804319Y-97015904D01*
X116804319Y-96919142D01*
X116755938Y-96774000D01*
X116659176Y-96677238D01*
X116562414Y-96628857D01*
X116368890Y-96580476D01*
X116223748Y-96580476D01*
X116030224Y-96628857D01*
X115933462Y-96677238D01*
X115836700Y-96774000D01*
X115788319Y-96919142D01*
X115788319Y-97015904D01*
X115836700Y-97161047D01*
X115885081Y-97209428D01*
X117191367Y-97548095D02*
X117142986Y-97596476D01*
X116997843Y-97693238D01*
X116901081Y-97741619D01*
X116755938Y-97790000D01*
X116514033Y-97838381D01*
X116320510Y-97838381D01*
X116078605Y-97790000D01*
X115933462Y-97741619D01*
X115836700Y-97693238D01*
X115691557Y-97596476D01*
X115643176Y-97548095D01*
X115885081Y-99047904D02*
X115836700Y-99096285D01*
X115788319Y-99193047D01*
X115788319Y-99434951D01*
X115836700Y-99531713D01*
X115885081Y-99580094D01*
X115981843Y-99628475D01*
X116078605Y-99628475D01*
X116223748Y-99580094D01*
X116804319Y-98999523D01*
X116804319Y-99628475D01*
X115788319Y-100257428D02*
X115788319Y-100354189D01*
X115836700Y-100450951D01*
X115885081Y-100499332D01*
X115981843Y-100547713D01*
X116175367Y-100596094D01*
X116417271Y-100596094D01*
X116610795Y-100547713D01*
X116707557Y-100499332D01*
X116755938Y-100450951D01*
X116804319Y-100354189D01*
X116804319Y-100257428D01*
X116755938Y-100160666D01*
X116707557Y-100112285D01*
X116610795Y-100063904D01*
X116417271Y-100015523D01*
X116175367Y-100015523D01*
X115981843Y-100063904D01*
X115885081Y-100112285D01*
X115836700Y-100160666D01*
X115788319Y-100257428D01*
X116804319Y-101563713D02*
X116804319Y-100983142D01*
X116804319Y-101273428D02*
X115788319Y-101273428D01*
X115933462Y-101176666D01*
X116030224Y-101079904D01*
X116078605Y-100983142D01*
X115788319Y-101902380D02*
X115788319Y-102579713D01*
X116804319Y-102144285D01*
X118381538Y-89855525D02*
X118429919Y-90000668D01*
X118429919Y-90242572D01*
X118381538Y-90339334D01*
X118333157Y-90387715D01*
X118236395Y-90436096D01*
X118139633Y-90436096D01*
X118042871Y-90387715D01*
X117994490Y-90339334D01*
X117946110Y-90242572D01*
X117897729Y-90049049D01*
X117849348Y-89952287D01*
X117800967Y-89903906D01*
X117704205Y-89855525D01*
X117607443Y-89855525D01*
X117510681Y-89903906D01*
X117462300Y-89952287D01*
X117413919Y-90049049D01*
X117413919Y-90290953D01*
X117462300Y-90436096D01*
X118381538Y-91258572D02*
X118429919Y-91161810D01*
X118429919Y-90968287D01*
X118381538Y-90871525D01*
X118284776Y-90823144D01*
X117897729Y-90823144D01*
X117800967Y-90871525D01*
X117752586Y-90968287D01*
X117752586Y-91161810D01*
X117800967Y-91258572D01*
X117897729Y-91306953D01*
X117994490Y-91306953D01*
X118091252Y-90823144D01*
X118429919Y-91742382D02*
X117752586Y-91742382D01*
X117946110Y-91742382D02*
X117849348Y-91790763D01*
X117800967Y-91839144D01*
X117752586Y-91935906D01*
X117752586Y-92032667D01*
X117752586Y-92806762D02*
X118575062Y-92806762D01*
X118671824Y-92758381D01*
X118720205Y-92710000D01*
X118768586Y-92613239D01*
X118768586Y-92468096D01*
X118720205Y-92371334D01*
X118381538Y-92806762D02*
X118429919Y-92710000D01*
X118429919Y-92516477D01*
X118381538Y-92419715D01*
X118333157Y-92371334D01*
X118236395Y-92322953D01*
X117946110Y-92322953D01*
X117849348Y-92371334D01*
X117800967Y-92419715D01*
X117752586Y-92516477D01*
X117752586Y-92710000D01*
X117800967Y-92806762D01*
X118381538Y-93677619D02*
X118429919Y-93580857D01*
X118429919Y-93387334D01*
X118381538Y-93290572D01*
X118284776Y-93242191D01*
X117897729Y-93242191D01*
X117800967Y-93290572D01*
X117752586Y-93387334D01*
X117752586Y-93580857D01*
X117800967Y-93677619D01*
X117897729Y-93726000D01*
X117994490Y-93726000D01*
X118091252Y-93242191D01*
X117752586Y-94064667D02*
X118429919Y-94306572D01*
X117752586Y-94548476D02*
X118429919Y-94306572D01*
X118671824Y-94209810D01*
X118720205Y-94161429D01*
X118768586Y-94064667D01*
X118429919Y-95709619D02*
X117413919Y-95709619D01*
X118429919Y-96290190D02*
X117849348Y-95854762D01*
X117413919Y-96290190D02*
X117994490Y-95709619D01*
X118429919Y-96725619D02*
X117752586Y-96725619D01*
X117413919Y-96725619D02*
X117462300Y-96677238D01*
X117510681Y-96725619D01*
X117462300Y-96774000D01*
X117413919Y-96725619D01*
X117510681Y-96725619D01*
X118381538Y-97161048D02*
X118429919Y-97257810D01*
X118429919Y-97451334D01*
X118381538Y-97548095D01*
X118284776Y-97596476D01*
X118236395Y-97596476D01*
X118139633Y-97548095D01*
X118091252Y-97451334D01*
X118091252Y-97306191D01*
X118042871Y-97209429D01*
X117946110Y-97161048D01*
X117897729Y-97161048D01*
X117800967Y-97209429D01*
X117752586Y-97306191D01*
X117752586Y-97451334D01*
X117800967Y-97548095D01*
X118381538Y-98418952D02*
X118429919Y-98322190D01*
X118429919Y-98128667D01*
X118381538Y-98031905D01*
X118284776Y-97983524D01*
X117897729Y-97983524D01*
X117800967Y-98031905D01*
X117752586Y-98128667D01*
X117752586Y-98322190D01*
X117800967Y-98418952D01*
X117897729Y-98467333D01*
X117994490Y-98467333D01*
X118091252Y-97983524D01*
X118429919Y-99047905D02*
X118381538Y-98951143D01*
X118284776Y-98902762D01*
X117413919Y-98902762D01*
X118381538Y-99821999D02*
X118429919Y-99725237D01*
X118429919Y-99531714D01*
X118381538Y-99434952D01*
X118284776Y-99386571D01*
X117897729Y-99386571D01*
X117800967Y-99434952D01*
X117752586Y-99531714D01*
X117752586Y-99725237D01*
X117800967Y-99821999D01*
X117897729Y-99870380D01*
X117994490Y-99870380D01*
X118091252Y-99386571D01*
X117752586Y-100209047D02*
X118429919Y-100450952D01*
X117752586Y-100692856D01*
D14*
X118427500Y-79692500D02*
X115887500Y-82232500D01*
X115887500Y-82232500D02*
X117157500Y-83502500D01*
X117157500Y-83502500D02*
X116522500Y-84137500D01*
X116522500Y-84137500D02*
X118427500Y-86042500D01*
X118427500Y-86042500D02*
X118427500Y-84772500D01*
X118427500Y-84772500D02*
X117792500Y-84137500D01*
X117792500Y-84137500D02*
X118427500Y-83502500D01*
X118427500Y-83502500D02*
X117157500Y-82232500D01*
X117157500Y-82232500D02*
X118427500Y-80962500D01*
X118427500Y-80962500D02*
X118427500Y-79692500D01*
X115887500Y-82232500D02*
X117157500Y-82232500D01*
X116522500Y-84137500D02*
X117792500Y-84137500D01*
X117157500Y-83502500D02*
X118427500Y-83502500D01*
X116522500Y-82232500D02*
X117792500Y-83502500D01*
X117157500Y-84137500D02*
X118427500Y-85407500D01*
D12*
X147081119Y-80750833D02*
X147806833Y-80750833D01*
X147951976Y-80702453D01*
X148048738Y-80605691D01*
X148097119Y-80460548D01*
X148097119Y-80363786D01*
X148097119Y-81234643D02*
X147081119Y-81234643D01*
X147081119Y-81621690D01*
X147129500Y-81718452D01*
X147177881Y-81766833D01*
X147274643Y-81815214D01*
X147419786Y-81815214D01*
X147516548Y-81766833D01*
X147564929Y-81718452D01*
X147613310Y-81621690D01*
X147613310Y-81234643D01*
X147081119Y-82153881D02*
X147081119Y-82782833D01*
X147468167Y-82444167D01*
X147468167Y-82589309D01*
X147516548Y-82686071D01*
X147564929Y-82734452D01*
X147661690Y-82782833D01*
X147903595Y-82782833D01*
X148000357Y-82734452D01*
X148048738Y-82686071D01*
X148097119Y-82589309D01*
X148097119Y-82299024D01*
X148048738Y-82202262D01*
X148000357Y-82153881D01*
D14*
X148844000Y-79946500D02*
X148844000Y-81978500D01*
X149606000Y-79946500D02*
X148844000Y-79946500D01*
X149606000Y-81978500D02*
X149606000Y-79946500D01*
X148844000Y-81978500D02*
X149606000Y-81978500D01*
X148590000Y-79692500D02*
X148590000Y-83502500D01*
X148590000Y-83502500D02*
X149860000Y-83502500D01*
X149860000Y-83502500D02*
X149860000Y-79692500D01*
X148590000Y-79692500D02*
X149860000Y-79692500D01*
X149352000Y-80327500D02*
G75*
G03X149352000Y-80327500I-127000J0D01*
G01*
X149352000Y-81597500D02*
G75*
G03X149352000Y-81597500I-127000J0D01*
G01*
X149352000Y-82867500D02*
G75*
G03X149352000Y-82867500I-127000J0D01*
G01*
X147637500Y-78740000D02*
X148272500Y-79375000D01*
X147955000Y-79375000D02*
X148272500Y-79375000D01*
X148272500Y-79057500D02*
X148272500Y-79375000D01*
D12*
X151843619Y-80750833D02*
X152569333Y-80750833D01*
X152714476Y-80702453D01*
X152811238Y-80605691D01*
X152859619Y-80460548D01*
X152859619Y-80363786D01*
X152859619Y-81234643D02*
X151843619Y-81234643D01*
X151843619Y-81621690D01*
X151892000Y-81718452D01*
X151940381Y-81766833D01*
X152037143Y-81815214D01*
X152182286Y-81815214D01*
X152279048Y-81766833D01*
X152327429Y-81718452D01*
X152375810Y-81621690D01*
X152375810Y-81234643D01*
X151843619Y-82153881D02*
X151843619Y-82782833D01*
X152230667Y-82444167D01*
X152230667Y-82589309D01*
X152279048Y-82686071D01*
X152327429Y-82734452D01*
X152424190Y-82782833D01*
X152666095Y-82782833D01*
X152762857Y-82734452D01*
X152811238Y-82686071D01*
X152859619Y-82589309D01*
X152859619Y-82299024D01*
X152811238Y-82202262D01*
X152762857Y-82153881D01*
D14*
X153035000Y-79057500D02*
X153035000Y-79375000D01*
X152717500Y-79375000D02*
X153035000Y-79375000D01*
X152400000Y-78740000D02*
X153035000Y-79375000D01*
X154114500Y-82867500D02*
G75*
G03X154114500Y-82867500I-127000J0D01*
G01*
X154114500Y-81597500D02*
G75*
G03X154114500Y-81597500I-127000J0D01*
G01*
X154114500Y-80327500D02*
G75*
G03X154114500Y-80327500I-127000J0D01*
G01*
X153352500Y-79692500D02*
X154622500Y-79692500D01*
X154622500Y-83502500D02*
X154622500Y-79692500D01*
X153352500Y-83502500D02*
X154622500Y-83502500D01*
X153352500Y-79692500D02*
X153352500Y-83502500D01*
X153606500Y-83248500D02*
X154368500Y-83248500D01*
X154368500Y-83248500D02*
X154368500Y-81216500D01*
X154368500Y-81216500D02*
X153606500Y-81216500D01*
X153606500Y-81216500D02*
X153606500Y-83248500D01*
D13*
X145022857Y-104997143D02*
X145094286Y-105211429D01*
X145165714Y-105282857D01*
X145308571Y-105354286D01*
X145522857Y-105354286D01*
X145665714Y-105282857D01*
X145737143Y-105211429D01*
X145808571Y-105068571D01*
X145808571Y-104497143D01*
X144308571Y-104497143D01*
X144308571Y-104997143D01*
X144380000Y-105140000D01*
X144451429Y-105211429D01*
X144594286Y-105282857D01*
X144737143Y-105282857D01*
X144880000Y-105211429D01*
X144951429Y-105140000D01*
X145022857Y-104997143D01*
X145022857Y-104497143D01*
X145808571Y-106640000D02*
X145022857Y-106640000D01*
X144880000Y-106568571D01*
X144808571Y-106425714D01*
X144808571Y-106140000D01*
X144880000Y-105997143D01*
X145737143Y-106640000D02*
X145808571Y-106497143D01*
X145808571Y-106140000D01*
X145737143Y-105997143D01*
X145594286Y-105925714D01*
X145451429Y-105925714D01*
X145308571Y-105997143D01*
X145237143Y-106140000D01*
X145237143Y-106497143D01*
X145165714Y-106640000D01*
X144808571Y-107997143D02*
X145808571Y-107997143D01*
X144808571Y-107354286D02*
X145594286Y-107354286D01*
X145737143Y-107425714D01*
X145808571Y-107568572D01*
X145808571Y-107782857D01*
X145737143Y-107925714D01*
X145665714Y-107997143D01*
X145808571Y-109354286D02*
X144308571Y-109354286D01*
X145737143Y-109354286D02*
X145808571Y-109211429D01*
X145808571Y-108925715D01*
X145737143Y-108782857D01*
X145665714Y-108711429D01*
X145522857Y-108640000D01*
X145094286Y-108640000D01*
X144951429Y-108711429D01*
X144880000Y-108782857D01*
X144808571Y-108925715D01*
X144808571Y-109211429D01*
X144880000Y-109354286D01*
X145808571Y-112068572D02*
X145094286Y-111568572D01*
X145808571Y-111211429D02*
X144308571Y-111211429D01*
X144308571Y-111782857D01*
X144380000Y-111925715D01*
X144451429Y-111997143D01*
X144594286Y-112068572D01*
X144808571Y-112068572D01*
X144951429Y-111997143D01*
X145022857Y-111925715D01*
X145094286Y-111782857D01*
X145094286Y-111211429D01*
X145808571Y-113354286D02*
X145022857Y-113354286D01*
X144880000Y-113282857D01*
X144808571Y-113140000D01*
X144808571Y-112854286D01*
X144880000Y-112711429D01*
X145737143Y-113354286D02*
X145808571Y-113211429D01*
X145808571Y-112854286D01*
X145737143Y-112711429D01*
X145594286Y-112640000D01*
X145451429Y-112640000D01*
X145308571Y-112711429D01*
X145237143Y-112854286D01*
X145237143Y-113211429D01*
X145165714Y-113354286D01*
X144808571Y-113854286D02*
X144808571Y-114425715D01*
X144308571Y-114068572D02*
X145594286Y-114068572D01*
X145737143Y-114140000D01*
X145808571Y-114282858D01*
X145808571Y-114425715D01*
X145737143Y-115497143D02*
X145808571Y-115354286D01*
X145808571Y-115068572D01*
X145737143Y-114925715D01*
X145594286Y-114854286D01*
X145022857Y-114854286D01*
X144880000Y-114925715D01*
X144808571Y-115068572D01*
X144808571Y-115354286D01*
X144880000Y-115497143D01*
X145022857Y-115568572D01*
X145165714Y-115568572D01*
X145308571Y-114854286D01*
X148208571Y-105282857D02*
X148208571Y-104425714D01*
X148208571Y-104854286D02*
X146708571Y-104854286D01*
X146922857Y-104711429D01*
X147065714Y-104568571D01*
X147137143Y-104425714D01*
X148208571Y-105997142D02*
X148208571Y-106282857D01*
X148137143Y-106425714D01*
X148065714Y-106497142D01*
X147851429Y-106640000D01*
X147565714Y-106711428D01*
X146994286Y-106711428D01*
X146851429Y-106640000D01*
X146780000Y-106568571D01*
X146708571Y-106425714D01*
X146708571Y-106140000D01*
X146780000Y-105997142D01*
X146851429Y-105925714D01*
X146994286Y-105854285D01*
X147351429Y-105854285D01*
X147494286Y-105925714D01*
X147565714Y-105997142D01*
X147637143Y-106140000D01*
X147637143Y-106425714D01*
X147565714Y-106568571D01*
X147494286Y-106640000D01*
X147351429Y-106711428D01*
X146851429Y-107282856D02*
X146780000Y-107354285D01*
X146708571Y-107497142D01*
X146708571Y-107854285D01*
X146780000Y-107997142D01*
X146851429Y-108068571D01*
X146994286Y-108139999D01*
X147137143Y-108139999D01*
X147351429Y-108068571D01*
X148208571Y-107211428D01*
X148208571Y-108139999D01*
X146708571Y-109068570D02*
X146708571Y-109211427D01*
X146780000Y-109354284D01*
X146851429Y-109425713D01*
X146994286Y-109497142D01*
X147280000Y-109568570D01*
X147637143Y-109568570D01*
X147922857Y-109497142D01*
X148065714Y-109425713D01*
X148137143Y-109354284D01*
X148208571Y-109211427D01*
X148208571Y-109068570D01*
X148137143Y-108925713D01*
X148065714Y-108854284D01*
X147922857Y-108782856D01*
X147637143Y-108711427D01*
X147280000Y-108711427D01*
X146994286Y-108782856D01*
X146851429Y-108854284D01*
X146780000Y-108925713D01*
X146708571Y-109068570D01*
X146708571Y-110497141D02*
X146708571Y-110639998D01*
X146780000Y-110782855D01*
X146851429Y-110854284D01*
X146994286Y-110925713D01*
X147280000Y-110997141D01*
X147637143Y-110997141D01*
X147922857Y-110925713D01*
X148065714Y-110854284D01*
X148137143Y-110782855D01*
X148208571Y-110639998D01*
X148208571Y-110497141D01*
X148137143Y-110354284D01*
X148065714Y-110282855D01*
X147922857Y-110211427D01*
X147637143Y-110139998D01*
X147280000Y-110139998D01*
X146994286Y-110211427D01*
X146851429Y-110282855D01*
X146780000Y-110354284D01*
X146708571Y-110497141D01*
X149251429Y-104425714D02*
X149180000Y-104497143D01*
X149108571Y-104640000D01*
X149108571Y-104997143D01*
X149180000Y-105140000D01*
X149251429Y-105211429D01*
X149394286Y-105282857D01*
X149537143Y-105282857D01*
X149751429Y-105211429D01*
X150608571Y-104354286D01*
X150608571Y-105282857D01*
X149608571Y-106568571D02*
X150608571Y-106568571D01*
X149037143Y-106211428D02*
X150108571Y-105854285D01*
X150108571Y-106782857D01*
X149108571Y-107639999D02*
X149108571Y-107782856D01*
X149180000Y-107925713D01*
X149251429Y-107997142D01*
X149394286Y-108068571D01*
X149680000Y-108139999D01*
X150037143Y-108139999D01*
X150322857Y-108068571D01*
X150465714Y-107997142D01*
X150537143Y-107925713D01*
X150608571Y-107782856D01*
X150608571Y-107639999D01*
X150537143Y-107497142D01*
X150465714Y-107425713D01*
X150322857Y-107354285D01*
X150037143Y-107282856D01*
X149680000Y-107282856D01*
X149394286Y-107354285D01*
X149251429Y-107425713D01*
X149180000Y-107497142D01*
X149108571Y-107639999D01*
X149108571Y-109068570D02*
X149108571Y-109211427D01*
X149180000Y-109354284D01*
X149251429Y-109425713D01*
X149394286Y-109497142D01*
X149680000Y-109568570D01*
X150037143Y-109568570D01*
X150322857Y-109497142D01*
X150465714Y-109425713D01*
X150537143Y-109354284D01*
X150608571Y-109211427D01*
X150608571Y-109068570D01*
X150537143Y-108925713D01*
X150465714Y-108854284D01*
X150322857Y-108782856D01*
X150037143Y-108711427D01*
X149680000Y-108711427D01*
X149394286Y-108782856D01*
X149251429Y-108854284D01*
X149180000Y-108925713D01*
X149108571Y-109068570D01*
X153008571Y-104568571D02*
X153008571Y-104854286D01*
X152937143Y-104997143D01*
X152865714Y-105068571D01*
X152651429Y-105211429D01*
X152365714Y-105282857D01*
X151794286Y-105282857D01*
X151651429Y-105211429D01*
X151580000Y-105140000D01*
X151508571Y-104997143D01*
X151508571Y-104711429D01*
X151580000Y-104568571D01*
X151651429Y-104497143D01*
X151794286Y-104425714D01*
X152151429Y-104425714D01*
X152294286Y-104497143D01*
X152365714Y-104568571D01*
X152437143Y-104711429D01*
X152437143Y-104997143D01*
X152365714Y-105140000D01*
X152294286Y-105211429D01*
X152151429Y-105282857D01*
X151508571Y-106568571D02*
X151508571Y-106282857D01*
X151580000Y-106140000D01*
X151651429Y-106068571D01*
X151865714Y-105925714D01*
X152151429Y-105854285D01*
X152722857Y-105854285D01*
X152865714Y-105925714D01*
X152937143Y-105997142D01*
X153008571Y-106140000D01*
X153008571Y-106425714D01*
X152937143Y-106568571D01*
X152865714Y-106640000D01*
X152722857Y-106711428D01*
X152365714Y-106711428D01*
X152222857Y-106640000D01*
X152151429Y-106568571D01*
X152080000Y-106425714D01*
X152080000Y-106140000D01*
X152151429Y-105997142D01*
X152222857Y-105925714D01*
X152365714Y-105854285D01*
X151508571Y-107639999D02*
X151508571Y-107782856D01*
X151580000Y-107925713D01*
X151651429Y-107997142D01*
X151794286Y-108068571D01*
X152080000Y-108139999D01*
X152437143Y-108139999D01*
X152722857Y-108068571D01*
X152865714Y-107997142D01*
X152937143Y-107925713D01*
X153008571Y-107782856D01*
X153008571Y-107639999D01*
X152937143Y-107497142D01*
X152865714Y-107425713D01*
X152722857Y-107354285D01*
X152437143Y-107282856D01*
X152080000Y-107282856D01*
X151794286Y-107354285D01*
X151651429Y-107425713D01*
X151580000Y-107497142D01*
X151508571Y-107639999D01*
X151508571Y-109068570D02*
X151508571Y-109211427D01*
X151580000Y-109354284D01*
X151651429Y-109425713D01*
X151794286Y-109497142D01*
X152080000Y-109568570D01*
X152437143Y-109568570D01*
X152722857Y-109497142D01*
X152865714Y-109425713D01*
X152937143Y-109354284D01*
X153008571Y-109211427D01*
X153008571Y-109068570D01*
X152937143Y-108925713D01*
X152865714Y-108854284D01*
X152722857Y-108782856D01*
X152437143Y-108711427D01*
X152080000Y-108711427D01*
X151794286Y-108782856D01*
X151651429Y-108854284D01*
X151580000Y-108925713D01*
X151508571Y-109068570D01*
X155408571Y-105282857D02*
X155408571Y-104425714D01*
X155408571Y-104854286D02*
X153908571Y-104854286D01*
X154122857Y-104711429D01*
X154265714Y-104568571D01*
X154337143Y-104425714D01*
X154051429Y-105854285D02*
X153980000Y-105925714D01*
X153908571Y-106068571D01*
X153908571Y-106425714D01*
X153980000Y-106568571D01*
X154051429Y-106640000D01*
X154194286Y-106711428D01*
X154337143Y-106711428D01*
X154551429Y-106640000D01*
X155408571Y-105782857D01*
X155408571Y-106711428D01*
X153908571Y-107639999D02*
X153908571Y-107782856D01*
X153980000Y-107925713D01*
X154051429Y-107997142D01*
X154194286Y-108068571D01*
X154480000Y-108139999D01*
X154837143Y-108139999D01*
X155122857Y-108068571D01*
X155265714Y-107997142D01*
X155337143Y-107925713D01*
X155408571Y-107782856D01*
X155408571Y-107639999D01*
X155337143Y-107497142D01*
X155265714Y-107425713D01*
X155122857Y-107354285D01*
X154837143Y-107282856D01*
X154480000Y-107282856D01*
X154194286Y-107354285D01*
X154051429Y-107425713D01*
X153980000Y-107497142D01*
X153908571Y-107639999D01*
X153908571Y-109068570D02*
X153908571Y-109211427D01*
X153980000Y-109354284D01*
X154051429Y-109425713D01*
X154194286Y-109497142D01*
X154480000Y-109568570D01*
X154837143Y-109568570D01*
X155122857Y-109497142D01*
X155265714Y-109425713D01*
X155337143Y-109354284D01*
X155408571Y-109211427D01*
X155408571Y-109068570D01*
X155337143Y-108925713D01*
X155265714Y-108854284D01*
X155122857Y-108782856D01*
X154837143Y-108711427D01*
X154480000Y-108711427D01*
X154194286Y-108782856D01*
X154051429Y-108854284D01*
X153980000Y-108925713D01*
X153908571Y-109068570D01*
X144238571Y-84812143D02*
X145452857Y-84812143D01*
X145595714Y-84883571D01*
X145667143Y-84955000D01*
X145738571Y-85097857D01*
X145738571Y-85383571D01*
X145667143Y-85526429D01*
X145595714Y-85597857D01*
X145452857Y-85669286D01*
X144238571Y-85669286D01*
X145667143Y-86312143D02*
X145738571Y-86526429D01*
X145738571Y-86883572D01*
X145667143Y-87026429D01*
X145595714Y-87097858D01*
X145452857Y-87169286D01*
X145310000Y-87169286D01*
X145167143Y-87097858D01*
X145095714Y-87026429D01*
X145024286Y-86883572D01*
X144952857Y-86597858D01*
X144881429Y-86455000D01*
X144810000Y-86383572D01*
X144667143Y-86312143D01*
X144524286Y-86312143D01*
X144381429Y-86383572D01*
X144310000Y-86455000D01*
X144238571Y-86597858D01*
X144238571Y-86955000D01*
X144310000Y-87169286D01*
X145310000Y-87740714D02*
X145310000Y-88455000D01*
X145738571Y-87597857D02*
X144238571Y-88097857D01*
X145738571Y-88597857D01*
X145738571Y-89955000D02*
X145024286Y-89455000D01*
X145738571Y-89097857D02*
X144238571Y-89097857D01*
X144238571Y-89669285D01*
X144310000Y-89812143D01*
X144381429Y-89883571D01*
X144524286Y-89955000D01*
X144738571Y-89955000D01*
X144881429Y-89883571D01*
X144952857Y-89812143D01*
X145024286Y-89669285D01*
X145024286Y-89097857D01*
X144238571Y-90383571D02*
X144238571Y-91240714D01*
X145738571Y-90812143D02*
X144238571Y-90812143D01*
X145595714Y-93740714D02*
X145667143Y-93669285D01*
X145738571Y-93454999D01*
X145738571Y-93312142D01*
X145667143Y-93097857D01*
X145524286Y-92954999D01*
X145381429Y-92883571D01*
X145095714Y-92812142D01*
X144881429Y-92812142D01*
X144595714Y-92883571D01*
X144452857Y-92954999D01*
X144310000Y-93097857D01*
X144238571Y-93312142D01*
X144238571Y-93454999D01*
X144310000Y-93669285D01*
X144381429Y-93740714D01*
X145738571Y-94597857D02*
X145667143Y-94454999D01*
X145524286Y-94383571D01*
X144238571Y-94383571D01*
X145738571Y-95383571D02*
X145667143Y-95240713D01*
X145595714Y-95169285D01*
X145452857Y-95097856D01*
X145024286Y-95097856D01*
X144881429Y-95169285D01*
X144810000Y-95240713D01*
X144738571Y-95383571D01*
X144738571Y-95597856D01*
X144810000Y-95740713D01*
X144881429Y-95812142D01*
X145024286Y-95883571D01*
X145452857Y-95883571D01*
X145595714Y-95812142D01*
X145667143Y-95740713D01*
X145738571Y-95597856D01*
X145738571Y-95383571D01*
X145667143Y-97169285D02*
X145738571Y-97026428D01*
X145738571Y-96740714D01*
X145667143Y-96597856D01*
X145595714Y-96526428D01*
X145452857Y-96454999D01*
X145024286Y-96454999D01*
X144881429Y-96526428D01*
X144810000Y-96597856D01*
X144738571Y-96740714D01*
X144738571Y-97026428D01*
X144810000Y-97169285D01*
X145738571Y-97812142D02*
X144238571Y-97812142D01*
X145167143Y-97954999D02*
X145738571Y-98383570D01*
X144738571Y-98383570D02*
X145310000Y-97812142D01*
X146638571Y-84669286D02*
X146638571Y-85597857D01*
X147210000Y-85097857D01*
X147210000Y-85312143D01*
X147281429Y-85455000D01*
X147352857Y-85526429D01*
X147495714Y-85597857D01*
X147852857Y-85597857D01*
X147995714Y-85526429D01*
X148067143Y-85455000D01*
X148138571Y-85312143D01*
X148138571Y-84883571D01*
X148067143Y-84740714D01*
X147995714Y-84669286D01*
X146638571Y-86526428D02*
X146638571Y-86669285D01*
X146710000Y-86812142D01*
X146781429Y-86883571D01*
X146924286Y-86955000D01*
X147210000Y-87026428D01*
X147567143Y-87026428D01*
X147852857Y-86955000D01*
X147995714Y-86883571D01*
X148067143Y-86812142D01*
X148138571Y-86669285D01*
X148138571Y-86526428D01*
X148067143Y-86383571D01*
X147995714Y-86312142D01*
X147852857Y-86240714D01*
X147567143Y-86169285D01*
X147210000Y-86169285D01*
X146924286Y-86240714D01*
X146781429Y-86312142D01*
X146710000Y-86383571D01*
X146638571Y-86526428D01*
X146638571Y-87526428D02*
X146638571Y-88526428D01*
X148138571Y-87883571D01*
X147995714Y-89097856D02*
X148067143Y-89169284D01*
X148138571Y-89097856D01*
X148067143Y-89026427D01*
X147995714Y-89097856D01*
X148138571Y-89097856D01*
X146781429Y-89740713D02*
X146710000Y-89812142D01*
X146638571Y-89954999D01*
X146638571Y-90312142D01*
X146710000Y-90454999D01*
X146781429Y-90526428D01*
X146924286Y-90597856D01*
X147067143Y-90597856D01*
X147281429Y-90526428D01*
X148138571Y-89669285D01*
X148138571Y-90597856D01*
X148138571Y-92383570D02*
X146638571Y-92383570D01*
X147567143Y-92526427D02*
X148138571Y-92954998D01*
X147138571Y-92954998D02*
X147710000Y-92383570D01*
X148138571Y-93597856D02*
X146638571Y-93597856D01*
X147352857Y-93597856D02*
X147352857Y-94454999D01*
X148138571Y-94454999D02*
X146638571Y-94454999D01*
X147138571Y-95026428D02*
X147138571Y-95812142D01*
X148138571Y-95026428D01*
X148138571Y-95812142D01*
X146567143Y-97454999D02*
X148495714Y-96169285D01*
X148138571Y-98740714D02*
X148138571Y-97883571D01*
X148138571Y-98312143D02*
X146638571Y-98312143D01*
X146852857Y-98169286D01*
X146995714Y-98026428D01*
X147067143Y-97883571D01*
X146638571Y-100026428D02*
X146638571Y-99740714D01*
X146710000Y-99597857D01*
X146781429Y-99526428D01*
X146995714Y-99383571D01*
X147281429Y-99312142D01*
X147852857Y-99312142D01*
X147995714Y-99383571D01*
X148067143Y-99454999D01*
X148138571Y-99597857D01*
X148138571Y-99883571D01*
X148067143Y-100026428D01*
X147995714Y-100097857D01*
X147852857Y-100169285D01*
X147495714Y-100169285D01*
X147352857Y-100097857D01*
X147281429Y-100026428D01*
X147210000Y-99883571D01*
X147210000Y-99597857D01*
X147281429Y-99454999D01*
X147352857Y-99383571D01*
X147495714Y-99312142D01*
X147352857Y-101954999D02*
X147352857Y-103097856D01*
X147781429Y-103097856D02*
X147781429Y-101954999D01*
X149038571Y-84669286D02*
X149038571Y-85597857D01*
X149610000Y-85097857D01*
X149610000Y-85312143D01*
X149681429Y-85455000D01*
X149752857Y-85526429D01*
X149895714Y-85597857D01*
X150252857Y-85597857D01*
X150395714Y-85526429D01*
X150467143Y-85455000D01*
X150538571Y-85312143D01*
X150538571Y-84883571D01*
X150467143Y-84740714D01*
X150395714Y-84669286D01*
X149038571Y-86526428D02*
X149038571Y-86669285D01*
X149110000Y-86812142D01*
X149181429Y-86883571D01*
X149324286Y-86955000D01*
X149610000Y-87026428D01*
X149967143Y-87026428D01*
X150252857Y-86955000D01*
X150395714Y-86883571D01*
X150467143Y-86812142D01*
X150538571Y-86669285D01*
X150538571Y-86526428D01*
X150467143Y-86383571D01*
X150395714Y-86312142D01*
X150252857Y-86240714D01*
X149967143Y-86169285D01*
X149610000Y-86169285D01*
X149324286Y-86240714D01*
X149181429Y-86312142D01*
X149110000Y-86383571D01*
X149038571Y-86526428D01*
X149038571Y-87526428D02*
X149038571Y-88526428D01*
X150538571Y-87883571D01*
X150395714Y-89097856D02*
X150467143Y-89169284D01*
X150538571Y-89097856D01*
X150467143Y-89026427D01*
X150395714Y-89097856D01*
X150538571Y-89097856D01*
X149181429Y-89740713D02*
X149110000Y-89812142D01*
X149038571Y-89954999D01*
X149038571Y-90312142D01*
X149110000Y-90454999D01*
X149181429Y-90526428D01*
X149324286Y-90597856D01*
X149467143Y-90597856D01*
X149681429Y-90526428D01*
X150538571Y-89669285D01*
X150538571Y-90597856D01*
X150538571Y-92383570D02*
X149038571Y-92383570D01*
X149967143Y-92526427D02*
X150538571Y-92954998D01*
X149538571Y-92954998D02*
X150110000Y-92383570D01*
X150538571Y-93597856D02*
X149038571Y-93597856D01*
X149752857Y-93597856D02*
X149752857Y-94454999D01*
X150538571Y-94454999D02*
X149038571Y-94454999D01*
X149538571Y-95026428D02*
X149538571Y-95812142D01*
X150538571Y-95026428D01*
X150538571Y-95812142D01*
X148967143Y-97454999D02*
X150895714Y-96169285D01*
X149038571Y-98597857D02*
X149038571Y-98312143D01*
X149110000Y-98169286D01*
X149181429Y-98097857D01*
X149395714Y-97955000D01*
X149681429Y-97883571D01*
X150252857Y-97883571D01*
X150395714Y-97955000D01*
X150467143Y-98026428D01*
X150538571Y-98169286D01*
X150538571Y-98455000D01*
X150467143Y-98597857D01*
X150395714Y-98669286D01*
X150252857Y-98740714D01*
X149895714Y-98740714D01*
X149752857Y-98669286D01*
X149681429Y-98597857D01*
X149610000Y-98455000D01*
X149610000Y-98169286D01*
X149681429Y-98026428D01*
X149752857Y-97955000D01*
X149895714Y-97883571D01*
X149538571Y-100026428D02*
X150538571Y-100026428D01*
X148967143Y-99669285D02*
X150038571Y-99312142D01*
X150038571Y-100240714D01*
X149752857Y-101954999D02*
X149752857Y-103097856D01*
X150181429Y-103097856D02*
X150181429Y-101954999D01*
X152938571Y-85597857D02*
X152938571Y-84740714D01*
X152938571Y-85169286D02*
X151438571Y-85169286D01*
X151652857Y-85026429D01*
X151795714Y-84883571D01*
X151867143Y-84740714D01*
X151438571Y-86955000D02*
X151438571Y-86240714D01*
X152152857Y-86169285D01*
X152081429Y-86240714D01*
X152010000Y-86383571D01*
X152010000Y-86740714D01*
X152081429Y-86883571D01*
X152152857Y-86955000D01*
X152295714Y-87026428D01*
X152652857Y-87026428D01*
X152795714Y-86955000D01*
X152867143Y-86883571D01*
X152938571Y-86740714D01*
X152938571Y-86383571D01*
X152867143Y-86240714D01*
X152795714Y-86169285D01*
X151438571Y-88312142D02*
X151438571Y-88026428D01*
X151510000Y-87883571D01*
X151581429Y-87812142D01*
X151795714Y-87669285D01*
X152081429Y-87597856D01*
X152652857Y-87597856D01*
X152795714Y-87669285D01*
X152867143Y-87740713D01*
X152938571Y-87883571D01*
X152938571Y-88169285D01*
X152867143Y-88312142D01*
X152795714Y-88383571D01*
X152652857Y-88454999D01*
X152295714Y-88454999D01*
X152152857Y-88383571D01*
X152081429Y-88312142D01*
X152010000Y-88169285D01*
X152010000Y-87883571D01*
X152081429Y-87740713D01*
X152152857Y-87669285D01*
X152295714Y-87597856D01*
X152795714Y-89097856D02*
X152867143Y-89169284D01*
X152938571Y-89097856D01*
X152867143Y-89026427D01*
X152795714Y-89097856D01*
X152938571Y-89097856D01*
X151438571Y-90454999D02*
X151438571Y-90169285D01*
X151510000Y-90026428D01*
X151581429Y-89954999D01*
X151795714Y-89812142D01*
X152081429Y-89740713D01*
X152652857Y-89740713D01*
X152795714Y-89812142D01*
X152867143Y-89883570D01*
X152938571Y-90026428D01*
X152938571Y-90312142D01*
X152867143Y-90454999D01*
X152795714Y-90526428D01*
X152652857Y-90597856D01*
X152295714Y-90597856D01*
X152152857Y-90526428D01*
X152081429Y-90454999D01*
X152010000Y-90312142D01*
X152010000Y-90026428D01*
X152081429Y-89883570D01*
X152152857Y-89812142D01*
X152295714Y-89740713D01*
X152938571Y-92383570D02*
X151438571Y-92383570D01*
X152367143Y-92526427D02*
X152938571Y-92954998D01*
X151938571Y-92954998D02*
X152510000Y-92383570D01*
X152938571Y-93597856D02*
X151438571Y-93597856D01*
X152152857Y-93597856D02*
X152152857Y-94454999D01*
X152938571Y-94454999D02*
X151438571Y-94454999D01*
X151938571Y-95026428D02*
X151938571Y-95812142D01*
X152938571Y-95026428D01*
X152938571Y-95812142D01*
X151367143Y-97454999D02*
X153295714Y-96169285D01*
X152938571Y-98740714D02*
X152938571Y-97883571D01*
X152938571Y-98312143D02*
X151438571Y-98312143D01*
X151652857Y-98169286D01*
X151795714Y-98026428D01*
X151867143Y-97883571D01*
X151438571Y-100026428D02*
X151438571Y-99740714D01*
X151510000Y-99597857D01*
X151581429Y-99526428D01*
X151795714Y-99383571D01*
X152081429Y-99312142D01*
X152652857Y-99312142D01*
X152795714Y-99383571D01*
X152867143Y-99454999D01*
X152938571Y-99597857D01*
X152938571Y-99883571D01*
X152867143Y-100026428D01*
X152795714Y-100097857D01*
X152652857Y-100169285D01*
X152295714Y-100169285D01*
X152152857Y-100097857D01*
X152081429Y-100026428D01*
X152010000Y-99883571D01*
X152010000Y-99597857D01*
X152081429Y-99454999D01*
X152152857Y-99383571D01*
X152295714Y-99312142D01*
X152152857Y-101954999D02*
X152152857Y-103097856D01*
X152581429Y-103097856D02*
X152581429Y-101954999D01*
X155338571Y-85597857D02*
X155338571Y-84740714D01*
X155338571Y-85169286D02*
X153838571Y-85169286D01*
X154052857Y-85026429D01*
X154195714Y-84883571D01*
X154267143Y-84740714D01*
X153838571Y-86955000D02*
X153838571Y-86240714D01*
X154552857Y-86169285D01*
X154481429Y-86240714D01*
X154410000Y-86383571D01*
X154410000Y-86740714D01*
X154481429Y-86883571D01*
X154552857Y-86955000D01*
X154695714Y-87026428D01*
X155052857Y-87026428D01*
X155195714Y-86955000D01*
X155267143Y-86883571D01*
X155338571Y-86740714D01*
X155338571Y-86383571D01*
X155267143Y-86240714D01*
X155195714Y-86169285D01*
X153838571Y-88312142D02*
X153838571Y-88026428D01*
X153910000Y-87883571D01*
X153981429Y-87812142D01*
X154195714Y-87669285D01*
X154481429Y-87597856D01*
X155052857Y-87597856D01*
X155195714Y-87669285D01*
X155267143Y-87740713D01*
X155338571Y-87883571D01*
X155338571Y-88169285D01*
X155267143Y-88312142D01*
X155195714Y-88383571D01*
X155052857Y-88454999D01*
X154695714Y-88454999D01*
X154552857Y-88383571D01*
X154481429Y-88312142D01*
X154410000Y-88169285D01*
X154410000Y-87883571D01*
X154481429Y-87740713D01*
X154552857Y-87669285D01*
X154695714Y-87597856D01*
X155195714Y-89097856D02*
X155267143Y-89169284D01*
X155338571Y-89097856D01*
X155267143Y-89026427D01*
X155195714Y-89097856D01*
X155338571Y-89097856D01*
X153838571Y-90454999D02*
X153838571Y-90169285D01*
X153910000Y-90026428D01*
X153981429Y-89954999D01*
X154195714Y-89812142D01*
X154481429Y-89740713D01*
X155052857Y-89740713D01*
X155195714Y-89812142D01*
X155267143Y-89883570D01*
X155338571Y-90026428D01*
X155338571Y-90312142D01*
X155267143Y-90454999D01*
X155195714Y-90526428D01*
X155052857Y-90597856D01*
X154695714Y-90597856D01*
X154552857Y-90526428D01*
X154481429Y-90454999D01*
X154410000Y-90312142D01*
X154410000Y-90026428D01*
X154481429Y-89883570D01*
X154552857Y-89812142D01*
X154695714Y-89740713D01*
X155338571Y-92383570D02*
X153838571Y-92383570D01*
X154767143Y-92526427D02*
X155338571Y-92954998D01*
X154338571Y-92954998D02*
X154910000Y-92383570D01*
X155338571Y-93597856D02*
X153838571Y-93597856D01*
X154552857Y-93597856D02*
X154552857Y-94454999D01*
X155338571Y-94454999D02*
X153838571Y-94454999D01*
X154338571Y-95026428D02*
X154338571Y-95812142D01*
X155338571Y-95026428D01*
X155338571Y-95812142D01*
X153767143Y-97454999D02*
X155695714Y-96169285D01*
X153838571Y-98597857D02*
X153838571Y-98312143D01*
X153910000Y-98169286D01*
X153981429Y-98097857D01*
X154195714Y-97955000D01*
X154481429Y-97883571D01*
X155052857Y-97883571D01*
X155195714Y-97955000D01*
X155267143Y-98026428D01*
X155338571Y-98169286D01*
X155338571Y-98455000D01*
X155267143Y-98597857D01*
X155195714Y-98669286D01*
X155052857Y-98740714D01*
X154695714Y-98740714D01*
X154552857Y-98669286D01*
X154481429Y-98597857D01*
X154410000Y-98455000D01*
X154410000Y-98169286D01*
X154481429Y-98026428D01*
X154552857Y-97955000D01*
X154695714Y-97883571D01*
X154338571Y-100026428D02*
X155338571Y-100026428D01*
X153767143Y-99669285D02*
X154838571Y-99312142D01*
X154838571Y-100240714D01*
X154552857Y-101954999D02*
X154552857Y-103097856D01*
X154981429Y-103097856D02*
X154981429Y-101954999D01*
D12*
X194706119Y-102658333D02*
X195431833Y-102658333D01*
X195576976Y-102609953D01*
X195673738Y-102513191D01*
X195722119Y-102368048D01*
X195722119Y-102271286D01*
X195722119Y-103142143D02*
X194706119Y-103142143D01*
X194706119Y-103529190D01*
X194754500Y-103625952D01*
X194802881Y-103674333D01*
X194899643Y-103722714D01*
X195044786Y-103722714D01*
X195141548Y-103674333D01*
X195189929Y-103625952D01*
X195238310Y-103529190D01*
X195238310Y-103142143D01*
X194802881Y-104109762D02*
X194754500Y-104158143D01*
X194706119Y-104254905D01*
X194706119Y-104496809D01*
X194754500Y-104593571D01*
X194802881Y-104641952D01*
X194899643Y-104690333D01*
X194996405Y-104690333D01*
X195141548Y-104641952D01*
X195722119Y-104061381D01*
X195722119Y-104690333D01*
X194706119Y-92498333D02*
X195431833Y-92498333D01*
X195576976Y-92449953D01*
X195673738Y-92353191D01*
X195722119Y-92208048D01*
X195722119Y-92111286D01*
X195722119Y-92982143D02*
X194706119Y-92982143D01*
X194706119Y-93369190D01*
X194754500Y-93465952D01*
X194802881Y-93514333D01*
X194899643Y-93562714D01*
X195044786Y-93562714D01*
X195141548Y-93514333D01*
X195189929Y-93465952D01*
X195238310Y-93369190D01*
X195238310Y-92982143D01*
X194802881Y-93949762D02*
X194754500Y-93998143D01*
X194706119Y-94094905D01*
X194706119Y-94336809D01*
X194754500Y-94433571D01*
X194802881Y-94481952D01*
X194899643Y-94530333D01*
X194996405Y-94530333D01*
X195141548Y-94481952D01*
X195722119Y-93901381D01*
X195722119Y-94530333D01*
X194706119Y-81703333D02*
X195431833Y-81703333D01*
X195576976Y-81654953D01*
X195673738Y-81558191D01*
X195722119Y-81413048D01*
X195722119Y-81316286D01*
X195722119Y-82187143D02*
X194706119Y-82187143D01*
X194706119Y-82574190D01*
X194754500Y-82670952D01*
X194802881Y-82719333D01*
X194899643Y-82767714D01*
X195044786Y-82767714D01*
X195141548Y-82719333D01*
X195189929Y-82670952D01*
X195238310Y-82574190D01*
X195238310Y-82187143D01*
X194802881Y-83154762D02*
X194754500Y-83203143D01*
X194706119Y-83299905D01*
X194706119Y-83541809D01*
X194754500Y-83638571D01*
X194802881Y-83686952D01*
X194899643Y-83735333D01*
X194996405Y-83735333D01*
X195141548Y-83686952D01*
X195722119Y-83106381D01*
X195722119Y-83735333D01*
X190261119Y-103928333D02*
X190986833Y-103928333D01*
X191131976Y-103879953D01*
X191228738Y-103783191D01*
X191277119Y-103638048D01*
X191277119Y-103541286D01*
X191277119Y-104412143D02*
X190261119Y-104412143D01*
X190261119Y-104799190D01*
X190309500Y-104895952D01*
X190357881Y-104944333D01*
X190454643Y-104992714D01*
X190599786Y-104992714D01*
X190696548Y-104944333D01*
X190744929Y-104895952D01*
X190793310Y-104799190D01*
X190793310Y-104412143D01*
X191277119Y-105960333D02*
X191277119Y-105379762D01*
X191277119Y-105670048D02*
X190261119Y-105670048D01*
X190406262Y-105573286D01*
X190503024Y-105476524D01*
X190551405Y-105379762D01*
X190261119Y-93768333D02*
X190986833Y-93768333D01*
X191131976Y-93719953D01*
X191228738Y-93623191D01*
X191277119Y-93478048D01*
X191277119Y-93381286D01*
X191277119Y-94252143D02*
X190261119Y-94252143D01*
X190261119Y-94639190D01*
X190309500Y-94735952D01*
X190357881Y-94784333D01*
X190454643Y-94832714D01*
X190599786Y-94832714D01*
X190696548Y-94784333D01*
X190744929Y-94735952D01*
X190793310Y-94639190D01*
X190793310Y-94252143D01*
X191277119Y-95800333D02*
X191277119Y-95219762D01*
X191277119Y-95510048D02*
X190261119Y-95510048D01*
X190406262Y-95413286D01*
X190503024Y-95316524D01*
X190551405Y-95219762D01*
X190261119Y-83925833D02*
X190986833Y-83925833D01*
X191131976Y-83877453D01*
X191228738Y-83780691D01*
X191277119Y-83635548D01*
X191277119Y-83538786D01*
X191277119Y-84409643D02*
X190261119Y-84409643D01*
X190261119Y-84796690D01*
X190309500Y-84893452D01*
X190357881Y-84941833D01*
X190454643Y-84990214D01*
X190599786Y-84990214D01*
X190696548Y-84941833D01*
X190744929Y-84893452D01*
X190793310Y-84796690D01*
X190793310Y-84409643D01*
X191277119Y-85957833D02*
X191277119Y-85377262D01*
X191277119Y-85667548D02*
X190261119Y-85667548D01*
X190406262Y-85570786D01*
X190503024Y-85474024D01*
X190551405Y-85377262D01*
D13*
X187916429Y-100104287D02*
X187845000Y-100175716D01*
X187773571Y-100318573D01*
X187773571Y-100675716D01*
X187845000Y-100818573D01*
X187916429Y-100890002D01*
X188059286Y-100961430D01*
X188202143Y-100961430D01*
X188416429Y-100890002D01*
X189273571Y-100032859D01*
X189273571Y-100961430D01*
X188416429Y-101818573D02*
X188345000Y-101675715D01*
X188273571Y-101604287D01*
X188130714Y-101532858D01*
X188059286Y-101532858D01*
X187916429Y-101604287D01*
X187845000Y-101675715D01*
X187773571Y-101818573D01*
X187773571Y-102104287D01*
X187845000Y-102247144D01*
X187916429Y-102318573D01*
X188059286Y-102390001D01*
X188130714Y-102390001D01*
X188273571Y-102318573D01*
X188345000Y-102247144D01*
X188416429Y-102104287D01*
X188416429Y-101818573D01*
X188487857Y-101675715D01*
X188559286Y-101604287D01*
X188702143Y-101532858D01*
X188987857Y-101532858D01*
X189130714Y-101604287D01*
X189202143Y-101675715D01*
X189273571Y-101818573D01*
X189273571Y-102104287D01*
X189202143Y-102247144D01*
X189130714Y-102318573D01*
X188987857Y-102390001D01*
X188702143Y-102390001D01*
X188559286Y-102318573D01*
X188487857Y-102247144D01*
X188416429Y-102104287D01*
X189130714Y-103890001D02*
X189202143Y-103818572D01*
X189273571Y-103604286D01*
X189273571Y-103461429D01*
X189202143Y-103247144D01*
X189059286Y-103104286D01*
X188916429Y-103032858D01*
X188630714Y-102961429D01*
X188416429Y-102961429D01*
X188130714Y-103032858D01*
X187987857Y-103104286D01*
X187845000Y-103247144D01*
X187773571Y-103461429D01*
X187773571Y-103604286D01*
X187845000Y-103818572D01*
X187916429Y-103890001D01*
X187916429Y-104461429D02*
X187845000Y-104532858D01*
X187773571Y-104675715D01*
X187773571Y-105032858D01*
X187845000Y-105175715D01*
X187916429Y-105247144D01*
X188059286Y-105318572D01*
X188202143Y-105318572D01*
X188416429Y-105247144D01*
X189273571Y-104390001D01*
X189273571Y-105318572D01*
X187773571Y-106675715D02*
X187773571Y-105961429D01*
X188487857Y-105890000D01*
X188416429Y-105961429D01*
X188345000Y-106104286D01*
X188345000Y-106461429D01*
X188416429Y-106604286D01*
X188487857Y-106675715D01*
X188630714Y-106747143D01*
X188987857Y-106747143D01*
X189130714Y-106675715D01*
X189202143Y-106604286D01*
X189273571Y-106461429D01*
X189273571Y-106104286D01*
X189202143Y-105961429D01*
X189130714Y-105890000D01*
X187773571Y-108032857D02*
X187773571Y-107747143D01*
X187845000Y-107604286D01*
X187916429Y-107532857D01*
X188130714Y-107390000D01*
X188416429Y-107318571D01*
X188987857Y-107318571D01*
X189130714Y-107390000D01*
X189202143Y-107461428D01*
X189273571Y-107604286D01*
X189273571Y-107890000D01*
X189202143Y-108032857D01*
X189130714Y-108104286D01*
X188987857Y-108175714D01*
X188630714Y-108175714D01*
X188487857Y-108104286D01*
X188416429Y-108032857D01*
X188345000Y-107890000D01*
X188345000Y-107604286D01*
X188416429Y-107461428D01*
X188487857Y-107390000D01*
X188630714Y-107318571D01*
X187916429Y-89944287D02*
X187845000Y-90015716D01*
X187773571Y-90158573D01*
X187773571Y-90515716D01*
X187845000Y-90658573D01*
X187916429Y-90730002D01*
X188059286Y-90801430D01*
X188202143Y-90801430D01*
X188416429Y-90730002D01*
X189273571Y-89872859D01*
X189273571Y-90801430D01*
X187773571Y-91301430D02*
X187773571Y-92301430D01*
X189273571Y-91658573D01*
X189130714Y-93730001D02*
X189202143Y-93658572D01*
X189273571Y-93444286D01*
X189273571Y-93301429D01*
X189202143Y-93087144D01*
X189059286Y-92944286D01*
X188916429Y-92872858D01*
X188630714Y-92801429D01*
X188416429Y-92801429D01*
X188130714Y-92872858D01*
X187987857Y-92944286D01*
X187845000Y-93087144D01*
X187773571Y-93301429D01*
X187773571Y-93444286D01*
X187845000Y-93658572D01*
X187916429Y-93730001D01*
X187916429Y-94301429D02*
X187845000Y-94372858D01*
X187773571Y-94515715D01*
X187773571Y-94872858D01*
X187845000Y-95015715D01*
X187916429Y-95087144D01*
X188059286Y-95158572D01*
X188202143Y-95158572D01*
X188416429Y-95087144D01*
X189273571Y-94230001D01*
X189273571Y-95158572D01*
X187773571Y-96515715D02*
X187773571Y-95801429D01*
X188487857Y-95730000D01*
X188416429Y-95801429D01*
X188345000Y-95944286D01*
X188345000Y-96301429D01*
X188416429Y-96444286D01*
X188487857Y-96515715D01*
X188630714Y-96587143D01*
X188987857Y-96587143D01*
X189130714Y-96515715D01*
X189202143Y-96444286D01*
X189273571Y-96301429D01*
X189273571Y-95944286D01*
X189202143Y-95801429D01*
X189130714Y-95730000D01*
X187773571Y-97872857D02*
X187773571Y-97587143D01*
X187845000Y-97444286D01*
X187916429Y-97372857D01*
X188130714Y-97230000D01*
X188416429Y-97158571D01*
X188987857Y-97158571D01*
X189130714Y-97230000D01*
X189202143Y-97301428D01*
X189273571Y-97444286D01*
X189273571Y-97730000D01*
X189202143Y-97872857D01*
X189130714Y-97944286D01*
X188987857Y-98015714D01*
X188630714Y-98015714D01*
X188487857Y-97944286D01*
X188416429Y-97872857D01*
X188345000Y-97730000D01*
X188345000Y-97444286D01*
X188416429Y-97301428D01*
X188487857Y-97230000D01*
X188630714Y-97158571D01*
X187916429Y-79784287D02*
X187845000Y-79855716D01*
X187773571Y-79998573D01*
X187773571Y-80355716D01*
X187845000Y-80498573D01*
X187916429Y-80570002D01*
X188059286Y-80641430D01*
X188202143Y-80641430D01*
X188416429Y-80570002D01*
X189273571Y-79712859D01*
X189273571Y-80641430D01*
X187773571Y-81141430D02*
X187773571Y-82141430D01*
X189273571Y-81498573D01*
X189130714Y-83570001D02*
X189202143Y-83498572D01*
X189273571Y-83284286D01*
X189273571Y-83141429D01*
X189202143Y-82927144D01*
X189059286Y-82784286D01*
X188916429Y-82712858D01*
X188630714Y-82641429D01*
X188416429Y-82641429D01*
X188130714Y-82712858D01*
X187987857Y-82784286D01*
X187845000Y-82927144D01*
X187773571Y-83141429D01*
X187773571Y-83284286D01*
X187845000Y-83498572D01*
X187916429Y-83570001D01*
X189273571Y-84998572D02*
X189273571Y-84141429D01*
X189273571Y-84570001D02*
X187773571Y-84570001D01*
X187987857Y-84427144D01*
X188130714Y-84284286D01*
X188202143Y-84141429D01*
X187916429Y-85570000D02*
X187845000Y-85641429D01*
X187773571Y-85784286D01*
X187773571Y-86141429D01*
X187845000Y-86284286D01*
X187916429Y-86355715D01*
X188059286Y-86427143D01*
X188202143Y-86427143D01*
X188416429Y-86355715D01*
X189273571Y-85498572D01*
X189273571Y-86427143D01*
X188416429Y-87284286D02*
X188345000Y-87141428D01*
X188273571Y-87070000D01*
X188130714Y-86998571D01*
X188059286Y-86998571D01*
X187916429Y-87070000D01*
X187845000Y-87141428D01*
X187773571Y-87284286D01*
X187773571Y-87570000D01*
X187845000Y-87712857D01*
X187916429Y-87784286D01*
X188059286Y-87855714D01*
X188130714Y-87855714D01*
X188273571Y-87784286D01*
X188345000Y-87712857D01*
X188416429Y-87570000D01*
X188416429Y-87284286D01*
X188487857Y-87141428D01*
X188559286Y-87070000D01*
X188702143Y-86998571D01*
X188987857Y-86998571D01*
X189130714Y-87070000D01*
X189202143Y-87141428D01*
X189273571Y-87284286D01*
X189273571Y-87570000D01*
X189202143Y-87712857D01*
X189130714Y-87784286D01*
X188987857Y-87855714D01*
X188702143Y-87855714D01*
X188559286Y-87784286D01*
X188487857Y-87712857D01*
X188416429Y-87570000D01*
X186733571Y-89774285D02*
X186019286Y-89274285D01*
X186733571Y-88917142D02*
X185233571Y-88917142D01*
X185233571Y-89488570D01*
X185305000Y-89631428D01*
X185376429Y-89702856D01*
X185519286Y-89774285D01*
X185733571Y-89774285D01*
X185876429Y-89702856D01*
X185947857Y-89631428D01*
X186019286Y-89488570D01*
X186019286Y-88917142D01*
X185233571Y-90702856D02*
X185233571Y-90988570D01*
X185305000Y-91131428D01*
X185447857Y-91274285D01*
X185733571Y-91345713D01*
X186233571Y-91345713D01*
X186519286Y-91274285D01*
X186662143Y-91131428D01*
X186733571Y-90988570D01*
X186733571Y-90702856D01*
X186662143Y-90559999D01*
X186519286Y-90417142D01*
X186233571Y-90345713D01*
X185733571Y-90345713D01*
X185447857Y-90417142D01*
X185305000Y-90559999D01*
X185233571Y-90702856D01*
X186733571Y-91988571D02*
X185233571Y-91988571D01*
X186305000Y-92488571D01*
X185233571Y-92988571D01*
X186733571Y-92988571D01*
X186590714Y-95702857D02*
X186662143Y-95631428D01*
X186733571Y-95417142D01*
X186733571Y-95274285D01*
X186662143Y-95060000D01*
X186519286Y-94917142D01*
X186376429Y-94845714D01*
X186090714Y-94774285D01*
X185876429Y-94774285D01*
X185590714Y-94845714D01*
X185447857Y-94917142D01*
X185305000Y-95060000D01*
X185233571Y-95274285D01*
X185233571Y-95417142D01*
X185305000Y-95631428D01*
X185376429Y-95702857D01*
X186733571Y-96560000D02*
X186662143Y-96417142D01*
X186590714Y-96345714D01*
X186447857Y-96274285D01*
X186019286Y-96274285D01*
X185876429Y-96345714D01*
X185805000Y-96417142D01*
X185733571Y-96560000D01*
X185733571Y-96774285D01*
X185805000Y-96917142D01*
X185876429Y-96988571D01*
X186019286Y-97060000D01*
X186447857Y-97060000D01*
X186590714Y-96988571D01*
X186662143Y-96917142D01*
X186733571Y-96774285D01*
X186733571Y-96560000D01*
X185733571Y-97702857D02*
X186733571Y-97702857D01*
X185876429Y-97702857D02*
X185805000Y-97774285D01*
X185733571Y-97917143D01*
X185733571Y-98131428D01*
X185805000Y-98274285D01*
X185947857Y-98345714D01*
X186733571Y-98345714D01*
X185733571Y-98845714D02*
X185733571Y-99417143D01*
X186733571Y-99060000D02*
X185447857Y-99060000D01*
X185305000Y-99131428D01*
X185233571Y-99274286D01*
X185233571Y-99417143D01*
X186733571Y-99917143D02*
X185733571Y-99917143D01*
X185233571Y-99917143D02*
X185305000Y-99845714D01*
X185376429Y-99917143D01*
X185305000Y-99988571D01*
X185233571Y-99917143D01*
X185376429Y-99917143D01*
X185733571Y-101274286D02*
X186947857Y-101274286D01*
X187090714Y-101202857D01*
X187162143Y-101131429D01*
X187233571Y-100988572D01*
X187233571Y-100774286D01*
X187162143Y-100631429D01*
X186662143Y-101274286D02*
X186733571Y-101131429D01*
X186733571Y-100845715D01*
X186662143Y-100702857D01*
X186590714Y-100631429D01*
X186447857Y-100560000D01*
X186019286Y-100560000D01*
X185876429Y-100631429D01*
X185805000Y-100702857D01*
X185733571Y-100845715D01*
X185733571Y-101131429D01*
X185805000Y-101274286D01*
X185733571Y-102631429D02*
X186733571Y-102631429D01*
X185733571Y-101988572D02*
X186519286Y-101988572D01*
X186662143Y-102060000D01*
X186733571Y-102202858D01*
X186733571Y-102417143D01*
X186662143Y-102560000D01*
X186590714Y-102631429D01*
X186733571Y-103345715D02*
X185733571Y-103345715D01*
X186019286Y-103345715D02*
X185876429Y-103417143D01*
X185805000Y-103488572D01*
X185733571Y-103631429D01*
X185733571Y-103774286D01*
X186733571Y-104917143D02*
X185947857Y-104917143D01*
X185805000Y-104845714D01*
X185733571Y-104702857D01*
X185733571Y-104417143D01*
X185805000Y-104274286D01*
X186662143Y-104917143D02*
X186733571Y-104774286D01*
X186733571Y-104417143D01*
X186662143Y-104274286D01*
X186519286Y-104202857D01*
X186376429Y-104202857D01*
X186233571Y-104274286D01*
X186162143Y-104417143D01*
X186162143Y-104774286D01*
X186090714Y-104917143D01*
X185733571Y-105417143D02*
X185733571Y-105988572D01*
X185233571Y-105631429D02*
X186519286Y-105631429D01*
X186662143Y-105702857D01*
X186733571Y-105845715D01*
X186733571Y-105988572D01*
X186733571Y-106488572D02*
X185733571Y-106488572D01*
X185233571Y-106488572D02*
X185305000Y-106417143D01*
X185376429Y-106488572D01*
X185305000Y-106560000D01*
X185233571Y-106488572D01*
X185376429Y-106488572D01*
X186733571Y-107417144D02*
X186662143Y-107274286D01*
X186590714Y-107202858D01*
X186447857Y-107131429D01*
X186019286Y-107131429D01*
X185876429Y-107202858D01*
X185805000Y-107274286D01*
X185733571Y-107417144D01*
X185733571Y-107631429D01*
X185805000Y-107774286D01*
X185876429Y-107845715D01*
X186019286Y-107917144D01*
X186447857Y-107917144D01*
X186590714Y-107845715D01*
X186662143Y-107774286D01*
X186733571Y-107631429D01*
X186733571Y-107417144D01*
X185733571Y-108560001D02*
X186733571Y-108560001D01*
X185876429Y-108560001D02*
X185805000Y-108631429D01*
X185733571Y-108774287D01*
X185733571Y-108988572D01*
X185805000Y-109131429D01*
X185947857Y-109202858D01*
X186733571Y-109202858D01*
D16*
G36*
X119425720Y-68089780D02*
X119397780Y-68140580D01*
X119324120Y-68259960D01*
X119214900Y-68425060D01*
X119082820Y-68623180D01*
X118950740Y-68821300D01*
X118841520Y-68983860D01*
X118767860Y-69098160D01*
X118739920Y-69146420D01*
X118750080Y-69171820D01*
X118795800Y-69265800D01*
X118866920Y-69402960D01*
X118907560Y-69481700D01*
X118960900Y-69606160D01*
X118973600Y-69669660D01*
X118955820Y-69679820D01*
X118859300Y-69725540D01*
X118696740Y-69796660D01*
X118478300Y-69890640D01*
X118224300Y-69999860D01*
X117952520Y-70114160D01*
X117673120Y-70231000D01*
X117406420Y-70342760D01*
X117167660Y-70439280D01*
X116972080Y-70518020D01*
X116837460Y-70568820D01*
X116779040Y-70589140D01*
X116766340Y-70584060D01*
X116705380Y-70520560D01*
X116624100Y-70411340D01*
X116431060Y-70175120D01*
X116138960Y-69941440D01*
X115808760Y-69799200D01*
X115440460Y-69750940D01*
X115100100Y-69791580D01*
X114772440Y-69926200D01*
X114477800Y-70154800D01*
X114256820Y-70431660D01*
X114119660Y-70756780D01*
X114073940Y-71120000D01*
X114114580Y-71467980D01*
X114246660Y-71803260D01*
X114470180Y-72097900D01*
X114614960Y-72222360D01*
X114912140Y-72395080D01*
X115232180Y-72491600D01*
X115313460Y-72501760D01*
X115663980Y-72489060D01*
X116001800Y-72384920D01*
X116304060Y-72199500D01*
X116550440Y-71940420D01*
X116573300Y-71909940D01*
X116662200Y-71790560D01*
X116723160Y-71709280D01*
X116773960Y-71648320D01*
X117850920Y-72095360D01*
X118021100Y-72166480D01*
X118315740Y-72288400D01*
X118569740Y-72397620D01*
X118770400Y-72481440D01*
X118905020Y-72542400D01*
X118960900Y-72567800D01*
X118963440Y-72570340D01*
X118971060Y-72610980D01*
X118940580Y-72692260D01*
X118866920Y-72842120D01*
X118816120Y-72941180D01*
X118760240Y-73055480D01*
X118739920Y-73108820D01*
X118765320Y-73152000D01*
X118836440Y-73261220D01*
X118943120Y-73421240D01*
X119072660Y-73614280D01*
X119197120Y-73797160D01*
X119308880Y-73964800D01*
X119387620Y-74089260D01*
X119420640Y-74147680D01*
X119420640Y-74157840D01*
X119390160Y-74211180D01*
X119308880Y-74307700D01*
X119171720Y-74455020D01*
X118965980Y-74660760D01*
X118935500Y-74693780D01*
X118760240Y-74863960D01*
X118615460Y-75001120D01*
X118511320Y-75095100D01*
X118465600Y-75128120D01*
X118465600Y-75128120D01*
X118407180Y-75097640D01*
X118285260Y-75021440D01*
X118112540Y-74909680D01*
X117914420Y-74772520D01*
X117396260Y-74416920D01*
X116906040Y-74612500D01*
X116756180Y-74670920D01*
X116575840Y-74747120D01*
X116446300Y-74805540D01*
X116390420Y-74833480D01*
X116370100Y-74886820D01*
X116339620Y-75021440D01*
X116298980Y-75214480D01*
X116255800Y-75445620D01*
X116215160Y-75666600D01*
X116177060Y-75864720D01*
X116149120Y-76009500D01*
X116136420Y-76073000D01*
X116126260Y-76088240D01*
X116095780Y-76103480D01*
X116027200Y-76111100D01*
X115907820Y-76116180D01*
X115717320Y-76118720D01*
X115440460Y-76118720D01*
X115409980Y-76118720D01*
X115148360Y-76116180D01*
X114937540Y-76111100D01*
X114800380Y-76103480D01*
X114747040Y-76095860D01*
X114747040Y-76093320D01*
X114731800Y-76032360D01*
X114701320Y-75892660D01*
X114663220Y-75692000D01*
X114617500Y-75455780D01*
X114614960Y-75440540D01*
X114569240Y-75204320D01*
X114528600Y-75006200D01*
X114495580Y-74866500D01*
X114477800Y-74808080D01*
X114460020Y-74795380D01*
X114368580Y-74749660D01*
X114221260Y-74681080D01*
X114043460Y-74602340D01*
X113858040Y-74526140D01*
X113690400Y-74457560D01*
X113565940Y-74414380D01*
X113510060Y-74399140D01*
X113507520Y-74401680D01*
X113451640Y-74437240D01*
X113329720Y-74518520D01*
X113159540Y-74632820D01*
X112956340Y-74769980D01*
X112941100Y-74780140D01*
X112742980Y-74917300D01*
X112572800Y-75026520D01*
X112453420Y-75100180D01*
X112397540Y-75128120D01*
X112395000Y-75128120D01*
X112334040Y-75082400D01*
X112222280Y-74980800D01*
X112069880Y-74836020D01*
X111892080Y-74660760D01*
X111838740Y-74604880D01*
X111648240Y-74409300D01*
X111523780Y-74274680D01*
X111457740Y-74190860D01*
X111442500Y-74150220D01*
X111445040Y-74150220D01*
X111480600Y-74089260D01*
X111561880Y-73962260D01*
X111678720Y-73792080D01*
X111815880Y-73588880D01*
X111826040Y-73573640D01*
X111963200Y-73375520D01*
X112074960Y-73207880D01*
X112153700Y-73091040D01*
X112184180Y-73037700D01*
X112184180Y-73030080D01*
X112161320Y-72948800D01*
X112110520Y-72806560D01*
X112041940Y-72631300D01*
X111968280Y-72445880D01*
X111897160Y-72278240D01*
X111841280Y-72151240D01*
X111805720Y-72092820D01*
X111803180Y-72090280D01*
X111732060Y-72069960D01*
X111582200Y-72034400D01*
X111376460Y-71993760D01*
X111132620Y-71945500D01*
X111091980Y-71937880D01*
X110853220Y-71894700D01*
X110657640Y-71856600D01*
X110520480Y-71828660D01*
X110464600Y-71813420D01*
X110456980Y-71780400D01*
X110449360Y-71663560D01*
X110444280Y-71485760D01*
X110441740Y-71269860D01*
X110444280Y-71043800D01*
X110449360Y-70822820D01*
X110454440Y-70634860D01*
X110464600Y-70500240D01*
X110474760Y-70444360D01*
X110479840Y-70441820D01*
X110553500Y-70421500D01*
X110703360Y-70388480D01*
X110909100Y-70345300D01*
X111155480Y-70299580D01*
X111198660Y-70289420D01*
X111434880Y-70246240D01*
X111630460Y-70205600D01*
X111765080Y-70177660D01*
X111818420Y-70162420D01*
X111828580Y-70139560D01*
X111871760Y-70043040D01*
X111937800Y-69883020D01*
X112016540Y-69684900D01*
X112201960Y-69227700D01*
X111818420Y-68666360D01*
X111782860Y-68615560D01*
X111645700Y-68412360D01*
X111536480Y-68247260D01*
X111460280Y-68132960D01*
X111434880Y-68084700D01*
X111434880Y-68079620D01*
X111485680Y-68023740D01*
X111589820Y-67914520D01*
X111737140Y-67762120D01*
X111912400Y-67584320D01*
X112044480Y-67454780D01*
X112201960Y-67299840D01*
X112306100Y-67200780D01*
X112374680Y-67147440D01*
X112415320Y-67129660D01*
X112443260Y-67134740D01*
X112501680Y-67170300D01*
X112623600Y-67251580D01*
X112793780Y-67368420D01*
X112991900Y-67505580D01*
X113159540Y-67617340D01*
X113347500Y-67739260D01*
X113482120Y-67818000D01*
X113548160Y-67845940D01*
X113573560Y-67838320D01*
X113685320Y-67800220D01*
X113850420Y-67731640D01*
X114048540Y-67647820D01*
X114493040Y-67452240D01*
X114548920Y-67162680D01*
X114581940Y-66984880D01*
X114630200Y-66738500D01*
X114675920Y-66502280D01*
X114747040Y-66133980D01*
X116100860Y-66121280D01*
X116126260Y-66177160D01*
X116141500Y-66233040D01*
X116171980Y-66370200D01*
X116210080Y-66563240D01*
X116253260Y-66794380D01*
X116288820Y-66989960D01*
X116326920Y-67188080D01*
X116354860Y-67330320D01*
X116367560Y-67391280D01*
X116390420Y-67409060D01*
X116484400Y-67457320D01*
X116636800Y-67528440D01*
X116819680Y-67607180D01*
X117010180Y-67685920D01*
X117185440Y-67754500D01*
X117317520Y-67802760D01*
X117386100Y-67823080D01*
X117439440Y-67795140D01*
X117556280Y-67721480D01*
X117721380Y-67612260D01*
X117916960Y-67477640D01*
X118112540Y-67343020D01*
X118280180Y-67228720D01*
X118402100Y-67149980D01*
X118457980Y-67116960D01*
X118493540Y-67134740D01*
X118590060Y-67213480D01*
X118742460Y-67360800D01*
X118960900Y-67581780D01*
X118996460Y-67617340D01*
X119164100Y-67792600D01*
X119301260Y-67939920D01*
X119392700Y-68044060D01*
X119425720Y-68089780D01*
X119425720Y-68089780D01*
G37*
X119425720Y-68089780D02*
X119397780Y-68140580D01*
X119324120Y-68259960D01*
X119214900Y-68425060D01*
X119082820Y-68623180D01*
X118950740Y-68821300D01*
X118841520Y-68983860D01*
X118767860Y-69098160D01*
X118739920Y-69146420D01*
X118750080Y-69171820D01*
X118795800Y-69265800D01*
X118866920Y-69402960D01*
X118907560Y-69481700D01*
X118960900Y-69606160D01*
X118973600Y-69669660D01*
X118955820Y-69679820D01*
X118859300Y-69725540D01*
X118696740Y-69796660D01*
X118478300Y-69890640D01*
X118224300Y-69999860D01*
X117952520Y-70114160D01*
X117673120Y-70231000D01*
X117406420Y-70342760D01*
X117167660Y-70439280D01*
X116972080Y-70518020D01*
X116837460Y-70568820D01*
X116779040Y-70589140D01*
X116766340Y-70584060D01*
X116705380Y-70520560D01*
X116624100Y-70411340D01*
X116431060Y-70175120D01*
X116138960Y-69941440D01*
X115808760Y-69799200D01*
X115440460Y-69750940D01*
X115100100Y-69791580D01*
X114772440Y-69926200D01*
X114477800Y-70154800D01*
X114256820Y-70431660D01*
X114119660Y-70756780D01*
X114073940Y-71120000D01*
X114114580Y-71467980D01*
X114246660Y-71803260D01*
X114470180Y-72097900D01*
X114614960Y-72222360D01*
X114912140Y-72395080D01*
X115232180Y-72491600D01*
X115313460Y-72501760D01*
X115663980Y-72489060D01*
X116001800Y-72384920D01*
X116304060Y-72199500D01*
X116550440Y-71940420D01*
X116573300Y-71909940D01*
X116662200Y-71790560D01*
X116723160Y-71709280D01*
X116773960Y-71648320D01*
X117850920Y-72095360D01*
X118021100Y-72166480D01*
X118315740Y-72288400D01*
X118569740Y-72397620D01*
X118770400Y-72481440D01*
X118905020Y-72542400D01*
X118960900Y-72567800D01*
X118963440Y-72570340D01*
X118971060Y-72610980D01*
X118940580Y-72692260D01*
X118866920Y-72842120D01*
X118816120Y-72941180D01*
X118760240Y-73055480D01*
X118739920Y-73108820D01*
X118765320Y-73152000D01*
X118836440Y-73261220D01*
X118943120Y-73421240D01*
X119072660Y-73614280D01*
X119197120Y-73797160D01*
X119308880Y-73964800D01*
X119387620Y-74089260D01*
X119420640Y-74147680D01*
X119420640Y-74157840D01*
X119390160Y-74211180D01*
X119308880Y-74307700D01*
X119171720Y-74455020D01*
X118965980Y-74660760D01*
X118935500Y-74693780D01*
X118760240Y-74863960D01*
X118615460Y-75001120D01*
X118511320Y-75095100D01*
X118465600Y-75128120D01*
X118465600Y-75128120D01*
X118407180Y-75097640D01*
X118285260Y-75021440D01*
X118112540Y-74909680D01*
X117914420Y-74772520D01*
X117396260Y-74416920D01*
X116906040Y-74612500D01*
X116756180Y-74670920D01*
X116575840Y-74747120D01*
X116446300Y-74805540D01*
X116390420Y-74833480D01*
X116370100Y-74886820D01*
X116339620Y-75021440D01*
X116298980Y-75214480D01*
X116255800Y-75445620D01*
X116215160Y-75666600D01*
X116177060Y-75864720D01*
X116149120Y-76009500D01*
X116136420Y-76073000D01*
X116126260Y-76088240D01*
X116095780Y-76103480D01*
X116027200Y-76111100D01*
X115907820Y-76116180D01*
X115717320Y-76118720D01*
X115440460Y-76118720D01*
X115409980Y-76118720D01*
X115148360Y-76116180D01*
X114937540Y-76111100D01*
X114800380Y-76103480D01*
X114747040Y-76095860D01*
X114747040Y-76093320D01*
X114731800Y-76032360D01*
X114701320Y-75892660D01*
X114663220Y-75692000D01*
X114617500Y-75455780D01*
X114614960Y-75440540D01*
X114569240Y-75204320D01*
X114528600Y-75006200D01*
X114495580Y-74866500D01*
X114477800Y-74808080D01*
X114460020Y-74795380D01*
X114368580Y-74749660D01*
X114221260Y-74681080D01*
X114043460Y-74602340D01*
X113858040Y-74526140D01*
X113690400Y-74457560D01*
X113565940Y-74414380D01*
X113510060Y-74399140D01*
X113507520Y-74401680D01*
X113451640Y-74437240D01*
X113329720Y-74518520D01*
X113159540Y-74632820D01*
X112956340Y-74769980D01*
X112941100Y-74780140D01*
X112742980Y-74917300D01*
X112572800Y-75026520D01*
X112453420Y-75100180D01*
X112397540Y-75128120D01*
X112395000Y-75128120D01*
X112334040Y-75082400D01*
X112222280Y-74980800D01*
X112069880Y-74836020D01*
X111892080Y-74660760D01*
X111838740Y-74604880D01*
X111648240Y-74409300D01*
X111523780Y-74274680D01*
X111457740Y-74190860D01*
X111442500Y-74150220D01*
X111445040Y-74150220D01*
X111480600Y-74089260D01*
X111561880Y-73962260D01*
X111678720Y-73792080D01*
X111815880Y-73588880D01*
X111826040Y-73573640D01*
X111963200Y-73375520D01*
X112074960Y-73207880D01*
X112153700Y-73091040D01*
X112184180Y-73037700D01*
X112184180Y-73030080D01*
X112161320Y-72948800D01*
X112110520Y-72806560D01*
X112041940Y-72631300D01*
X111968280Y-72445880D01*
X111897160Y-72278240D01*
X111841280Y-72151240D01*
X111805720Y-72092820D01*
X111803180Y-72090280D01*
X111732060Y-72069960D01*
X111582200Y-72034400D01*
X111376460Y-71993760D01*
X111132620Y-71945500D01*
X111091980Y-71937880D01*
X110853220Y-71894700D01*
X110657640Y-71856600D01*
X110520480Y-71828660D01*
X110464600Y-71813420D01*
X110456980Y-71780400D01*
X110449360Y-71663560D01*
X110444280Y-71485760D01*
X110441740Y-71269860D01*
X110444280Y-71043800D01*
X110449360Y-70822820D01*
X110454440Y-70634860D01*
X110464600Y-70500240D01*
X110474760Y-70444360D01*
X110479840Y-70441820D01*
X110553500Y-70421500D01*
X110703360Y-70388480D01*
X110909100Y-70345300D01*
X111155480Y-70299580D01*
X111198660Y-70289420D01*
X111434880Y-70246240D01*
X111630460Y-70205600D01*
X111765080Y-70177660D01*
X111818420Y-70162420D01*
X111828580Y-70139560D01*
X111871760Y-70043040D01*
X111937800Y-69883020D01*
X112016540Y-69684900D01*
X112201960Y-69227700D01*
X111818420Y-68666360D01*
X111782860Y-68615560D01*
X111645700Y-68412360D01*
X111536480Y-68247260D01*
X111460280Y-68132960D01*
X111434880Y-68084700D01*
X111434880Y-68079620D01*
X111485680Y-68023740D01*
X111589820Y-67914520D01*
X111737140Y-67762120D01*
X111912400Y-67584320D01*
X112044480Y-67454780D01*
X112201960Y-67299840D01*
X112306100Y-67200780D01*
X112374680Y-67147440D01*
X112415320Y-67129660D01*
X112443260Y-67134740D01*
X112501680Y-67170300D01*
X112623600Y-67251580D01*
X112793780Y-67368420D01*
X112991900Y-67505580D01*
X113159540Y-67617340D01*
X113347500Y-67739260D01*
X113482120Y-67818000D01*
X113548160Y-67845940D01*
X113573560Y-67838320D01*
X113685320Y-67800220D01*
X113850420Y-67731640D01*
X114048540Y-67647820D01*
X114493040Y-67452240D01*
X114548920Y-67162680D01*
X114581940Y-66984880D01*
X114630200Y-66738500D01*
X114675920Y-66502280D01*
X114747040Y-66133980D01*
X116100860Y-66121280D01*
X116126260Y-66177160D01*
X116141500Y-66233040D01*
X116171980Y-66370200D01*
X116210080Y-66563240D01*
X116253260Y-66794380D01*
X116288820Y-66989960D01*
X116326920Y-67188080D01*
X116354860Y-67330320D01*
X116367560Y-67391280D01*
X116390420Y-67409060D01*
X116484400Y-67457320D01*
X116636800Y-67528440D01*
X116819680Y-67607180D01*
X117010180Y-67685920D01*
X117185440Y-67754500D01*
X117317520Y-67802760D01*
X117386100Y-67823080D01*
X117439440Y-67795140D01*
X117556280Y-67721480D01*
X117721380Y-67612260D01*
X117916960Y-67477640D01*
X118112540Y-67343020D01*
X118280180Y-67228720D01*
X118402100Y-67149980D01*
X118457980Y-67116960D01*
X118493540Y-67134740D01*
X118590060Y-67213480D01*
X118742460Y-67360800D01*
X118960900Y-67581780D01*
X118996460Y-67617340D01*
X119164100Y-67792600D01*
X119301260Y-67939920D01*
X119392700Y-68044060D01*
X119425720Y-68089780D01*
M02*
